<?xml version="1.0" encoding="UTF-8" standalone="no"?>
<!DOCTYPE svg PUBLIC "-//W3C//DTD SVG 1.1//EN" "http://www.w3.org/Graphics/SVG/1.1/DTD/svg11.dtd">
<svg xmlns="http://www.w3.org/2000/svg" version="1.1" viewBox="0.00 0.00 752.00 752.00">
<path fill="#000000" d="
  M 259.93 584.47
  Q 254.08 584.34 248.23 584.05
  C 244.19 583.84 244.31 582.07 244.28 578.78
  Q 243.03 443.03 243.82 408.81
  Q 244.74 369.05 245.75 354.25
  C 248.12 319.66 256.11 283.73 262.93 248.68
  Q 268.53 219.92 268.38 184.56
  Q 268.33 173.73 268.68 172.36
  Q 270.41 165.57 278.48 163.16
  C 280.53 162.54 282.80 163.50 284.60 163.50
  Q 376.93 163.50 469.27 163.50
  Q 469.47 163.50 473.68 163.05
  C 478.79 162.50 484.04 166.13 486.00 170.51
  Q 487.30 173.41 487.24 180.20
  C 487.18 188.05 486.62 196.16 486.90 203.59
  C 487.83 228.36 489.99 253.80 495.44 278.01
  Q 499.55 296.26 503.72 314.51
  C 507.89 332.72 508.84 351.99 507.89 371.43
  C 504.51 440.54 506.08 504.66 507.27 571.25
  Q 507.34 575.21 504.47 576.13
  Q 485.39 582.25 466.26 588.16
  Q 463.26 589.09 460.10 589.01
  Q 360.01 586.69 259.93 584.47
  Z
  M 251.30 577.51
  L 458.61 582.36
  Q 459.48 582.38 459.50 581.50
  C 460.81 504.96 460.63 428.82 459.23 352.44
  C 458.74 325.38 458.11 308.79 463.97 285.08
  Q 469.23 263.83 474.37 242.56
  C 477.75 228.60 478.86 214.69 479.89 200.61
  A 0.40 0.40 0.0 0 0 479.49 200.18
  Q 466.85 200.28 455.51 200.26
  C 449.83 200.25 450.53 193.53 453.81 193.52
  Q 466.75 193.49 479.34 193.50
  A 0.90 0.90 0.0 0 0 480.24 192.64
  C 480.44 188.28 481.64 175.89 479.57 172.43
  C 477.61 169.17 475.06 170.25 471.93 170.25
  Q 378.42 170.25 284.91 170.25
  C 280.15 170.25 275.48 168.51 275.25 175.63
  Q 274.98 184.26 274.73 192.96
  Q 274.72 193.49 275.25 193.49
  Q 287.56 193.51 299.86 193.52
  C 304.96 193.52 305.16 200.21 298.60 200.22
  Q 286.87 200.26 274.91 200.25
  Q 274.35 200.25 274.33 200.81
  C 273.84 213.11 273.29 225.12 271.26 237.30
  Q 266.66 264.85 261.04 292.21
  C 257.71 308.42 255.87 324.46 253.81 340.64
  Q 252.56 350.48 252.15 360.56
  C 249.35 430.71 250.07 491.77 250.90 577.11
  Q 250.90 577.50 251.30 577.51
  Z
  M 466.93 542.46
  L 499.83 565.94
  A 0.45 0.45 0.0 0 0 500.54 565.56
  C 499.57 496.03 501.22 426.42 501.77 356.88
  C 501.85 347.20 500.36 337.29 499.52 327.50
  Q 499.11 322.63 495.79 309.27
  C 489.97 285.87 484.74 262.88 482.84 238.77
  A 0.28 0.27 50.2 0 0 482.30 238.72
  Q 475.98 262.99 470.23 287.51
  C 465.72 306.73 464.97 325.09 465.61 345.18
  C 467.59 407.25 466.93 474.52 466.72 542.05
  Q 466.72 542.31 466.93 542.46
  Z
  M 495.75 572.07
  A 0.44 0.44 0.0 0 0 495.88 571.29
  L 467.26 550.89
  A 0.44 0.44 0.0 0 0 466.57 551.24
  L 466.14 580.66
  A 0.44 0.44 0.0 0 0 466.71 581.09
  L 495.75 572.07
  Z"
/>
<g>
<rect fill="#000000" x="312.58" y="193.51" width="37.16" height="6.72" rx="3.29"/>
<rect fill="#000000" x="358.81" y="193.52" width="37.14" height="6.70" rx="3.29"/>
<rect fill="#000000" x="405.04" y="193.51" width="37.64" height="6.72" rx="3.29"/>
<circle fill="#000000" cx="308.12" cy="196.81" r="2.80"/>
<circle fill="#000000" cx="354.31" cy="196.83" r="2.81"/>
<ellipse fill="#000000" cx="0.00" cy="0.00" transform="translate(400.54,196.82) rotate(-0.2)" rx="2.93" ry="2.70"/>
<circle fill="#000000" cx="446.71" cy="196.84" r="2.78"/>
<path fill="#000000" d="
  M 359.33 341.86
  C 328.08 344.11 318.29 293.60 342.18 277.69
  Q 344.83 275.92 348.44 276.00
  A 1.05 1.04 19.1 0 0 349.29 275.59
  C 350.04 274.63 350.60 274.02 351.90 273.89
  C 364.12 272.70 374.24 281.37 378.84 292.14
  Q 387.12 311.52 377.75 329.78
  Q 374.28 336.56 366.50 339.25
  A 1.39 1.35 4.5 0 0 365.77 339.85
  C 364.06 342.85 361.75 341.68 359.33 341.86
  Z
  M 362.26 331.99
  C 364.61 335.12 369.88 329.70 371.09 327.44
  Q 381.00 308.83 371.05 291.56
  C 368.36 286.90 364.49 283.53 359.75 281.33
  A 0.42 0.42 0.0 0 0 359.26 281.98
  C 366.44 290.38 367.69 300.86 362.00 310.40
  C 360.11 313.57 356.95 317.63 357.28 321.44
  C 357.69 326.14 359.55 328.41 362.26 331.99
  Z
  M 347.74 282.68
  C 343.68 282.90 338.52 290.83 337.52 293.76
  C 332.61 307.99 336.33 328.92 352.56 334.58
  Q 353.34 334.85 352.87 334.18
  C 347.89 327.04 347.67 320.14 351.06 312.32
  C 352.55 308.88 356.17 304.25 356.78 300.16
  C 357.55 294.97 354.85 290.25 351.83 285.96
  C 350.70 284.35 350.22 282.55 347.74 282.68
  Z"
/>
<path fill="#000000" d="
  M 282.69 486.81
  Q 277.97 483.34 277.97 476.75
  Q 277.99 426.25 278.01 375.52
  A 3.26 3.26 0.0 0 1 281.27 372.26
  Q 348.01 372.24 415.66 372.26
  C 424.32 372.26 428.73 377.05 428.74 385.59
  Q 428.77 436.52 428.74 486.93
  A 3.07 3.06 -90.0 0 1 425.68 490.00
  Q 358.25 490.01 290.50 489.99
  Q 287.01 489.99 282.69 486.81
  Z
  M 284.76 476.94
  C 284.76 482.88 290.53 483.47 295.25 483.47
  Q 358.47 483.50 421.37 483.50
  A 0.88 0.88 0.0 0 0 422.25 482.62
  Q 422.26 434.10 422.24 385.46
  C 422.24 380.65 420.07 378.75 415.19 378.75
  Q 350.26 378.75 285.63 378.75
  A 0.88 0.88 0.0 0 0 284.75 379.63
  Q 284.74 428.22 284.76 476.94
  Z"
/>
<rect fill="#000000" x="278.24" y="508.49" width="70.98" height="6.74" rx="3.32"/>
<rect fill="#000000" x="374.48" y="563.50" width="57.02" height="6.74" rx="3.32"/>
</g>
<g>
<rect fill="#000000" x="318.26" y="394.26" width="70.98" height="6.74" rx="3.33"/>
<rect fill="#000000" x="318.25" y="416.51" width="71.00" height="6.74" rx="3.33"/>
</g>
</svg>
