<?xml version="1.0" encoding="UTF-8" standalone="no"?>
<!DOCTYPE svg PUBLIC "-//W3C//DTD SVG 1.1//EN" "http://www.w3.org/Graphics/SVG/1.1/DTD/svg11.dtd">
<svg xmlns="http://www.w3.org/2000/svg" version="1.1" viewBox="0.00 0.00 135.00 224.00">
<g stroke-width="5.00" fill="none" stroke-linecap="butt">
<path stroke="#808080" vector-effect="non-scaling-stroke" d="
  M 59.03 52.31
  C 58.41 39.90 62.72 26.17 67.56 14.54
  A 0.16 0.15 -13.1 0 0 67.30 14.38
  Q 49.22 34.90 47.44 62.25
  Q 46.07 83.26 51.01 102.50
  Q 56.26 122.95 59.87 138.99
  Q 62.50 150.72 63.10 158.69
  Q 65.43 189.67 53.48 218.84
  Q 53.18 219.57 53.80 219.08
  C 65.54 209.91 75.02 198.62 79.71 184.27
  C 86.19 164.44 85.44 144.21 80.04 125.00
  Q 72.83 99.36 62.22 69.02
  Q 59.47 61.14 59.03 52.31"
/>
<path stroke="#808080" vector-effect="non-scaling-stroke" d="
  M 22.33 98.49
  C 21.56 89.02 24.65 79.08 28.31 70.30
  A 0.25 0.24 77.1 0 0 27.90 70.04
  C 20.01 79.18 15.46 89.64 14.06 101.91
  C 10.47 133.43 29.04 160.70 25.07 192.52
  Q 23.37 206.07 18.55 218.92
  Q 18.43 219.23 18.70 219.04
  Q 31.12 210.12 36.15 197.64
  Q 44.00 178.20 39.01 156.01
  Q 35.34 139.68 24.70 110.03
  Q 22.86 104.90 22.33 98.49"
/>
<path stroke="#808080" vector-effect="non-scaling-stroke" d="
  M 105.55 218.59
  Q 105.40 218.96 105.39 219.24
  A 0.30 0.30 0.0 0 0 105.89 219.47
  C 111.58 214.36 117.42 208.97 120.91 202.25
  Q 129.13 186.46 128.00 169.48
  Q 127.15 156.64 122.18 141.39
  C 119.36 132.74 116.65 124.07 113.76 115.45
  Q 110.00 104.24 109.53 99.62
  C 108.47 89.22 111.83 79.53 115.46 69.94
  A 0.17 0.17 0.0 0 0 115.18 69.77
  Q 102.72 84.14 101.10 103.25
  Q 99.80 118.47 102.66 130.25
  Q 106.26 145.06 109.84 159.85
  Q 117.11 189.98 105.55 218.59"
/>
</g>
<path fill="none" d="
  M 0.00 0.00
  L 135.00 0.00
  L 135.00 224.00
  L 0.00 224.00
  L 0.00 0.00
  Z
  M 59.03 52.31
  C 58.41 39.90 62.72 26.17 67.56 14.54
  A 0.16 0.15 -13.1 0 0 67.30 14.38
  Q 49.22 34.90 47.44 62.25
  Q 46.07 83.26 51.01 102.50
  Q 56.26 122.95 59.87 138.99
  Q 62.50 150.72 63.10 158.69
  Q 65.43 189.67 53.48 218.84
  Q 53.18 219.57 53.80 219.08
  C 65.54 209.91 75.02 198.62 79.71 184.27
  C 86.19 164.44 85.44 144.21 80.04 125.00
  Q 72.83 99.36 62.22 69.02
  Q 59.47 61.14 59.03 52.31
  Z
  M 22.33 98.49
  C 21.56 89.02 24.65 79.08 28.31 70.30
  A 0.25 0.24 77.1 0 0 27.90 70.04
  C 20.01 79.18 15.46 89.64 14.06 101.91
  C 10.47 133.43 29.04 160.70 25.07 192.52
  Q 23.37 206.07 18.55 218.92
  Q 18.43 219.23 18.70 219.04
  Q 31.12 210.12 36.15 197.64
  Q 44.00 178.20 39.01 156.01
  Q 35.34 139.68 24.70 110.03
  Q 22.86 104.90 22.33 98.49
  Z
  M 105.55 218.59
  Q 105.40 218.96 105.39 219.24
  A 0.30 0.30 0.0 0 0 105.89 219.47
  C 111.58 214.36 117.42 208.97 120.91 202.25
  Q 129.13 186.46 128.00 169.48
  Q 127.15 156.64 122.18 141.39
  C 119.36 132.74 116.65 124.07 113.76 115.45
  Q 110.00 104.24 109.53 99.62
  C 108.47 89.22 111.83 79.53 115.46 69.94
  A 0.17 0.17 0.0 0 0 115.18 69.77
  Q 102.72 84.14 101.10 103.25
  Q 99.80 118.47 102.66 130.25
  Q 106.26 145.06 109.84 159.85
  Q 117.11 189.98 105.55 218.59
  Z"
/>
<g>
<path fill="#000000" d="
  M 59.03 52.31
  Q 59.47 61.14 62.22 69.02
  Q 72.83 99.36 80.04 125.00
  C 85.44 144.21 86.19 164.44 79.71 184.27
  C 75.02 198.62 65.54 209.91 53.80 219.08
  Q 53.18 219.57 53.48 218.84
  Q 65.43 189.67 63.10 158.69
  Q 62.50 150.72 59.87 138.99
  Q 56.26 122.95 51.01 102.50
  Q 46.07 83.26 47.44 62.25
  Q 49.22 34.90 67.30 14.38
  A 0.16 0.15 -13.1 0 1 67.56 14.54
  C 62.72 26.17 58.41 39.90 59.03 52.31
  Z"
/>
<path fill="#000000" d="
  M 22.33 98.49
  Q 22.86 104.90 24.70 110.03
  Q 35.34 139.68 39.01 156.01
  Q 44.00 178.20 36.15 197.64
  Q 31.12 210.12 18.70 219.04
  Q 18.43 219.23 18.55 218.92
  Q 23.37 206.07 25.07 192.52
  C 29.04 160.70 10.47 133.43 14.06 101.91
  C 15.46 89.64 20.01 79.18 27.90 70.04
  A 0.25 0.24 77.1 0 1 28.31 70.30
  C 24.65 79.08 21.56 89.02 22.33 98.49
  Z"
/>
<path fill="#000000" d="
  M 105.55 218.59
  Q 117.11 189.98 109.84 159.85
  Q 106.26 145.06 102.66 130.25
  Q 99.80 118.47 101.10 103.25
  Q 102.72 84.14 115.18 69.77
  A 0.17 0.17 0.0 0 1 115.46 69.94
  C 111.83 79.53 108.47 89.22 109.53 99.62
  Q 110.00 104.24 113.76 115.45
  C 116.65 124.07 119.36 132.74 122.18 141.39
  Q 127.15 156.64 128.00 169.48
  Q 129.13 186.46 120.91 202.25
  C 117.42 208.97 111.58 214.36 105.89 219.47
  A 0.30 0.30 0.0 0 1 105.39 219.24
  Q 105.40 218.96 105.55 218.59
  Z"
/>
</g>
</svg>
