<?xml version="1.0" encoding="UTF-8" standalone="no"?>
<!DOCTYPE svg PUBLIC "-//W3C//DTD SVG 1.1//EN" "http://www.w3.org/Graphics/SVG/1.1/DTD/svg11.dtd">
<svg xmlns="http://www.w3.org/2000/svg" version="1.1" viewBox="0.00 -70.00 500.00 500.00">
<g stroke-width="5.00" fill="none" stroke-linecap="butt">
<path stroke="#a6a6a6" vector-effect="non-scaling-stroke" d="
  M 115.28 17.24
  L 57.62 17.22
  A 0.95 0.95 0.0 0 0 56.69 17.96
  L 46.95 63.00
  A 0.69 0.68 5.2 0 1 46.29 63.54
  L 28.47 63.81"
/>
<path stroke="#808080" vector-effect="non-scaling-stroke" d="
  M 28.47 63.81
  L 10.00 63.71
  Q 9.48 63.71 9.48 64.23
  L 9.46 125.61
  A 0.40 0.40 0.0 0 0 9.86 126.01
  L 22.71 125.99
  Q 23.18 125.99 23.23 126.46
  L 46.54 366.78"
/>
<path stroke="#a6a6a6" vector-effect="non-scaling-stroke" d="
  M 46.54 366.78
  L 53.76 440.63"
/>
<path stroke="#808080" vector-effect="non-scaling-stroke" d="
  M 53.76 440.63
  L 56.38 467.48
  Q 56.43 468.04 56.99 468.04
  L 175.28 468.09"
/>
<path stroke="#a6a6a6" vector-effect="non-scaling-stroke" d="
  M 175.28 468.09
  L 261.78 468.12"
/>
<path stroke="#808080" vector-effect="non-scaling-stroke" d="
  M 261.78 468.12
  L 284.73 468.12
  Q 285.32 468.12 285.36 467.53
  L 285.57 464.29"
/>
<path stroke="#a6a6a6" vector-effect="non-scaling-stroke" d="
  M 285.57 464.29
  L 287.93 441.47"
/>
<path stroke="#808080" vector-effect="non-scaling-stroke" d="
  M 287.93 441.47
  L 307.27 248.23"
/>
<path stroke="#a6a6a6" vector-effect="non-scaling-stroke" d="
  M 307.27 248.23
  L 318.42 137.34"
/>
<path stroke="#808080" vector-effect="non-scaling-stroke" d="
  M 318.42 137.34
  L 319.50 126.44
  Q 319.55 125.98 320.01 125.98
  L 333.25 126.01
  Q 333.77 126.01 333.77 125.50
  L 333.76 64.19
  Q 333.76 63.62 333.20 63.62
  L 296.35 63.62
  A 1.23 1.23 0.0 0 1 295.14 62.62
  L 286.67 17.54
  A 0.40 0.39 -5.2 0 0 286.28 17.22
  L 115.28 17.24"
/>
<path stroke="#262626" vector-effect="non-scaling-stroke" d="
  M 318.42 137.34
  Q 295.71 124.83 272.51 113.70
  Q 271.46 113.19 268.68 112.24
  Q 266.71 111.56 264.92 110.50"
/>
<path stroke="#808080" vector-effect="non-scaling-stroke" d="
  M 264.92 110.50
  L 317.76 110.46
  A 0.47 0.47 0.0 0 0 318.23 109.99
  L 318.21 79.75
  Q 318.21 79.22 317.68 79.22
  L 200.51 79.22"
/>
<path stroke="#262626" vector-effect="non-scaling-stroke" d="
  M 200.51 79.22
  L 173.06 63.60"
/>
<path stroke="#808080" vector-effect="non-scaling-stroke" d="
  M 173.06 63.60
  L 278.91 63.63
  A 0.53 0.53 0.0 0 0 279.43 63.00
  L 273.82 33.26
  Q 273.72 32.75 273.20 32.75
  L 127.77 32.73"
/>
<path stroke="#262626" vector-effect="non-scaling-stroke" d="
  M 127.77 32.73
  L 127.73 31.00
  A 1.29 1.27 23.1 0 0 127.38 30.15
  L 115.28 17.24"
/>
<path stroke="#a6a6a6" vector-effect="non-scaling-stroke" d="
  M 198.98 179.57
  L 297.84 179.40
  A 0.76 0.76 0.0 0 0 298.60 178.72
  L 303.15 134.24
  Q 303.21 133.68 302.64 133.68
  L 111.05 133.76"
/>
<path stroke="#a6a6a6" vector-effect="non-scaling-stroke" d="
  M 127.77 32.73
  L 70.08 32.74
  A 0.79 0.79 0.0 0 0 69.31 33.37
  L 62.92 63.01
  A 0.46 0.45 6.1 0 0 63.37 63.56
  L 173.06 63.60"
/>
<path stroke="#a6a6a6" vector-effect="non-scaling-stroke" d="
  M 200.51 79.22
  L 40.48 79.21"
/>
<path stroke="#262626" vector-effect="non-scaling-stroke" d="
  M 40.48 79.21
  Q 33.36 72.30 28.47 63.81"
/>
<path stroke="#a6a6a6" vector-effect="non-scaling-stroke" d="
  M 264.92 110.50
  L 77.99 110.46"
/>
<path stroke="#808080" vector-effect="non-scaling-stroke" d="
  M 40.48 79.21
  L 25.49 79.24
  Q 25.00 79.24 25.00 79.74
  L 24.99 109.50
  A 0.97 0.96 -0.0 0 0 25.96 110.46
  L 77.99 110.46"
/>
<path stroke="#262626" vector-effect="non-scaling-stroke" d="
  M 77.99 110.46
  C 79.53 111.74 80.85 113.26 82.44 114.34
  Q 95.20 123.01 108.28 131.15
  Q 108.88 131.52 110.03 131.92
  Q 112.02 132.61 111.05 133.76"
/>
<path stroke="#808080" vector-effect="non-scaling-stroke" d="
  M 111.05 133.76
  L 40.03 133.80
  Q 39.56 133.80 39.60 134.27
  L 43.87 178.90
  A 0.44 0.43 87.7 0 0 44.29 179.29
  L 198.98 179.57"
/>
<path stroke="#262626" vector-effect="non-scaling-stroke" d="
  M 198.98 179.57
  Q 227.44 195.17 254.40 211.14
  Q 281.26 227.04 304.98 247.30
  Q 305.92 248.10 307.27 248.23"
/>
<path stroke="#262626" vector-effect="non-scaling-stroke" d="
  M 287.93 441.47
  L 273.76 445.80
  Q 273.28 445.95 272.95 446.34
  L 271.75 447.81"
/>
<path stroke="#808080" vector-effect="non-scaling-stroke" d="
  M 271.75 447.81
  L 284.18 322.93
  Q 284.23 322.43 283.73 322.43
  L 58.28 322.43
  Q 57.83 322.43 57.88 322.87
  L 63.88 383.78"
/>
<path stroke="#262626" vector-effect="non-scaling-stroke" d="
  M 63.88 383.78
  L 63.83 384.53
  A 0.48 0.48 0.0 0 1 62.99 384.82
  L 46.54 366.78"
/>
<path stroke="#262626" vector-effect="non-scaling-stroke" d="
  M 285.57 464.29
  Q 280.17 466.13 274.49 466.49
  Q 268.50 466.87 262.49 467.22
  Q 262.01 467.25 261.84 467.70
  Q 261.76 467.91 261.78 468.12"
/>
<path stroke="#262626" vector-effect="non-scaling-stroke" d="
  M 69.22 439.93
  L 53.76 440.63"
/>
<path stroke="#a6a6a6" vector-effect="non-scaling-stroke" d="
  M 271.75 447.81
  L 271.38 451.73
  A 0.86 0.85 -87.4 0 1 270.53 452.51
  L 102.03 452.50"
/>
<path stroke="#808080" vector-effect="non-scaling-stroke" d="
  M 102.03 452.50
  L 70.88 452.50
  A 0.53 0.53 0.0 0 1 70.35 452.01
  L 69.22 439.93"
/>
<path stroke="#a6a6a6" vector-effect="non-scaling-stroke" d="
  M 69.22 439.93
  L 63.88 383.78"
/>
<path stroke="#262626" vector-effect="non-scaling-stroke" d="
  M 102.03 452.50
  Q 137.63 464.30 175.20 467.18
  Q 175.79 467.23 175.49 467.74
  L 175.28 468.09"
/>
<path stroke="#800000" vector-effect="non-scaling-stroke" d="
  M 171.20 222.50
  C 167.37 217.66 164.68 213.83 158.30 212.55
  C 151.57 211.21 142.82 213.22 138.55 219.07
  C 125.76 236.59 159.57 263.36 171.26 272.64
  Q 171.56 272.87 171.86 272.64
  C 182.77 264.36 223.72 231.37 201.02 215.69
  C 194.48 211.16 185.08 210.85 178.50 215.31
  C 175.99 217.01 174.09 219.92 172.10 222.50
  Q 171.65 223.07 171.20 222.50"
/>
</g>
<path fill="none" d="
  M 0.00 0.00
  L 342.00 0.00
  L 342.00 507.00
  L 0.00 507.00
  L 0.00 0.00
  Z
  M 115.28 17.24
  L 57.62 17.22
  A 0.95 0.95 0.0 0 0 56.69 17.96
  L 46.95 63.00
  A 0.69 0.68 5.2 0 1 46.29 63.54
  L 28.47 63.81
  L 10.00 63.71
  Q 9.48 63.71 9.48 64.23
  L 9.46 125.61
  A 0.40 0.40 0.0 0 0 9.86 126.01
  L 22.71 125.99
  Q 23.18 125.99 23.23 126.46
  L 46.54 366.78
  L 53.76 440.63
  L 56.38 467.48
  Q 56.43 468.04 56.99 468.04
  L 175.28 468.09
  L 261.78 468.12
  L 284.73 468.12
  Q 285.32 468.12 285.36 467.53
  L 285.57 464.29
  L 287.93 441.47
  L 307.27 248.23
  L 318.42 137.34
  L 319.50 126.44
  Q 319.55 125.98 320.01 125.98
  L 333.25 126.01
  Q 333.77 126.01 333.77 125.50
  L 333.76 64.19
  Q 333.76 63.62 333.20 63.62
  L 296.35 63.62
  A 1.23 1.23 0.0 0 1 295.14 62.62
  L 286.67 17.54
  A 0.40 0.39 -5.2 0 0 286.28 17.22
  L 115.28 17.24
  Z"
/>
<g>
<path fill="#000000" d="
  M 318.42 137.34
  Q 295.71 124.83 272.51 113.70
  Q 271.46 113.19 268.68 112.24
  Q 266.71 111.56 264.92 110.50
  L 317.76 110.46
  A 0.47 0.47 0.0 0 0 318.23 109.99
  L 318.21 79.75
  Q 318.21 79.22 317.68 79.22
  L 200.51 79.22
  L 173.06 63.60
  L 278.91 63.63
  A 0.53 0.53 0.0 0 0 279.43 63.00
  L 273.82 33.26
  Q 273.72 32.75 273.20 32.75
  L 127.77 32.73
  L 127.73 31.00
  A 1.29 1.27 23.1 0 0 127.38 30.15
  L 115.28 17.24
  L 286.28 17.22
  A 0.40 0.39 -5.2 0 1 286.67 17.54
  L 295.14 62.62
  A 1.23 1.23 0.0 0 0 296.35 63.62
  L 333.20 63.62
  Q 333.76 63.62 333.76 64.19
  L 333.77 125.50
  Q 333.77 126.01 333.25 126.01
  L 320.01 125.98
  Q 319.55 125.98 319.50 126.44
  L 318.42 137.34
  Z"
/>
<path fill="#4c4c4c" d="
  M 115.28 17.24
  L 127.38 30.15
  A 1.29 1.27 23.1 0 1 127.73 31.00
  L 127.77 32.73
  L 70.08 32.74
  A 0.79 0.79 0.0 0 0 69.31 33.37
  L 62.92 63.01
  A 0.46 0.45 6.1 0 0 63.37 63.56
  L 173.06 63.60
  L 200.51 79.22
  L 40.48 79.21
  Q 33.36 72.30 28.47 63.81
  L 46.29 63.54
  A 0.69 0.68 5.2 0 0 46.95 63.00
  L 56.69 17.96
  A 0.95 0.95 0.0 0 1 57.62 17.22
  L 115.28 17.24
  Z"
/>
<path fill="#ffffff" d="
  M 127.77 32.73
  L 273.20 32.75
  Q 273.72 32.75 273.82 33.26
  L 279.43 63.00
  A 0.53 0.53 0.0 0 1 278.91 63.63
  L 173.06 63.60
  L 63.37 63.56
  A 0.46 0.45 6.1 0 1 62.92 63.01
  L 69.31 33.37
  A 0.79 0.79 0.0 0 1 70.08 32.74
  L 127.77 32.73
  Z"
/>
<path fill="#000000" d="
  M 28.47 63.81
  Q 33.36 72.30 40.48 79.21
  L 25.49 79.24
  Q 25.00 79.24 25.00 79.74
  L 24.99 109.50
  A 0.97 0.96 -0.0 0 0 25.96 110.46
  L 77.99 110.46
  C 79.53 111.74 80.85 113.26 82.44 114.34
  Q 95.20 123.01 108.28 131.15
  Q 108.88 131.52 110.03 131.92
  Q 112.02 132.61 111.05 133.76
  L 40.03 133.80
  Q 39.56 133.80 39.60 134.27
  L 43.87 178.90
  A 0.44 0.43 87.7 0 0 44.29 179.29
  L 198.98 179.57
  Q 227.44 195.17 254.40 211.14
  Q 281.26 227.04 304.98 247.30
  Q 305.92 248.10 307.27 248.23
  L 287.93 441.47
  L 273.76 445.80
  Q 273.28 445.95 272.95 446.34
  L 271.75 447.81
  L 284.18 322.93
  Q 284.23 322.43 283.73 322.43
  L 58.28 322.43
  Q 57.83 322.43 57.88 322.87
  L 63.88 383.78
  L 63.83 384.53
  A 0.48 0.48 0.0 0 1 62.99 384.82
  L 46.54 366.78
  L 23.23 126.46
  Q 23.18 125.99 22.71 125.99
  L 9.86 126.01
  A 0.40 0.40 0.0 0 1 9.46 125.61
  L 9.48 64.23
  Q 9.48 63.71 10.00 63.71
  L 28.47 63.81
  Z
  M 171.20 222.50
  C 167.37 217.66 164.68 213.83 158.30 212.55
  C 151.57 211.21 142.82 213.22 138.55 219.07
  C 125.76 236.59 159.57 263.36 171.26 272.64
  Q 171.56 272.87 171.86 272.64
  C 182.77 264.36 223.72 231.37 201.02 215.69
  C 194.48 211.16 185.08 210.85 178.50 215.31
  C 175.99 217.01 174.09 219.92 172.10 222.50
  Q 171.65 223.07 171.20 222.50
  Z"
/>
<path fill="#ffffff" d="
  M 40.48 79.21
  L 200.51 79.22
  L 317.68 79.22
  Q 318.21 79.22 318.21 79.75
  L 318.23 109.99
  A 0.47 0.47 0.0 0 1 317.76 110.46
  L 264.92 110.50
  L 77.99 110.46
  L 25.96 110.46
  A 0.97 0.96 -0.0 0 1 24.99 109.50
  L 25.00 79.74
  Q 25.00 79.24 25.49 79.24
  L 40.48 79.21
  Z"
/>
<path fill="#4c4c4c" d="
  M 77.99 110.46
  L 264.92 110.50
  Q 266.71 111.56 268.68 112.24
  Q 271.46 113.19 272.51 113.70
  Q 295.71 124.83 318.42 137.34
  L 307.27 248.23
  Q 305.92 248.10 304.98 247.30
  Q 281.26 227.04 254.40 211.14
  Q 227.44 195.17 198.98 179.57
  L 297.84 179.40
  A 0.76 0.76 0.0 0 0 298.60 178.72
  L 303.15 134.24
  Q 303.21 133.68 302.64 133.68
  L 111.05 133.76
  Q 112.02 132.61 110.03 131.92
  Q 108.88 131.52 108.28 131.15
  Q 95.20 123.01 82.44 114.34
  C 80.85 113.26 79.53 111.74 77.99 110.46
  Z"
/>
<path fill="#ffffff" d="
  M 111.05 133.76
  L 302.64 133.68
  Q 303.21 133.68 303.15 134.24
  L 298.60 178.72
  A 0.76 0.76 0.0 0 1 297.84 179.40
  L 198.98 179.57
  L 44.29 179.29
  A 0.44 0.43 87.7 0 1 43.87 178.90
  L 39.60 134.27
  Q 39.56 133.80 40.03 133.80
  L 111.05 133.76
  Z"
/>
<path fill="#ffffff" d="
  M 271.75 447.81
  L 271.38 451.73
  A 0.86 0.85 -87.4 0 1 270.53 452.51
  L 102.03 452.50
  L 70.88 452.50
  A 0.53 0.53 0.0 0 1 70.35 452.01
  L 69.22 439.93
  L 63.88 383.78
  L 57.88 322.87
  Q 57.83 322.43 58.28 322.43
  L 283.73 322.43
  Q 284.23 322.43 284.18 322.93
  L 271.75 447.81
  Z"
/>
<path fill="#4c4c4c" d="
  M 46.54 366.78
  L 62.99 384.82
  A 0.48 0.48 0.0 0 0 63.83 384.53
  L 63.88 383.78
  L 69.22 439.93
  L 53.76 440.63
  L 46.54 366.78
  Z"
/>
<path fill="#000000" d="
  M 69.22 439.93
  L 70.35 452.01
  A 0.53 0.53 0.0 0 0 70.88 452.50
  L 102.03 452.50
  Q 137.63 464.30 175.20 467.18
  Q 175.79 467.23 175.49 467.74
  L 175.28 468.09
  L 56.99 468.04
  Q 56.43 468.04 56.38 467.48
  L 53.76 440.63
  L 69.22 439.93
  Z"
/>
<path fill="#4c4c4c" d="
  M 287.93 441.47
  L 285.57 464.29
  Q 280.17 466.13 274.49 466.49
  Q 268.50 466.87 262.49 467.22
  Q 262.01 467.25 261.84 467.70
  Q 261.76 467.91 261.78 468.12
  L 175.28 468.09
  L 175.49 467.74
  Q 175.79 467.23 175.20 467.18
  Q 137.63 464.30 102.03 452.50
  L 270.53 452.51
  A 0.86 0.85 -87.4 0 0 271.38 451.73
  L 271.75 447.81
  L 272.95 446.34
  Q 273.28 445.95 273.76 445.80
  L 287.93 441.47
  Z"
/>
<path fill="#000000" d="
  M 285.57 464.29
  L 285.36 467.53
  Q 285.32 468.12 284.73 468.12
  L 261.78 468.12
  Q 261.76 467.91 261.84 467.70
  Q 262.01 467.25 262.49 467.22
  Q 268.50 466.87 274.49 466.49
  Q 280.17 466.13 285.57 464.29
  Z"
/>
</g>
<path fill="#ff0000" d="
  M 172.10 222.50
  C 174.09 219.92 175.99 217.01 178.50 215.31
  C 185.08 210.85 194.48 211.16 201.02 215.69
  C 223.72 231.37 182.77 264.36 171.86 272.64
  Q 171.56 272.87 171.26 272.64
  C 159.57 263.36 125.76 236.59 138.55 219.07
  C 142.82 213.22 151.57 211.21 158.30 212.55
  C 164.68 213.83 167.37 217.66 171.20 222.50
  Q 171.65 223.07 172.10 222.50
  Z"
/>
</svg>
