<?xml version="1.0" encoding="UTF-8" standalone="no"?>
<!DOCTYPE svg PUBLIC "-//W3C//DTD SVG 1.1//EN" "http://www.w3.org/Graphics/SVG/1.1/DTD/svg11.dtd">
<svg xmlns="http://www.w3.org/2000/svg" version="1.1" viewBox="0.00 0.00 104.00 103.00">
<g stroke-width="5.00" fill="none" stroke-linecap="butt">
<path stroke="#706f6f" vector-effect="non-scaling-stroke" d="
  M 51.51 4.24
  L 51.47 8.22
  A 0.51 0.51 0.0 0 0 51.98 8.73
  L 52.21 8.73
  A 2.32 2.02 -89.5 0 0 54.25 6.43
  L 54.25 6.07
  A 2.32 2.02 -89.5 0 0 52.25 3.73
  L 52.02 3.73
  A 0.51 0.51 0.0 0 0 51.51 4.24"
/>
<path stroke="#706f6f" vector-effect="non-scaling-stroke" d="
  M 47.1654 9.0828
  A 2.45 1.45 80.0 0 0 48.1680 6.4182
  A 2.45 1.45 80.0 0 0 46.3146 4.2572
  A 2.45 1.45 80.0 0 0 45.3120 6.9218
  A 2.45 1.45 80.0 0 0 47.1654 9.0828"
/>
<path stroke="#706f6f" vector-effect="non-scaling-stroke" d="
  M 64.6619 6.2650
  A 0.83 0.83 0.0 0 0 64.0072 5.2908
  L 63.4184 5.1753
  A 0.83 0.83 0.0 0 0 62.4441 5.8299
  L 61.8781 8.7150
  A 0.83 0.83 0.0 0 0 62.5328 9.6892
  L 63.1216 9.8047
  A 0.83 0.83 0.0 0 0 64.0959 9.1501
  L 64.6619 6.2650"
/>
<path stroke="#706f6f" vector-effect="non-scaling-stroke" d="
  M 40.47 9.52
  Q 40.36 9.72 40.40 9.80
  A 1.17 1.06 27.4 0 0 42.56 9.23
  L 41.41 5.63
  A 0.48 0.48 0.0 0 0 40.48 5.79
  L 40.58 9.07
  Q 40.58 9.31 40.47 9.52"
/>
<path stroke="#706f6f" vector-effect="non-scaling-stroke" d="
  M 70.5203 8.6188
  A 0.99 0.99 0.0 0 0 70.0323 7.3065
  L 69.7959 7.1983
  A 0.99 0.99 0.0 0 0 68.4836 7.6863
  L 67.3597 10.1412
  A 0.99 0.99 0.0 0 0 67.8477 11.4535
  L 68.0841 11.5617
  A 0.99 0.99 0.0 0 0 69.3964 11.0737
  L 70.5203 8.6188"
/>
<path stroke="#706f6f" vector-effect="non-scaling-stroke" d="
  M 36.07 12.05
  L 37.35 11.73
  A 0.28 0.28 0.0 0 0 37.55 11.38
  L 37.50 11.20
  A 4.03 0.86 75.6 0 0 35.67 7.51
  L 35.51 7.55
  A 4.03 0.86 75.6 0 0 35.68 11.67
  L 35.73 11.85
  A 0.28 0.28 0.0 0 0 36.07 12.05"
/>
<path stroke="#706f6f" vector-effect="non-scaling-stroke" d="
  M 72.3866 13.6574
  A 2.51 0.62 122.9 0 0 74.2706 11.8868
  A 2.51 0.62 122.9 0 0 75.1134 9.4426
  A 2.51 0.62 122.9 0 0 73.2294 11.2132
  A 2.51 0.62 122.9 0 0 72.3866 13.6574"
/>
<path stroke="#706f6f" vector-effect="non-scaling-stroke" d="
  M 32.3951 14.3613
  A 2.64 0.94 58.1 0 0 31.7980 11.6233
  A 2.64 0.94 58.1 0 0 29.6049 9.8787
  A 2.64 0.94 58.1 0 0 30.2020 12.6167
  A 2.64 0.94 58.1 0 0 32.3951 14.3613"
/>
<path stroke="#706f6f" vector-effect="non-scaling-stroke" d="
  M 79.9420 13.9745
  A 0.80 0.80 0.0 0 0 79.7552 12.8587
  L 79.1528 12.4290
  A 0.80 0.80 0.0 0 0 78.0369 12.6157
  L 76.3180 15.0255
  A 0.80 0.80 0.0 0 0 76.5048 16.1413
  L 77.1072 16.5710
  A 0.80 0.80 0.0 0 0 78.2231 16.3843
  L 79.9420 13.9745"
/>
<path stroke="#706f6f" vector-effect="non-scaling-stroke" d="
  M 24.78 15.00
  L 26.75 17.25
  A 0.93 0.93 0.0 0 0 28.16 16.05
  L 25.99 13.42
  A 0.85 0.85 0.0 0 0 24.48 13.98
  L 24.50 14.72"
/>
<path stroke="#171815" stroke-opacity="0.698" vector-effect="non-scaling-stroke" d="
  M 36.7770 16.0643
  A 0.92 0.64 15.4 0 0 36.0600 15.2030
  A 0.92 0.64 15.4 0 0 35.0030 15.5757
  A 0.92 0.64 15.4 0 0 35.7200 16.4370
  A 0.92 0.64 15.4 0 0 36.7770 16.0643"
/>
<path stroke="#706f6f" vector-effect="non-scaling-stroke" d="
  M 23.8443 20.4571
  A 0.81 0.81 0.0 0 0 23.8143 19.3120
  L 21.4351 17.0542
  A 0.81 0.81 0.0 0 0 20.2900 17.0842
  L 19.8357 17.5629
  A 0.81 0.81 0.0 0 0 19.8657 18.7080
  L 22.2449 20.9658
  A 0.81 0.81 0.0 0 0 23.3900 20.9358
  L 23.8443 20.4571"
/>
<path stroke="#171815" stroke-opacity="0.698" vector-effect="non-scaling-stroke" d="
  M 17.3092 19.4012
  A 1.41 0.55 132.4 0 0 18.6662 18.7309
  A 1.41 0.55 132.4 0 0 19.2108 17.3188
  A 1.41 0.55 132.4 0 0 17.8538 17.9891
  A 1.41 0.55 132.4 0 0 17.3092 19.4012"
/>
<path stroke="#8e8e8d" vector-effect="non-scaling-stroke" d="
  M 80.98 59.55
  L 82.73 58.72
  Q 83.22 58.49 83.35 57.97
  C 84.11 55.09 83.27 52.86 80.04 52.43
  Q 72.06 51.37 65.91 56.57
  A 1.22 1.22 0.0 0 1 63.98 56.05
  Q 60.93 47.54 53.74 42.14
  Q 53.32 41.82 53.63 41.38
  C 55.72 38.51 60.47 33.32 64.36 34.42
  A 1.62 1.62 0.0 0 0 65.51 31.41
  Q 63.25 30.30 61.03 31.04
  A 0.98 0.97 54.8 0 1 60.13 30.88
  Q 58.36 29.47 58.51 27.15
  Q 58.54 26.60 58.16 26.19
  L 55.46 23.28
  Q 55.00 22.77 54.43 23.16
  L 51.30 25.32
  A 0.34 0.33 77.3 0 1 50.78 24.99
  L 51.05 23.35
  Q 51.14 22.77 50.68 22.42
  L 46.83 19.50
  A 1.47 1.46 -48.2 0 0 44.92 19.61
  Q 37.27 26.94 37.60 37.68
  Q 37.61 38.17 37.32 38.56
  L 33.78 43.31
  Q 33.52 43.66 33.09 43.63
  L 27.06 43.30
  A 0.50 0.50 0.0 0 0 26.74 44.21
  L 31.19 47.41
  Q 31.56 47.67 31.38 48.09
  Q 28.60 54.57 29.35 61.65
  A 0.69 0.66 -43.6 0 1 29.34 61.85
  L 28.43 65.63
  Q 28.32 66.11 28.75 66.32
  C 32.44 68.16 40.15 67.65 43.99 67.43
  Q 44.47 67.41 44.81 67.07
  L 45.09 66.79
  Q 45.54 66.33 45.89 66.88
  C 46.17 67.32 46.62 67.75 47.19 67.76
  Q 58.39 68.03 69.53 68.72
  Q 70.02 68.75 70.40 68.42
  Q 75.03 64.42 81.05 64.62
  A 1.98 1.97 -30.5 0 0 82.02 60.89
  L 80.96 60.35
  Q 80.15 59.93 80.98 59.55"
/>
<path stroke="#706f6f" vector-effect="non-scaling-stroke" d="
  M 83.63 22.06
  A 0.42 0.42 0.0 0 0 83.51 22.70
  L 84.37 23.75
  A 0.42 0.42 0.0 0 0 85.02 23.75
  L 87.45 20.86
  A 0.42 0.42 0.0 0 0 86.92 20.22
  L 83.63 22.06"
/>
<path stroke="#171815" stroke-opacity="0.698" vector-effect="non-scaling-stroke" d="
  M 73.27 21.74
  Q 72.90 21.01 72.32 21.34
  Q 71.72 21.68 72.19 22.36
  A 0.33 0.32 57.9 0 0 72.62 22.46
  L 73.15 22.15
  Q 73.40 22.00 73.27 21.74"
/>
<path stroke="#706f6f" vector-effect="non-scaling-stroke" d="
  M 19.7819 24.9275
  A 2.55 1.38 36.8 0 0 18.5667 22.2950
  A 2.55 1.38 36.8 0 0 15.6981 21.8725
  A 2.55 1.38 36.8 0 0 16.9133 24.5050
  A 2.55 1.38 36.8 0 0 19.7819 24.9275"
/>
<path stroke="#171815" stroke-opacity="0.698" vector-effect="non-scaling-stroke" d="
  M 33.29 24.90
  Q 33.43 24.63 33.22 24.40
  Q 32.87 24.01 32.32 24.22
  A 0.74 0.58 -58.1 0 0 32.47 25.54
  Q 33.07 25.34 33.29 24.90"
/>
<path stroke="#706f6f" vector-effect="non-scaling-stroke" d="
  M 90.86 24.50
  L 86.90 27.74
  A 0.10 0.10 0.0 0 0 86.89 27.88
  L 86.92 27.92
  A 2.29 1.27 -39.3 0 0 89.49 27.45
  L 90.07 26.99
  A 2.29 1.27 -39.3 0 0 91.03 24.55
  L 91.00 24.51
  A 0.10 0.10 0.0 0 0 90.86 24.50"
/>
<path stroke="#706f6f" vector-effect="non-scaling-stroke" d="
  M 16.5617 29.7094
  A 2.41 1.32 29.3 0 0 15.1060 27.3789
  A 2.41 1.32 29.3 0 0 12.3583 27.3506
  A 2.41 1.32 29.3 0 0 13.8140 29.6811
  A 2.41 1.32 29.3 0 0 16.5617 29.7094"
/>
<path stroke="#706f6f" vector-effect="non-scaling-stroke" d="
  M 9.63 32.26
  L 11.70 35.08
  A 1.00 1.00 0.0 0 0 12.71 35.47
  Q 13.71 35.27 14.09 34.30
  Q 14.30 33.79 13.81 33.53
  L 10.25 31.68"
/>
<path stroke="#171815" stroke-opacity="0.698" vector-effect="non-scaling-stroke" d="
  M 20.9325 30.8611
  A 0.79 0.59 124.5 0 0 21.8662 30.5442
  A 0.79 0.59 124.5 0 0 21.8275 29.5589
  A 0.79 0.59 124.5 0 0 20.8938 29.8758
  A 0.79 0.59 124.5 0 0 20.9325 30.8611"
/>
<path stroke="#706f6f" vector-effect="non-scaling-stroke" d="
  M 93.6974 30.4516
  A 1.08 1.08 0.0 0 0 92.2659 29.9192
  L 89.9200 30.9932
  A 1.08 1.08 0.0 0 0 89.3876 32.4248
  L 89.4626 32.5884
  A 1.08 1.08 0.0 0 0 90.8941 33.1208
  L 93.2400 32.0468
  A 1.08 1.08 0.0 0 0 93.7724 30.6152
  L 93.6974 30.4516"
/>
<path stroke="#706f6f" vector-effect="non-scaling-stroke" d="
  M 96.02 37.34
  L 95.61 35.79
  A 0.43 0.43 0.0 0 0 95.08 35.49
  L 94.96 35.52
  A 3.97 1.17 -15.0 0 0 91.43 37.68
  L 91.46 37.79
  A 3.97 1.17 -15.0 0 0 95.60 37.90
  L 95.72 37.86
  A 0.43 0.43 0.0 0 0 96.02 37.34"
/>
<path stroke="#171815" stroke-opacity="0.698" vector-effect="non-scaling-stroke" d="
  M 77.4106 42.6473
  A 1.18 0.74 26.0 0 0 76.6744 41.4649
  A 1.18 0.74 26.0 0 0 75.2894 41.6127
  A 1.18 0.74 26.0 0 0 76.0256 42.7951
  A 1.18 0.74 26.0 0 0 77.4106 42.6473"
/>
<path stroke="#706f6f" vector-effect="non-scaling-stroke" d="
  M 97.4827 42.0425
  A 0.64 0.64 0.0 0 0 96.7151 41.5629
  L 93.0710 42.4042
  A 0.64 0.64 0.0 0 0 92.5913 43.1718
  L 92.7173 43.7175
  A 0.64 0.64 0.0 0 0 93.4849 44.1971
  L 97.1290 43.3558
  A 0.64 0.64 0.0 0 0 97.6087 42.5882
  L 97.4827 42.0425"
/>
<path stroke="#706f6f" vector-effect="non-scaling-stroke" d="
  M 11.3974 43.9119
  A 0.64 0.64 0.0 0 0 10.8718 43.1750
  L 7.0055 42.5280
  A 0.64 0.64 0.0 0 0 6.2687 43.0536
  L 6.2026 43.4481
  A 0.64 0.64 0.0 0 0 6.7282 44.1850
  L 10.5945 44.8320
  A 0.64 0.64 0.0 0 0 11.3313 44.3064
  L 11.3974 43.9119"
/>
<path stroke="#171815" stroke-opacity="0.698" vector-effect="non-scaling-stroke" d="
  M 87.9133 44.2779
  A 0.63 0.56 -26.6 0 0 87.0993 44.0593
  A 0.63 0.56 -26.6 0 0 86.7867 44.8421
  A 0.63 0.56 -26.6 0 0 87.6007 45.0607
  A 0.63 0.56 -26.6 0 0 87.9133 44.2779"
/>
<path stroke="#706f6f" vector-effect="non-scaling-stroke" d="
  M 93.46 47.51
  L 93.22 49.03
  A 0.43 0.43 0.0 0 0 93.57 49.52
  L 93.63 49.53
  A 3.89 1.14 9.2 0 0 97.65 49.03
  L 97.67 48.91
  A 3.89 1.14 9.2 0 0 94.01 47.16
  L 93.95 47.15
  A 0.43 0.43 0.0 0 0 93.46 47.51"
/>
<path stroke="#706f6f" vector-effect="non-scaling-stroke" d="
  M 5.75 48.73
  L 5.75 50.29
  A 0.46 0.46 0.0 0 0 6.21 50.75
  L 6.39 50.75
  A 4.14 1.13 -0.1 0 0 10.53 49.62
  L 10.53 49.40
  A 4.14 1.13 -0.1 0 0 6.39 48.27
  L 6.21 48.27
  A 0.46 0.46 0.0 0 0 5.75 48.73"
/>
<path stroke="#706f6f" vector-effect="non-scaling-stroke" d="
  M 98.0125 54.7387
  A 2.56 1.34 6.7 0 0 95.6263 53.1092
  A 2.56 1.34 6.7 0 0 92.9275 54.1413
  A 2.56 1.34 6.7 0 0 95.3137 55.7708
  A 2.56 1.34 6.7 0 0 98.0125 54.7387"
/>
<path stroke="#171815" stroke-opacity="0.698" vector-effect="non-scaling-stroke" d="
  M 4.7541 55.3500
  A 0.79 0.54 89.7 0 0 5.2900 54.5572
  A 0.79 0.54 89.7 0 0 4.7459 53.7700
  A 0.79 0.54 89.7 0 0 4.2100 54.5628
  A 0.79 0.54 89.7 0 0 4.7541 55.3500"
/>
<path stroke="#706f6f" vector-effect="non-scaling-stroke" d="
  M 10.4461 55.0645
  A 0.87 0.87 0.0 0 0 9.5670 54.2036
  L 6.4272 54.2365
  A 0.87 0.87 0.0 0 0 5.5664 55.1156
  L 5.5739 55.8355
  A 0.87 0.87 0.0 0 0 6.4530 56.6964
  L 9.5928 56.6635
  A 0.87 0.87 0.0 0 0 10.4536 55.7844
  L 10.4461 55.0645"
/>
<path stroke="#171815" stroke-opacity="0.698" vector-effect="non-scaling-stroke" d="
  M 22.68 58.93
  A 0.73 0.73 0.0 0 0 21.95 58.20
  A 0.73 0.73 0.0 0 0 21.22 58.93
  A 0.73 0.73 0.0 0 0 21.95 59.66
  A 0.73 0.73 0.0 0 0 22.68 58.93"
/>
<path stroke="#706f6f" vector-effect="non-scaling-stroke" d="
  M 92.55 61.39
  L 95.95 61.99
  A 0.47 0.47 0.0 0 0 96.50 61.61
  L 96.58 61.17
  A 1.60 1.41 -80.0 0 0 95.47 59.35
  L 93.91 59.07
  A 1.60 1.41 -80.0 0 0 92.24 60.40
  L 92.17 60.85
  A 0.47 0.47 0.0 0 0 92.55 61.39"
/>
<path stroke="#706f6f" vector-effect="non-scaling-stroke" d="
  M 6.44 61.19
  Q 5.98 61.56 6.26 62.13
  Q 6.38 62.38 6.64 62.28
  L 10.78 60.69
  A 0.30 0.30 0.0 0 0 10.75 60.12
  Q 8.43 59.55 6.44 61.19"
/>
<path stroke="#706f6f" vector-effect="non-scaling-stroke" d="
  M 95.2270 66.7149
  A 0.96 0.96 0.0 0 0 94.5543 65.5356
  L 91.7957 64.7809
  A 0.96 0.96 0.0 0 0 90.6164 65.4536
  L 90.5530 65.6851
  A 0.96 0.96 0.0 0 0 91.2257 66.8644
  L 93.9843 67.6191
  A 0.96 0.96 0.0 0 0 95.1636 66.9464
  L 95.2270 66.7149"
/>
<path stroke="#8e8e8d" vector-effect="non-scaling-stroke" d="
  M 12.62 66.47
  L 12.31 65.47
  A 0.24 0.24 0.0 0 0 12.01 65.32
  L 11.86 65.36
  A 4.24 0.68 -17.3 0 0 8.01 67.27
  L 8.06 67.43
  A 4.24 0.68 -17.3 0 0 12.31 66.81
  L 12.46 66.77
  A 0.24 0.24 0.0 0 0 12.62 66.47"
/>
<path stroke="#171815" stroke-opacity="0.698" vector-effect="non-scaling-stroke" d="
  M 67.58 71.28
  Q 67.24 72.27 67.96 72.87
  A 0.72 0.72 0.0 0 0 68.93 71.81
  L 68.24 71.12
  Q 67.79 70.66 67.58 71.28"
/>
<path stroke="#706f6f" vector-effect="non-scaling-stroke" d="
  M 15.7636 73.4663
  A 0.66 0.66 0.0 0 0 14.8638 73.2184
  L 11.6466 75.0460
  A 0.66 0.66 0.0 0 0 11.3988 75.9459
  L 11.5964 76.2937
  A 0.66 0.66 0.0 0 0 12.4962 76.5416
  L 15.7134 74.7140
  A 0.66 0.66 0.0 0 0 15.9612 73.8141
  L 15.7636 73.4663"
/>
<path stroke="#706f6f" vector-effect="non-scaling-stroke" d="
  M 90.4418 76.9988
  A 2.67 0.89 32.1 0 0 88.6529 74.8261
  A 2.67 0.89 32.1 0 0 85.9182 74.1612
  A 2.67 0.89 32.1 0 0 87.7071 76.3339
  A 2.67 0.89 32.1 0 0 90.4418 76.9988"
/>
<path stroke="#706f6f" vector-effect="non-scaling-stroke" d="
  M 15.01 80.30
  Q 14.97 81.35 15.79 81.80
  A 0.77 0.77 0.0 0 0 16.70 81.68
  L 19.19 79.19
  A 0.62 0.61 -69.3 0 0 18.72 78.14
  Q 16.87 78.26 15.14 79.75"
/>
<path stroke="#171815" stroke-opacity="0.698" vector-effect="non-scaling-stroke" d="
  M 15.14 79.75
  Q 14.84 78.39 14.07 77.42
  A 0.61 0.61 0.0 0 0 12.99 77.83
  Q 13.08 79.58 15.01 80.30"
/>
<path stroke="#8e8d8d" stroke-opacity="0.698" vector-effect="non-scaling-stroke" d="
  M 15.14 79.75
  Q 15.44 80.09 15.01 80.30"
/>
<path stroke="#706f6f" vector-effect="non-scaling-stroke" d="
  M 87.0779 81.1630
  A 0.27 0.27 0.0 0 0 87.0254 80.7848
  L 83.6118 78.2031
  A 0.27 0.27 0.0 0 0 83.2336 78.2556
  L 82.5821 79.1170
  A 0.27 0.27 0.0 0 0 82.6346 79.4952
  L 86.0482 82.0769
  A 0.27 0.27 0.0 0 0 86.4264 82.0244
  L 87.0779 81.1630"
/>
<path stroke="#171815" stroke-opacity="0.698" vector-effect="non-scaling-stroke" d="
  M 14.1746 84.5011
  A 2.81 0.65 48.7 0 0 12.8083 81.9610
  A 2.81 0.65 48.7 0 0 10.4654 80.2789
  A 2.81 0.65 48.7 0 0 11.8317 82.8190
  A 2.81 0.65 48.7 0 0 14.1746 84.5011"
/>
<path stroke="#706f6f" vector-effect="non-scaling-stroke" d="
  M 82.2934 86.0569
  A 2.48 0.82 52.1 0 0 81.4170 83.5963
  A 2.48 0.82 52.1 0 0 79.2466 82.1431
  A 2.48 0.82 52.1 0 0 80.1230 84.6037
  A 2.48 0.82 52.1 0 0 82.2934 86.0569"
/>
<path stroke="#706f6f" vector-effect="non-scaling-stroke" d="
  M 18.99 85.26
  Q 19.88 86.80 21.09 85.83
  Q 22.32 84.84 22.94 83.85
  A 1.12 1.12 0.0 0 0 21.38 82.32
  L 19.57 83.51"
/>
<path stroke="#171815" stroke-opacity="0.698" vector-effect="non-scaling-stroke" d="
  M 50.47 82.75
  A 0.65 0.54 0.0 0 0 49.82 82.21
  A 0.65 0.54 0.0 0 0 49.17 82.75
  A 0.65 0.54 0.0 0 0 49.82 83.29
  A 0.65 0.54 0.0 0 0 50.47 82.75"
/>
<path stroke="#706f6f" vector-effect="non-scaling-stroke" d="
  M 75.94 85.35
  L 74.80 86.02
  A 0.29 0.29 0.0 0 0 74.70 86.42
  L 74.77 86.54
  A 4.29 0.81 59.4 0 0 77.65 89.82
  L 77.89 89.68
  A 4.29 0.81 59.4 0 0 76.41 85.58
  L 76.33 85.45
  A 0.29 0.29 0.0 0 0 75.94 85.35"
/>
<path stroke="#706f6f" vector-effect="non-scaling-stroke" d="
  M 25.46 86.16
  Q 23.90 87.46 23.40 89.45
  A 0.83 0.83 0.0 0 0 24.97 89.99
  L 26.37 86.84
  A 0.58 0.58 0.0 0 0 25.46 86.16"
/>
<path stroke="#706f6f" vector-effect="non-scaling-stroke" d="
  M 73.0063 92.9258
  A 2.45 1.32 64.2 0 0 73.1284 90.1455
  A 2.45 1.32 64.2 0 0 70.8737 88.5142
  A 2.45 1.32 64.2 0 0 70.7516 91.2945
  A 2.45 1.32 64.2 0 0 73.0063 92.9258"
/>
<path stroke="#706f6f" vector-effect="non-scaling-stroke" d="
  M 31.89 89.35
  L 30.87 88.76
  A 0.41 0.41 0.0 0 0 30.31 88.90
  L 30.24 89.02
  A 4.29 0.86 -59.5 0 0 28.80 93.15
  L 29.04 93.30
  A 4.29 0.86 -59.5 0 0 31.96 90.04
  L 32.03 89.92
  A 0.41 0.41 0.0 0 0 31.89 89.35"
/>
<path stroke="#706f6f" vector-effect="non-scaling-stroke" d="
  M 66.90 92.80
  Q 67.21 92.09 67.21 91.84
  A 1.08 1.06 -40.8 0 0 65.08 91.70
  Q 64.67 94.24 66.70 95.52
  A 1.15 1.14 82.6 0 0 68.08 93.71
  Q 67.86 93.50 67.27 93.44
  A 0.46 0.45 15.3 0 1 66.90 92.80"
/>
<path stroke="#706f6f" vector-effect="non-scaling-stroke" d="
  M 38.9995 97.3932
  A 2.55 1.28 110.2 0 0 41.0813 95.4420
  A 2.55 1.28 110.2 0 0 40.7605 92.6068
  A 2.55 1.28 110.2 0 0 38.6787 94.5580
  A 2.55 1.28 110.2 0 0 38.9995 97.3932"
/>
<path stroke="#706f6f" vector-effect="non-scaling-stroke" d="
  M 44.5978 98.5344
  A 2.44 0.76 98.3 0 0 45.7020 96.2297
  A 2.44 0.76 98.3 0 0 45.3022 93.7056
  A 2.44 0.76 98.3 0 0 44.1980 96.0103
  A 2.44 0.76 98.3 0 0 44.5978 98.5344"
/>
<path stroke="#8e8e8d" vector-effect="non-scaling-stroke" d="
  M 57.2289 94.3416
  A 0.60 0.60 0.0 0 0 56.5885 93.7849
  L 55.7106 93.8463
  A 0.60 0.60 0.0 0 0 55.1539 94.4867
  L 55.3911 97.8784
  A 0.60 0.60 0.0 0 0 56.0315 98.4351
  L 56.9094 98.3737
  A 0.60 0.60 0.0 0 0 57.4661 97.7333
  L 57.2289 94.3416"
/>
<path stroke="#8e8e8d" vector-effect="non-scaling-stroke" d="
  M 51.4346 94.9809
  A 0.68 0.68 0.0 0 0 50.7999 94.2584
  L 50.0615 94.2107
  A 0.68 0.68 0.0 0 0 49.3390 94.8454
  L 49.1454 97.8391
  A 0.68 0.68 0.0 0 0 49.7801 98.5616
  L 50.5185 98.6093
  A 0.68 0.68 0.0 0 0 51.2410 97.9746
  L 51.4346 94.9809"
/>
<path stroke="#e1e0e1" vector-effect="non-scaling-stroke" d="
  M 46.7325 26.3478
  A 1.05 0.60 -17.3 0 0 45.5516 26.0871
  A 1.05 0.60 -17.3 0 0 44.7275 26.9722
  A 1.05 0.60 -17.3 0 0 45.9084 27.2329
  A 1.05 0.60 -17.3 0 0 46.7325 26.3478"
/>
<path stroke="#e1e0e1" vector-effect="non-scaling-stroke" d="
  M 43.3428 32.9561
  A 0.88 0.48 124.4 0 0 44.2361 32.5012
  A 0.88 0.48 124.4 0 0 44.3372 31.5039
  A 0.88 0.48 124.4 0 0 43.4439 31.9588
  A 0.88 0.48 124.4 0 0 43.3428 32.9561"
/>
<path stroke="#8e8e8d" vector-effect="non-scaling-stroke" d="
  M 39.04 43.58
  Q 38.78 44.51 39.65 44.96
  A 1.13 1.13 0.0 0 0 41.12 44.56
  L 42.81 41.88
  Q 42.99 41.59 42.67 41.71
  L 39.80 42.76
  Q 39.21 42.97 39.04 43.58"
/>
<path stroke="#e1e0e1" vector-effect="non-scaling-stroke" d="
  M 56.6675 48.3082
  A 0.76 0.58 -23.4 0 0 55.7397 48.0777
  A 0.76 0.58 -23.4 0 0 55.2725 48.9118
  A 0.76 0.58 -23.4 0 0 56.2003 49.1423
  A 0.76 0.58 -23.4 0 0 56.6675 48.3082"
/>
<path stroke="#e1e0e1" vector-effect="non-scaling-stroke" d="
  M 65.3741 61.1905
  A 0.92 0.55 126.4 0 0 66.3627 60.7764
  A 0.92 0.55 126.4 0 0 66.4659 59.7095
  A 0.92 0.55 126.4 0 0 65.4773 60.1236
  A 0.92 0.55 126.4 0 0 65.3741 61.1905"
/>
<path stroke="#e1e0e1" vector-effect="non-scaling-stroke" d="
  M 42.22 62.52
  Q 41.97 63.20 42.25 63.37
  A 0.74 0.74 0.0 0 0 43.19 62.26
  Q 43.05 62.10 42.45 62.30
  Q 42.29 62.36 42.22 62.52"
/>
<path stroke="#8e8e8d" vector-effect="non-scaling-stroke" d="
  M 33.45 66.34
  A 0.49 0.48 86.7 0 0 34.09 65.62
  L 32.09 63.40
  Q 31.57 62.82 31.71 63.59
  Q 32.04 65.34 33.45 66.34"
/>
</g>
<path fill="#1d1d1b" d="
  M 32.76 98.34
  Q 28.57 97.00 24.39 95.60
  C 19.09 93.81 11.76 86.66 9.30 83.20
  C 5.47 77.81 3.25 69.06 2.17 61.58
  C 1.00 53.51 0.09 47.70 1.22 40.34
  A 1.82 1.82 0.0 0 0 1.14 39.46
  Q 0.43 37.45 1.27 35.23
  C 3.98 28.04 6.69 21.66 12.40 16.51
  C 20.00 9.66 28.64 5.86 38.33 2.79
  C 51.02 -1.23 64.27 0.28 75.87 6.47
  C 90.34 14.20 97.55 28.58 101.56 43.76
  C 103.18 49.90 102.20 60.91 100.05 66.85
  C 92.98 86.42 81.70 93.70 62.54 99.65
  C 52.63 102.73 42.44 101.43 32.76 98.34
  Z
  M 51.51 4.24
  L 51.47 8.22
  A 0.51 0.51 0.0 0 0 51.98 8.73
  L 52.21 8.73
  A 2.32 2.02 -89.5 0 0 54.25 6.43
  L 54.25 6.07
  A 2.32 2.02 -89.5 0 0 52.25 3.73
  L 52.02 3.73
  A 0.51 0.51 0.0 0 0 51.51 4.24
  Z
  M 47.1654 9.0828
  A 2.45 1.45 80.0 0 0 48.1680 6.4182
  A 2.45 1.45 80.0 0 0 46.3146 4.2572
  A 2.45 1.45 80.0 0 0 45.3120 6.9218
  A 2.45 1.45 80.0 0 0 47.1654 9.0828
  Z
  M 64.6619 6.2650
  A 0.83 0.83 0.0 0 0 64.0072 5.2908
  L 63.4184 5.1753
  A 0.83 0.83 0.0 0 0 62.4441 5.8299
  L 61.8781 8.7150
  A 0.83 0.83 0.0 0 0 62.5328 9.6892
  L 63.1216 9.8047
  A 0.83 0.83 0.0 0 0 64.0959 9.1501
  L 64.6619 6.2650
  Z
  M 40.47 9.52
  Q 40.36 9.72 40.40 9.80
  A 1.17 1.06 27.4 0 0 42.56 9.23
  L 41.41 5.63
  A 0.48 0.48 0.0 0 0 40.48 5.79
  L 40.58 9.07
  Q 40.58 9.31 40.47 9.52
  Z
  M 70.5203 8.6188
  A 0.99 0.99 0.0 0 0 70.0323 7.3065
  L 69.7959 7.1983
  A 0.99 0.99 0.0 0 0 68.4836 7.6863
  L 67.3597 10.1412
  A 0.99 0.99 0.0 0 0 67.8477 11.4535
  L 68.0841 11.5617
  A 0.99 0.99 0.0 0 0 69.3964 11.0737
  L 70.5203 8.6188
  Z
  M 36.07 12.05
  L 37.35 11.73
  A 0.28 0.28 0.0 0 0 37.55 11.38
  L 37.50 11.20
  A 4.03 0.86 75.6 0 0 35.67 7.51
  L 35.51 7.55
  A 4.03 0.86 75.6 0 0 35.68 11.67
  L 35.73 11.85
  A 0.28 0.28 0.0 0 0 36.07 12.05
  Z
  M 72.3866 13.6574
  A 2.51 0.62 122.9 0 0 74.2706 11.8868
  A 2.51 0.62 122.9 0 0 75.1134 9.4426
  A 2.51 0.62 122.9 0 0 73.2294 11.2132
  A 2.51 0.62 122.9 0 0 72.3866 13.6574
  Z
  M 32.3951 14.3613
  A 2.64 0.94 58.1 0 0 31.7980 11.6233
  A 2.64 0.94 58.1 0 0 29.6049 9.8787
  A 2.64 0.94 58.1 0 0 30.2020 12.6167
  A 2.64 0.94 58.1 0 0 32.3951 14.3613
  Z
  M 79.9420 13.9745
  A 0.80 0.80 0.0 0 0 79.7552 12.8587
  L 79.1528 12.4290
  A 0.80 0.80 0.0 0 0 78.0369 12.6157
  L 76.3180 15.0255
  A 0.80 0.80 0.0 0 0 76.5048 16.1413
  L 77.1072 16.5710
  A 0.80 0.80 0.0 0 0 78.2231 16.3843
  L 79.9420 13.9745
  Z
  M 24.50 14.72
  Q 24.08 14.47 23.58 14.49
  Q 22.69 14.52 22.99 15.36
  L 23.23 16.01
  A 0.94 0.72 -44.8 0 0 24.73 15.82
  Q 24.83 15.65 24.78 15.00
  L 26.75 17.25
  A 0.93 0.93 0.0 0 0 28.16 16.05
  L 25.99 13.42
  A 0.85 0.85 0.0 0 0 24.48 13.98
  L 24.50 14.72
  Z
  M 36.7770 16.0643
  A 0.92 0.64 15.4 0 0 36.0600 15.2030
  A 0.92 0.64 15.4 0 0 35.0030 15.5757
  A 0.92 0.64 15.4 0 0 35.7200 16.4370
  A 0.92 0.64 15.4 0 0 36.7770 16.0643
  Z
  M 23.8443 20.4571
  A 0.81 0.81 0.0 0 0 23.8143 19.3120
  L 21.4351 17.0542
  A 0.81 0.81 0.0 0 0 20.2900 17.0842
  L 19.8357 17.5629
  A 0.81 0.81 0.0 0 0 19.8657 18.7080
  L 22.2449 20.9658
  A 0.81 0.81 0.0 0 0 23.3900 20.9358
  L 23.8443 20.4571
  Z
  M 17.3092 19.4012
  A 1.41 0.55 132.4 0 0 18.6662 18.7309
  A 1.41 0.55 132.4 0 0 19.2108 17.3188
  A 1.41 0.55 132.4 0 0 17.8538 17.9891
  A 1.41 0.55 132.4 0 0 17.3092 19.4012
  Z
  M 80.98 59.55
  L 82.73 58.72
  Q 83.22 58.49 83.35 57.97
  C 84.11 55.09 83.27 52.86 80.04 52.43
  Q 72.06 51.37 65.91 56.57
  A 1.22 1.22 0.0 0 1 63.98 56.05
  Q 60.93 47.54 53.74 42.14
  Q 53.32 41.82 53.63 41.38
  C 55.72 38.51 60.47 33.32 64.36 34.42
  A 1.62 1.62 0.0 0 0 65.51 31.41
  Q 63.25 30.30 61.03 31.04
  A 0.98 0.97 54.8 0 1 60.13 30.88
  Q 58.36 29.47 58.51 27.15
  Q 58.54 26.60 58.16 26.19
  L 55.46 23.28
  Q 55.00 22.77 54.43 23.16
  L 51.30 25.32
  A 0.34 0.33 77.3 0 1 50.78 24.99
  L 51.05 23.35
  Q 51.14 22.77 50.68 22.42
  L 46.83 19.50
  A 1.47 1.46 -48.2 0 0 44.92 19.61
  Q 37.27 26.94 37.60 37.68
  Q 37.61 38.17 37.32 38.56
  L 33.78 43.31
  Q 33.52 43.66 33.09 43.63
  L 27.06 43.30
  A 0.50 0.50 0.0 0 0 26.74 44.21
  L 31.19 47.41
  Q 31.56 47.67 31.38 48.09
  Q 28.60 54.57 29.35 61.65
  A 0.69 0.66 -43.6 0 1 29.34 61.85
  L 28.43 65.63
  Q 28.32 66.11 28.75 66.32
  C 32.44 68.16 40.15 67.65 43.99 67.43
  Q 44.47 67.41 44.81 67.07
  L 45.09 66.79
  Q 45.54 66.33 45.89 66.88
  C 46.17 67.32 46.62 67.75 47.19 67.76
  Q 58.39 68.03 69.53 68.72
  Q 70.02 68.75 70.40 68.42
  Q 75.03 64.42 81.05 64.62
  A 1.98 1.97 -30.5 0 0 82.02 60.89
  L 80.96 60.35
  Q 80.15 59.93 80.98 59.55
  Z
  M 83.63 22.06
  A 0.42 0.42 0.0 0 0 83.51 22.70
  L 84.37 23.75
  A 0.42 0.42 0.0 0 0 85.02 23.75
  L 87.45 20.86
  A 0.42 0.42 0.0 0 0 86.92 20.22
  L 83.63 22.06
  Z
  M 73.27 21.74
  Q 72.90 21.01 72.32 21.34
  Q 71.72 21.68 72.19 22.36
  A 0.33 0.32 57.9 0 0 72.62 22.46
  L 73.15 22.15
  Q 73.40 22.00 73.27 21.74
  Z
  M 19.7819 24.9275
  A 2.55 1.38 36.8 0 0 18.5667 22.2950
  A 2.55 1.38 36.8 0 0 15.6981 21.8725
  A 2.55 1.38 36.8 0 0 16.9133 24.5050
  A 2.55 1.38 36.8 0 0 19.7819 24.9275
  Z
  M 33.29 24.90
  Q 33.43 24.63 33.22 24.40
  Q 32.87 24.01 32.32 24.22
  A 0.74 0.58 -58.1 0 0 32.47 25.54
  Q 33.07 25.34 33.29 24.90
  Z
  M 90.86 24.50
  L 86.90 27.74
  A 0.10 0.10 0.0 0 0 86.89 27.88
  L 86.92 27.92
  A 2.29 1.27 -39.3 0 0 89.49 27.45
  L 90.07 26.99
  A 2.29 1.27 -39.3 0 0 91.03 24.55
  L 91.00 24.51
  A 0.10 0.10 0.0 0 0 90.86 24.50
  Z
  M 16.5617 29.7094
  A 2.41 1.32 29.3 0 0 15.1060 27.3789
  A 2.41 1.32 29.3 0 0 12.3583 27.3506
  A 2.41 1.32 29.3 0 0 13.8140 29.6811
  A 2.41 1.32 29.3 0 0 16.5617 29.7094
  Z
  M 9.63 32.26
  L 11.70 35.08
  A 1.00 1.00 0.0 0 0 12.71 35.47
  Q 13.71 35.27 14.09 34.30
  Q 14.30 33.79 13.81 33.53
  L 10.25 31.68
  Q 11.29 30.63 11.59 29.25
  A 0.60 0.60 0.0 0 0 10.54 28.73
  L 8.16 31.56
  A 0.58 0.57 22.5 0 0 8.55 32.50
  Q 9.10 32.55 9.63 32.26
  Z
  M 20.9325 30.8611
  A 0.79 0.59 124.5 0 0 21.8662 30.5442
  A 0.79 0.59 124.5 0 0 21.8275 29.5589
  A 0.79 0.59 124.5 0 0 20.8938 29.8758
  A 0.79 0.59 124.5 0 0 20.9325 30.8611
  Z
  M 93.6974 30.4516
  A 1.08 1.08 0.0 0 0 92.2659 29.9192
  L 89.9200 30.9932
  A 1.08 1.08 0.0 0 0 89.3876 32.4248
  L 89.4626 32.5884
  A 1.08 1.08 0.0 0 0 90.8941 33.1208
  L 93.2400 32.0468
  A 1.08 1.08 0.0 0 0 93.7724 30.6152
  L 93.6974 30.4516
  Z
  M 96.02 37.34
  L 95.61 35.79
  A 0.43 0.43 0.0 0 0 95.08 35.49
  L 94.96 35.52
  A 3.97 1.17 -15.0 0 0 91.43 37.68
  L 91.46 37.79
  A 3.97 1.17 -15.0 0 0 95.60 37.90
  L 95.72 37.86
  A 0.43 0.43 0.0 0 0 96.02 37.34
  Z
  M 87.06 38.19
  Q 86.83 37.89 86.60 38.10
  Q 85.76 38.84 86.04 39.78
  Q 86.31 40.69 86.92 39.95
  L 87.62 39.10
  Q 87.92 38.72 87.55 38.41
  Q 87.33 38.23 87.06 38.19
  Z
  M 30.52 39.44
  Q 29.90 39.97 29.57 40.81
  A 0.57 0.57 0.0 0 0 30.60 41.30
  Q 30.97 40.62 31.13 39.80
  A 0.38 0.37 75.4 0 0 30.52 39.44
  Z
  M 77.4106 42.6473
  A 1.18 0.74 26.0 0 0 76.6744 41.4649
  A 1.18 0.74 26.0 0 0 75.2894 41.6127
  A 1.18 0.74 26.0 0 0 76.0256 42.7951
  A 1.18 0.74 26.0 0 0 77.4106 42.6473
  Z
  M 97.4827 42.0425
  A 0.64 0.64 0.0 0 0 96.7151 41.5629
  L 93.0710 42.4042
  A 0.64 0.64 0.0 0 0 92.5913 43.1718
  L 92.7173 43.7175
  A 0.64 0.64 0.0 0 0 93.4849 44.1971
  L 97.1290 43.3558
  A 0.64 0.64 0.0 0 0 97.6087 42.5882
  L 97.4827 42.0425
  Z
  M 11.3974 43.9119
  A 0.64 0.64 0.0 0 0 10.8718 43.1750
  L 7.0055 42.5280
  A 0.64 0.64 0.0 0 0 6.2687 43.0536
  L 6.2026 43.4481
  A 0.64 0.64 0.0 0 0 6.7282 44.1850
  L 10.5945 44.8320
  A 0.64 0.64 0.0 0 0 11.3313 44.3064
  L 11.3974 43.9119
  Z
  M 87.9133 44.2779
  A 0.63 0.56 -26.6 0 0 87.0993 44.0593
  A 0.63 0.56 -26.6 0 0 86.7867 44.8421
  A 0.63 0.56 -26.6 0 0 87.6007 45.0607
  A 0.63 0.56 -26.6 0 0 87.9133 44.2779
  Z
  M 93.46 47.51
  L 93.22 49.03
  A 0.43 0.43 0.0 0 0 93.57 49.52
  L 93.63 49.53
  A 3.89 1.14 9.2 0 0 97.65 49.03
  L 97.67 48.91
  A 3.89 1.14 9.2 0 0 94.01 47.16
  L 93.95 47.15
  A 0.43 0.43 0.0 0 0 93.46 47.51
  Z
  M 5.75 48.73
  L 5.75 50.29
  A 0.46 0.46 0.0 0 0 6.21 50.75
  L 6.39 50.75
  A 4.14 1.13 -0.1 0 0 10.53 49.62
  L 10.53 49.40
  A 4.14 1.13 -0.1 0 0 6.39 48.27
  L 6.21 48.27
  A 0.46 0.46 0.0 0 0 5.75 48.73
  Z
  M 98.0125 54.7387
  A 2.56 1.34 6.7 0 0 95.6263 53.1092
  A 2.56 1.34 6.7 0 0 92.9275 54.1413
  A 2.56 1.34 6.7 0 0 95.3137 55.7708
  A 2.56 1.34 6.7 0 0 98.0125 54.7387
  Z
  M 4.7541 55.3500
  A 0.79 0.54 89.7 0 0 5.2900 54.5572
  A 0.79 0.54 89.7 0 0 4.7459 53.7700
  A 0.79 0.54 89.7 0 0 4.2100 54.5628
  A 0.79 0.54 89.7 0 0 4.7541 55.3500
  Z
  M 10.4461 55.0645
  A 0.87 0.87 0.0 0 0 9.5670 54.2036
  L 6.4272 54.2365
  A 0.87 0.87 0.0 0 0 5.5664 55.1156
  L 5.5739 55.8355
  A 0.87 0.87 0.0 0 0 6.4530 56.6964
  L 9.5928 56.6635
  A 0.87 0.87 0.0 0 0 10.4536 55.7844
  L 10.4461 55.0645
  Z
  M 22.68 58.93
  A 0.73 0.73 0.0 0 0 21.95 58.20
  A 0.73 0.73 0.0 0 0 21.22 58.93
  A 0.73 0.73 0.0 0 0 21.95 59.66
  A 0.73 0.73 0.0 0 0 22.68 58.93
  Z
  M 92.55 61.39
  L 95.95 61.99
  A 0.47 0.47 0.0 0 0 96.50 61.61
  L 96.58 61.17
  A 1.60 1.41 -80.0 0 0 95.47 59.35
  L 93.91 59.07
  A 1.60 1.41 -80.0 0 0 92.24 60.40
  L 92.17 60.85
  A 0.47 0.47 0.0 0 0 92.55 61.39
  Z
  M 6.44 61.19
  Q 5.98 61.56 6.26 62.13
  Q 6.38 62.38 6.64 62.28
  L 10.78 60.69
  A 0.30 0.30 0.0 0 0 10.75 60.12
  Q 8.43 59.55 6.44 61.19
  Z
  M 95.2270 66.7149
  A 0.96 0.96 0.0 0 0 94.5543 65.5356
  L 91.7957 64.7809
  A 0.96 0.96 0.0 0 0 90.6164 65.4536
  L 90.5530 65.6851
  A 0.96 0.96 0.0 0 0 91.2257 66.8644
  L 93.9843 67.6191
  A 0.96 0.96 0.0 0 0 95.1636 66.9464
  L 95.2270 66.7149
  Z
  M 12.62 66.47
  L 12.31 65.47
  A 0.24 0.24 0.0 0 0 12.01 65.32
  L 11.86 65.36
  A 4.24 0.68 -17.3 0 0 8.01 67.27
  L 8.06 67.43
  A 4.24 0.68 -17.3 0 0 12.31 66.81
  L 12.46 66.77
  A 0.24 0.24 0.0 0 0 12.62 66.47
  Z
  M 67.58 71.28
  Q 67.24 72.27 67.96 72.87
  A 0.72 0.72 0.0 0 0 68.93 71.81
  L 68.24 71.12
  Q 67.79 70.66 67.58 71.28
  Z
  M 15.7636 73.4663
  A 0.66 0.66 0.0 0 0 14.8638 73.2184
  L 11.6466 75.0460
  A 0.66 0.66 0.0 0 0 11.3988 75.9459
  L 11.5964 76.2937
  A 0.66 0.66 0.0 0 0 12.4962 76.5416
  L 15.7134 74.7140
  A 0.66 0.66 0.0 0 0 15.9612 73.8141
  L 15.7636 73.4663
  Z
  M 90.4418 76.9988
  A 2.67 0.89 32.1 0 0 88.6529 74.8261
  A 2.67 0.89 32.1 0 0 85.9182 74.1612
  A 2.67 0.89 32.1 0 0 87.7071 76.3339
  A 2.67 0.89 32.1 0 0 90.4418 76.9988
  Z
  M 15.01 80.30
  Q 14.97 81.35 15.79 81.80
  A 0.77 0.77 0.0 0 0 16.70 81.68
  L 19.19 79.19
  A 0.62 0.61 -69.3 0 0 18.72 78.14
  Q 16.87 78.26 15.14 79.75
  Q 14.84 78.39 14.07 77.42
  A 0.61 0.61 0.0 0 0 12.99 77.83
  Q 13.08 79.58 15.01 80.30
  Z
  M 87.0779 81.1630
  A 0.27 0.27 0.0 0 0 87.0254 80.7848
  L 83.6118 78.2031
  A 0.27 0.27 0.0 0 0 83.2336 78.2556
  L 82.5821 79.1170
  A 0.27 0.27 0.0 0 0 82.6346 79.4952
  L 86.0482 82.0769
  A 0.27 0.27 0.0 0 0 86.4264 82.0244
  L 87.0779 81.1630
  Z
  M 14.1746 84.5011
  A 2.81 0.65 48.7 0 0 12.8083 81.9610
  A 2.81 0.65 48.7 0 0 10.4654 80.2789
  A 2.81 0.65 48.7 0 0 11.8317 82.8190
  A 2.81 0.65 48.7 0 0 14.1746 84.5011
  Z
  M 34.42 81.24
  A 0.55 0.54 -23.4 0 0 34.05 82.17
  L 35.09 83.22
  A 0.70 0.70 0.0 0 0 36.26 82.53
  Q 35.87 81.19 34.42 81.24
  Z
  M 82.2934 86.0569
  A 2.48 0.82 52.1 0 0 81.4170 83.5963
  A 2.48 0.82 52.1 0 0 79.2466 82.1431
  A 2.48 0.82 52.1 0 0 80.1230 84.6037
  A 2.48 0.82 52.1 0 0 82.2934 86.0569
  Z
  M 19.57 83.51
  Q 19.52 83.05 19.15 82.79
  A 0.68 0.68 0.0 0 0 18.12 83.07
  Q 17.63 84.26 18.99 85.26
  Q 19.88 86.80 21.09 85.83
  Q 22.32 84.84 22.94 83.85
  A 1.12 1.12 0.0 0 0 21.38 82.32
  L 19.57 83.51
  Z
  M 50.47 82.75
  A 0.65 0.54 0.0 0 0 49.82 82.21
  A 0.65 0.54 0.0 0 0 49.17 82.75
  A 0.65 0.54 0.0 0 0 49.82 83.29
  A 0.65 0.54 0.0 0 0 50.47 82.75
  Z
  M 61.7144 84.4306
  A 1.23 1.12 -11.7 0 0 60.2829 83.5833
  A 1.23 1.12 -11.7 0 0 59.3056 84.9294
  A 1.23 1.12 -11.7 0 0 60.7371 85.7767
  A 1.23 1.12 -11.7 0 0 61.7144 84.4306
  Z
  M 75.94 85.35
  L 74.80 86.02
  A 0.29 0.29 0.0 0 0 74.70 86.42
  L 74.77 86.54
  A 4.29 0.81 59.4 0 0 77.65 89.82
  L 77.89 89.68
  A 4.29 0.81 59.4 0 0 76.41 85.58
  L 76.33 85.45
  A 0.29 0.29 0.0 0 0 75.94 85.35
  Z
  M 25.46 86.16
  Q 23.90 87.46 23.40 89.45
  A 0.83 0.83 0.0 0 0 24.97 89.99
  L 26.37 86.84
  A 0.58 0.58 0.0 0 0 25.46 86.16
  Z
  M 73.0063 92.9258
  A 2.45 1.32 64.2 0 0 73.1284 90.1455
  A 2.45 1.32 64.2 0 0 70.8737 88.5142
  A 2.45 1.32 64.2 0 0 70.7516 91.2945
  A 2.45 1.32 64.2 0 0 73.0063 92.9258
  Z
  M 31.89 89.35
  L 30.87 88.76
  A 0.41 0.41 0.0 0 0 30.31 88.90
  L 30.24 89.02
  A 4.29 0.86 -59.5 0 0 28.80 93.15
  L 29.04 93.30
  A 4.29 0.86 -59.5 0 0 31.96 90.04
  L 32.03 89.92
  A 0.41 0.41 0.0 0 0 31.89 89.35
  Z
  M 66.90 92.80
  Q 67.21 92.09 67.21 91.84
  A 1.08 1.06 -40.8 0 0 65.08 91.70
  Q 64.67 94.24 66.70 95.52
  A 1.15 1.14 82.6 0 0 68.08 93.71
  Q 67.86 93.50 67.27 93.44
  A 0.46 0.45 15.3 0 1 66.90 92.80
  Z
  M 38.9995 97.3932
  A 2.55 1.28 110.2 0 0 41.0813 95.4420
  A 2.55 1.28 110.2 0 0 40.7605 92.6068
  A 2.55 1.28 110.2 0 0 38.6787 94.5580
  A 2.55 1.28 110.2 0 0 38.9995 97.3932
  Z
  M 44.5978 98.5344
  A 2.44 0.76 98.3 0 0 45.7020 96.2297
  A 2.44 0.76 98.3 0 0 45.3022 93.7056
  A 2.44 0.76 98.3 0 0 44.1980 96.0103
  A 2.44 0.76 98.3 0 0 44.5978 98.5344
  Z
  M 57.2289 94.3416
  A 0.60 0.60 0.0 0 0 56.5885 93.7849
  L 55.7106 93.8463
  A 0.60 0.60 0.0 0 0 55.1539 94.4867
  L 55.3911 97.8784
  A 0.60 0.60 0.0 0 0 56.0315 98.4351
  L 56.9094 98.3737
  A 0.60 0.60 0.0 0 0 57.4661 97.7333
  L 57.2289 94.3416
  Z
  M 51.4346 94.9809
  A 0.68 0.68 0.0 0 0 50.7999 94.2584
  L 50.0615 94.2107
  A 0.68 0.68 0.0 0 0 49.3390 94.8454
  L 49.1454 97.8391
  A 0.68 0.68 0.0 0 0 49.7801 98.5616
  L 50.5185 98.6093
  A 0.68 0.68 0.0 0 0 51.2410 97.9746
  L 51.4346 94.9809
  Z"
/>
<g>
<path fill="#c2c1c2" d="
  M 51.51 4.24
  A 0.51 0.51 0.0 0 1 52.02 3.73
  L 52.25 3.73
  A 2.32 2.02 -89.5 0 1 54.25 6.07
  L 54.25 6.43
  A 2.32 2.02 -89.5 0 1 52.21 8.73
  L 51.98 8.73
  A 0.51 0.51 0.0 0 1 51.47 8.22
  L 51.51 4.24
  Z"
/>
<ellipse fill="#c2c1c2" cx="0.00" cy="0.00" transform="translate(46.74,6.67) rotate(80.0)" rx="2.45" ry="1.45"/>
<rect fill="#c2c1c2" x="-1.13" y="-2.30" transform="translate(63.27,7.49) rotate(11.1)" width="2.26" height="4.60" rx="0.83"/>
<path fill="#c2c1c2" d="
  M 40.58 9.07
  L 40.48 5.79
  A 0.48 0.48 0.0 0 1 41.41 5.63
  L 42.56 9.23
  A 1.17 1.06 27.4 0 1 40.40 9.80
  Q 40.36 9.72 40.47 9.52
  Q 40.58 9.31 40.58 9.07
  Z"
/>
<rect fill="#c2c1c2" x="-1.12" y="-2.34" transform="translate(68.94,9.38) rotate(24.6)" width="2.24" height="4.68" rx="0.99"/>
<path fill="#c2c1c2" d="
  M 36.07 12.05
  A 0.28 0.28 0.0 0 1 35.73 11.85
  L 35.68 11.67
  A 4.03 0.86 75.6 0 1 35.51 7.55
  L 35.67 7.51
  A 4.03 0.86 75.6 0 1 37.50 11.20
  L 37.55 11.38
  A 0.28 0.28 0.0 0 1 37.35 11.73
  L 36.07 12.05
  Z"
/>
<ellipse fill="#c2c1c2" cx="0.00" cy="0.00" transform="translate(73.75,11.55) rotate(122.9)" rx="2.51" ry="0.62"/>
<ellipse fill="#c2c1c2" cx="0.00" cy="0.00" transform="translate(31.00,12.12) rotate(58.1)" rx="2.64" ry="0.94"/>
<rect fill="#c2c1c2" x="-1.17" y="-2.28" transform="translate(78.13,14.50) rotate(35.5)" width="2.34" height="4.56" rx="0.80"/>
<path fill="#c2c1c2" d="
  M 24.78 15.00
  Q 24.74 14.76 24.50 14.72
  L 24.48 13.98
  A 0.85 0.85 0.0 0 1 25.99 13.42
  L 28.16 16.05
  A 0.93 0.93 0.0 0 1 26.75 17.25
  L 24.78 15.00
  Z"
/>
<ellipse fill="#080a05" fill-opacity="0.392" cx="0.00" cy="0.00" transform="translate(35.89,15.82) rotate(15.4)" rx="0.92" ry="0.64"/>
<rect fill="#c2c1c2" x="-2.45" y="-1.14" transform="translate(21.84,19.01) rotate(43.5)" width="4.90" height="2.28" rx="0.81"/>
<ellipse fill="#080a05" fill-opacity="0.392" cx="0.00" cy="0.00" transform="translate(18.26,18.36) rotate(132.4)" rx="1.41" ry="0.55"/>
<path fill="#ffffff" d="
  M 80.96 60.35
  L 82.02 60.89
  A 1.98 1.97 -30.5 0 1 81.05 64.62
  Q 75.03 64.42 70.40 68.42
  Q 70.02 68.75 69.53 68.72
  Q 58.39 68.03 47.19 67.76
  C 46.62 67.75 46.17 67.32 45.89 66.88
  Q 45.54 66.33 45.09 66.79
  L 44.81 67.07
  Q 44.47 67.41 43.99 67.43
  C 40.15 67.65 32.44 68.16 28.75 66.32
  Q 28.32 66.11 28.43 65.63
  L 29.34 61.85
  A 0.69 0.66 -43.6 0 0 29.35 61.65
  Q 28.60 54.57 31.38 48.09
  Q 31.56 47.67 31.19 47.41
  L 26.74 44.21
  A 0.50 0.50 0.0 0 1 27.06 43.30
  L 33.09 43.63
  Q 33.52 43.66 33.78 43.31
  L 37.32 38.56
  Q 37.61 38.17 37.60 37.68
  Q 37.27 26.94 44.92 19.61
  A 1.47 1.46 -48.2 0 1 46.83 19.50
  L 50.68 22.42
  Q 51.14 22.77 51.05 23.35
  L 50.78 24.99
  A 0.34 0.33 77.3 0 0 51.30 25.32
  L 54.43 23.16
  Q 55.00 22.77 55.46 23.28
  L 58.16 26.19
  Q 58.54 26.60 58.51 27.15
  Q 58.36 29.47 60.13 30.88
  A 0.98 0.97 54.8 0 0 61.03 31.04
  Q 63.25 30.30 65.51 31.41
  A 1.62 1.62 0.0 0 1 64.36 34.42
  C 60.47 33.32 55.72 38.51 53.63 41.38
  Q 53.32 41.82 53.74 42.14
  Q 60.93 47.54 63.98 56.05
  A 1.22 1.22 0.0 0 0 65.91 56.57
  Q 72.06 51.37 80.04 52.43
  C 83.27 52.86 84.11 55.09 83.35 57.97
  Q 83.22 58.49 82.73 58.72
  L 80.98 59.55
  Q 80.15 59.93 80.96 60.35
  Z
  M 46.7325 26.3478
  A 1.05 0.60 -17.3 0 0 45.5516 26.0871
  A 1.05 0.60 -17.3 0 0 44.7275 26.9722
  A 1.05 0.60 -17.3 0 0 45.9084 27.2329
  A 1.05 0.60 -17.3 0 0 46.7325 26.3478
  Z
  M 43.3428 32.9561
  A 0.88 0.48 124.4 0 0 44.2361 32.5012
  A 0.88 0.48 124.4 0 0 44.3372 31.5039
  A 0.88 0.48 124.4 0 0 43.4439 31.9588
  A 0.88 0.48 124.4 0 0 43.3428 32.9561
  Z
  M 39.04 43.58
  Q 38.78 44.51 39.65 44.96
  A 1.13 1.13 0.0 0 0 41.12 44.56
  L 42.81 41.88
  Q 42.99 41.59 42.67 41.71
  L 39.80 42.76
  Q 39.21 42.97 39.04 43.58
  Z
  M 56.6675 48.3082
  A 0.76 0.58 -23.4 0 0 55.7397 48.0777
  A 0.76 0.58 -23.4 0 0 55.2725 48.9118
  A 0.76 0.58 -23.4 0 0 56.2003 49.1423
  A 0.76 0.58 -23.4 0 0 56.6675 48.3082
  Z
  M 65.3741 61.1905
  A 0.92 0.55 126.4 0 0 66.3627 60.7764
  A 0.92 0.55 126.4 0 0 66.4659 59.7095
  A 0.92 0.55 126.4 0 0 65.4773 60.1236
  A 0.92 0.55 126.4 0 0 65.3741 61.1905
  Z
  M 42.22 62.52
  Q 41.97 63.20 42.25 63.37
  A 0.74 0.74 0.0 0 0 43.19 62.26
  Q 43.05 62.10 42.45 62.30
  Q 42.29 62.36 42.22 62.52
  Z
  M 33.45 66.34
  A 0.49 0.48 86.7 0 0 34.09 65.62
  L 32.09 63.40
  Q 31.57 62.82 31.71 63.59
  Q 32.04 65.34 33.45 66.34
  Z"
/>
<path fill="#c2c1c2" d="
  M 83.63 22.06
  L 86.92 20.22
  A 0.42 0.42 0.0 0 1 87.45 20.86
  L 85.02 23.75
  A 0.42 0.42 0.0 0 1 84.37 23.75
  L 83.51 22.70
  A 0.42 0.42 0.0 0 1 83.63 22.06
  Z"
/>
<path fill="#080a05" fill-opacity="0.392" d="
  M 73.27 21.74
  Q 73.40 22.00 73.15 22.15
  L 72.62 22.46
  A 0.33 0.32 57.9 0 1 72.19 22.36
  Q 71.72 21.68 72.32 21.34
  Q 72.90 21.01 73.27 21.74
  Z"
/>
<ellipse fill="#c2c1c2" cx="0.00" cy="0.00" transform="translate(17.74,23.40) rotate(36.8)" rx="2.55" ry="1.38"/>
<path fill="#080a05" fill-opacity="0.392" d="
  M 33.29 24.90
  Q 33.07 25.34 32.47 25.54
  A 0.74 0.58 -58.1 0 1 32.32 24.22
  Q 32.87 24.01 33.22 24.40
  Q 33.43 24.63 33.29 24.90
  Z"
/>
<path fill="#c2c1c2" d="
  M 90.86 24.50
  A 0.10 0.10 0.0 0 1 91.00 24.51
  L 91.03 24.55
  A 2.29 1.27 -39.3 0 1 90.07 26.99
  L 89.49 27.45
  A 2.29 1.27 -39.3 0 1 86.92 27.92
  L 86.89 27.88
  A 0.10 0.10 0.0 0 1 86.90 27.74
  L 90.86 24.50
  Z"
/>
<ellipse fill="#c2c1c2" cx="0.00" cy="0.00" transform="translate(14.46,28.53) rotate(29.3)" rx="2.41" ry="1.32"/>
<ellipse fill="#080a05" fill-opacity="0.392" cx="0.00" cy="0.00" transform="translate(21.38,30.21) rotate(124.5)" rx="0.79" ry="0.59"/>
<rect fill="#c2c1c2" x="-2.37" y="-1.17" transform="translate(91.58,31.52) rotate(-24.6)" width="4.74" height="2.34" rx="1.08"/>
<path fill="#c2c1c2" d="
  M 10.25 31.68
  L 13.81 33.53
  Q 14.30 33.79 14.09 34.30
  Q 13.71 35.27 12.71 35.47
  A 1.00 1.00 0.0 0 1 11.70 35.08
  L 9.63 32.26
  L 10.25 31.68
  Z"
/>
<path fill="#c2c1c2" d="
  M 96.02 37.34
  A 0.43 0.43 0.0 0 1 95.72 37.86
  L 95.60 37.90
  A 3.97 1.17 -15.0 0 1 91.46 37.79
  L 91.43 37.68
  A 3.97 1.17 -15.0 0 1 94.96 35.52
  L 95.08 35.49
  A 0.43 0.43 0.0 0 1 95.61 35.79
  L 96.02 37.34
  Z"
/>
<ellipse fill="#080a05" fill-opacity="0.392" cx="0.00" cy="0.00" transform="translate(76.35,42.13) rotate(26.0)" rx="1.18" ry="0.74"/>
<rect fill="#c2c1c2" x="-2.51" y="-0.92" transform="translate(95.10,42.88) rotate(-13.0)" width="5.02" height="1.84" rx="0.64"/>
<rect fill="#c2c1c2" x="-2.60" y="-0.84" transform="translate(8.80,43.68) rotate(9.5)" width="5.20" height="1.68" rx="0.64"/>
<ellipse fill="#080a05" fill-opacity="0.392" cx="0.00" cy="0.00" transform="translate(87.35,44.56) rotate(-26.6)" rx="0.63" ry="0.56"/>
<path fill="#c2c1c2" d="
  M 93.46 47.51
  A 0.43 0.43 0.0 0 1 93.95 47.15
  L 94.01 47.16
  A 3.89 1.14 9.2 0 1 97.67 48.91
  L 97.65 49.03
  A 3.89 1.14 9.2 0 1 93.63 49.53
  L 93.57 49.52
  A 0.43 0.43 0.0 0 1 93.22 49.03
  L 93.46 47.51
  Z"
/>
<path fill="#c2c1c2" d="
  M 5.75 48.73
  A 0.46 0.46 0.0 0 1 6.21 48.27
  L 6.39 48.27
  A 4.14 1.13 -0.1 0 1 10.53 49.40
  L 10.53 49.62
  A 4.14 1.13 -0.1 0 1 6.39 50.75
  L 6.21 50.75
  A 0.46 0.46 0.0 0 1 5.75 50.29
  L 5.75 48.73
  Z"
/>
<ellipse fill="#c2c1c2" cx="0.00" cy="0.00" transform="translate(95.47,54.44) rotate(6.7)" rx="2.56" ry="1.34"/>
<ellipse fill="#080a05" fill-opacity="0.392" cx="0.00" cy="0.00" transform="translate(4.75,54.56) rotate(89.7)" rx="0.79" ry="0.54"/>
<rect fill="#c2c1c2" x="-2.44" y="-1.23" transform="translate(8.01,55.45) rotate(-0.6)" width="4.88" height="2.46" rx="0.87"/>
<circle fill="#080a05" fill-opacity="0.392" cx="21.95" cy="58.93" r="0.73"/>
<path fill="#c2c1c2" d="
  M 92.55 61.39
  A 0.47 0.47 0.0 0 1 92.17 60.85
  L 92.24 60.40
  A 1.60 1.41 -80.0 0 1 93.91 59.07
  L 95.47 59.35
  A 1.60 1.41 -80.0 0 1 96.58 61.17
  L 96.50 61.61
  A 0.47 0.47 0.0 0 1 95.95 61.99
  L 92.55 61.39
  Z"
/>
<path fill="#c2c1c2" d="
  M 6.44 61.19
  Q 8.43 59.55 10.75 60.12
  A 0.30 0.30 0.0 0 1 10.78 60.69
  L 6.64 62.28
  Q 6.38 62.38 6.26 62.13
  Q 5.98 61.56 6.44 61.19
  Z"
/>
<rect fill="#c2c1c2" x="-2.39" y="-1.08" transform="translate(92.89,66.20) rotate(15.3)" width="4.78" height="2.16" rx="0.96"/>
<path fill="#ffffff" d="
  M 12.62 66.47
  A 0.24 0.24 0.0 0 1 12.46 66.77
  L 12.31 66.81
  A 4.24 0.68 -17.3 0 1 8.06 67.43
  L 8.01 67.27
  A 4.24 0.68 -17.3 0 1 11.86 65.36
  L 12.01 65.32
  A 0.24 0.24 0.0 0 1 12.31 65.47
  L 12.62 66.47
  Z"
/>
<path fill="#080a05" fill-opacity="0.392" d="
  M 68.24 71.12
  L 68.93 71.81
  A 0.72 0.72 0.0 0 1 67.96 72.87
  Q 67.24 72.27 67.58 71.28
  Q 67.79 70.66 68.24 71.12
  Z"
/>
<rect fill="#c2c1c2" x="-2.51" y="-0.86" transform="translate(13.68,74.88) rotate(-29.6)" width="5.02" height="1.72" rx="0.66"/>
<ellipse fill="#c2c1c2" cx="0.00" cy="0.00" transform="translate(88.18,75.58) rotate(32.1)" rx="2.67" ry="0.89"/>
<path fill="#080a05" fill-opacity="0.392" d="
  M 15.14 79.75
  Q 15.44 80.09 15.01 80.30
  Q 13.08 79.58 12.99 77.83
  A 0.61 0.61 0.0 0 1 14.07 77.42
  Q 14.84 78.39 15.14 79.75
  Z"
/>
<path fill="#c2c1c2" d="
  M 15.01 80.30
  Q 15.44 80.09 15.14 79.75
  Q 16.87 78.26 18.72 78.14
  A 0.62 0.61 -69.3 0 1 19.19 79.19
  L 16.70 81.68
  A 0.77 0.77 0.0 0 1 15.79 81.80
  Q 14.97 81.35 15.01 80.30
  Z"
/>
<rect fill="#c2c1c2" x="-2.41" y="-0.81" transform="translate(84.83,80.14) rotate(37.1)" width="4.82" height="1.62" rx="0.27"/>
<ellipse fill="#080a05" fill-opacity="0.392" cx="0.00" cy="0.00" transform="translate(12.32,82.39) rotate(48.7)" rx="2.81" ry="0.65"/>
<ellipse fill="#c2c1c2" cx="0.00" cy="0.00" transform="translate(80.77,84.10) rotate(52.1)" rx="2.48" ry="0.82"/>
<path fill="#c2c1c2" d="
  M 18.99 85.26
  Q 19.08 84.39 19.57 83.51
  L 21.38 82.32
  A 1.12 1.12 0.0 0 1 22.94 83.85
  Q 22.32 84.84 21.09 85.83
  Q 19.88 86.80 18.99 85.26
  Z"
/>
<ellipse fill="#080a05" fill-opacity="0.392" cx="49.82" cy="82.75" rx="0.65" ry="0.54"/>
<path fill="#c2c1c2" d="
  M 75.94 85.35
  A 0.29 0.29 0.0 0 1 76.33 85.45
  L 76.41 85.58
  A 4.29 0.81 59.4 0 1 77.89 89.68
  L 77.65 89.82
  A 4.29 0.81 59.4 0 1 74.77 86.54
  L 74.70 86.42
  A 0.29 0.29 0.0 0 1 74.80 86.02
  L 75.94 85.35
  Z"
/>
<path fill="#c2c1c2" d="
  M 25.46 86.16
  A 0.58 0.58 0.0 0 1 26.37 86.84
  L 24.97 89.99
  A 0.83 0.83 0.0 0 1 23.40 89.45
  Q 23.90 87.46 25.46 86.16
  Z"
/>
<ellipse fill="#c2c1c2" cx="0.00" cy="0.00" transform="translate(71.94,90.72) rotate(64.2)" rx="2.45" ry="1.32"/>
<path fill="#c2c1c2" d="
  M 31.89 89.35
  A 0.41 0.41 0.0 0 1 32.03 89.92
  L 31.96 90.04
  A 4.29 0.86 -59.5 0 1 29.04 93.30
  L 28.80 93.15
  A 4.29 0.86 -59.5 0 1 30.24 89.02
  L 30.31 88.90
  A 0.41 0.41 0.0 0 1 30.87 88.76
  L 31.89 89.35
  Z"
/>
<path fill="#c2c1c2" d="
  M 67.27 93.44
  Q 67.86 93.50 68.08 93.71
  A 1.15 1.14 82.6 0 1 66.70 95.52
  Q 64.67 94.24 65.08 91.70
  A 1.08 1.06 -40.8 0 1 67.21 91.84
  Q 67.21 92.09 66.90 92.80
  A 0.46 0.45 15.3 0 0 67.27 93.44
  Z"
/>
<ellipse fill="#c2c1c2" cx="0.00" cy="0.00" transform="translate(39.88,95.00) rotate(110.2)" rx="2.55" ry="1.28"/>
<ellipse fill="#c2c1c2" cx="0.00" cy="0.00" transform="translate(44.95,96.12) rotate(98.3)" rx="2.44" ry="0.76"/>
<rect fill="#ffffff" x="-1.04" y="-2.30" transform="translate(56.31,96.11) rotate(-4.0)" width="2.08" height="4.60" rx="0.60"/>
<rect fill="#ffffff" x="-1.05" y="-2.18" transform="translate(50.29,96.41) rotate(3.7)" width="2.10" height="4.36" rx="0.68"/>
</g>
<g>
<ellipse fill="#c2c1c2" cx="0.00" cy="0.00" transform="translate(45.73,26.66) rotate(-17.3)" rx="1.05" ry="0.60"/>
<ellipse fill="#c2c1c2" cx="0.00" cy="0.00" transform="translate(43.84,32.23) rotate(124.4)" rx="0.88" ry="0.48"/>
<path fill="#1d1d1b" d="
  M 39.80 42.76
  L 42.67 41.71
  Q 42.99 41.59 42.81 41.88
  L 41.12 44.56
  A 1.13 1.13 0.0 0 1 39.65 44.96
  Q 38.78 44.51 39.04 43.58
  Q 39.21 42.97 39.80 42.76
  Z"
/>
<ellipse fill="#c2c1c2" cx="0.00" cy="0.00" transform="translate(55.97,48.61) rotate(-23.4)" rx="0.76" ry="0.58"/>
<ellipse fill="#c2c1c2" cx="0.00" cy="0.00" transform="translate(65.92,60.45) rotate(126.4)" rx="0.92" ry="0.55"/>
<path fill="#c2c1c2" d="
  M 42.22 62.52
  Q 42.29 62.36 42.45 62.30
  Q 43.05 62.10 43.19 62.26
  A 0.74 0.74 0.0 0 1 42.25 63.37
  Q 41.97 63.20 42.22 62.52
  Z"
/>
<path fill="#1d1d1b" d="
  M 33.45 66.34
  Q 32.04 65.34 31.71 63.59
  Q 31.57 62.82 32.09 63.40
  L 34.09 65.62
  A 0.49 0.48 86.7 0 1 33.45 66.34
  Z"
/>
</g>
</svg>
