<?xml version="1.0" encoding="UTF-8" standalone="no"?>
<!DOCTYPE svg PUBLIC "-//W3C//DTD SVG 1.1//EN" "http://www.w3.org/Graphics/SVG/1.1/DTD/svg11.dtd">
<svg xmlns="http://www.w3.org/2000/svg" version="1.1" viewBox="0.00 0.00 512.00 512.00">
<path fill="#000000" d="
  M 512.00 253.06
  L 512.00 259.55
  C 510.16 286.17 496.90 309.64 474.38 323.57
  C 459.55 332.75 444.50 335.73 427.00 335.74
  Q 353.84 335.79 90.07 335.73
  Q 75.77 335.73 70.10 335.03
  C 31.23 330.23 2.34 298.70 0.00 259.43
  L 0.00 252.21
  C 2.55 213.14 31.19 181.87 69.85 177.00
  Q 75.60 176.27 89.82 176.27
  Q 260.41 176.22 431.00 176.26
  C 475.26 176.27 509.09 208.94 512.00 253.06
  Z
  M 66.16 189.13
  C 19.55 198.68 -3.63 252.02 21.84 292.21
  C 32.18 308.53 48.52 319.65 67.58 323.11
  Q 73.90 324.25 87.50 324.25
  Q 256.72 324.26 425.94 324.24
  Q 439.09 324.24 445.84 322.89
  C 479.37 316.17 502.86 285.24 500.37 251.15
  C 497.82 216.15 468.49 187.76 433.25 187.75
  Q 259.66 187.74 86.07 187.76
  Q 72.83 187.76 66.16 189.13
  Z"
/>
<path fill="#000000" d="
  M 438.42 282.69
  C 414.99 299.01 382.59 286.68 376.48 258.92
  C 369.64 227.83 400.11 201.83 429.79 213.36
  C 453.58 222.59 463.10 253.03 447.50 273.64
  A 0.78 0.77 -49.8 0 0 447.58 274.66
  Q 456.10 282.78 464.30 291.19
  C 470.31 297.37 461.94 304.92 456.97 300.04
  Q 448.14 291.38 439.77 282.81
  Q 439.15 282.18 438.42 282.69
  Z
  M 397.19 272.06
  C 406.36 279.85 421.58 281.50 431.88 273.32
  Q 432.28 273.00 432.39 272.51
  C 433.54 267.42 436.90 269.10 438.89 266.16
  C 455.79 241.22 426.48 210.40 400.64 226.10
  C 383.69 236.39 382.30 259.42 397.19 272.06
  Z"
/>
</svg>
