<svg width="1024" height="1024" viewBox="-512 -256 1024 1024" fill="none" xmlns="http://www.w3.org/2000/svg">
<g clip-path="url(#clip0_104_2)">
<path d="M512 106.05V107.25C492.587 175.997 473 244.803 453.24 313.67C450.38 323.64 447.21 331 436.25 331C346.99 330.993 257.73 330.997 168.47 331.01C164.283 331.01 161.23 331.387 159.31 332.14C146.93 337.04 147.32 355.24 159.3 359.81C161.38 360.603 165.393 361 171.34 361C258.96 360.993 346.577 360.997 434.19 361.01C437.557 361.01 440.027 361.267 441.6 361.78C458.5 367.29 453.53 391.35 435.25 391.04C427.683 390.907 420.12 390.977 412.56 391.25C412.3 391.257 412.253 391.36 412.42 391.56C412.487 391.647 412.587 391.697 412.72 391.71C432.19 393.81 447.56 409.07 451.03 427.85C456.96 459.93 428.21 486.72 396.66 479.62C365.42 472.6 351.84 434.81 371.25 409.02C377.89 400.187 387.003 394.47 398.59 391.87C399.44 391.68 400.64 391.93 401.35 391.67C401.426 391.643 401.489 391.59 401.53 391.52C401.57 391.45 401.584 391.368 401.57 391.289C401.555 391.21 401.513 391.138 401.451 391.087C401.389 391.036 401.311 391.009 401.23 391.01L202 391C200.26 391 200.13 391.407 201.61 392.22C201.737 392.287 202.167 392.24 202.9 392.08C203.333 391.987 203.75 391.987 204.15 392.08C216.577 394.907 226.043 401.36 232.55 411.44C251.24 440.39 232.13 478.28 197.77 480.76C164.12 483.2 140.34 447.51 153.99 417.76C160.337 403.927 171.22 395.29 186.64 391.85C187.4 391.68 188.58 391.93 189.18 391.72C189.26 391.692 189.328 391.636 189.372 391.563C189.415 391.49 189.431 391.403 189.417 391.319C189.402 391.235 189.358 391.159 189.293 391.104C189.228 391.049 189.145 391.02 189.06 391.02C179.927 391.087 171.633 390.997 164.18 390.75C116.4 389.18 103.36 326.02 146.45 305.09C146.903 304.87 147.077 304.517 146.97 304.03L93.12 61.68C93.0769 61.4872 92.9702 61.3149 92.8176 61.1913C92.6649 61.0677 92.4753 61.0002 92.28 61C68.3267 61 44.3733 61 20.42 61C9.42 61.01 1.83 58.79 0 46.94V45.2C1.66 33.47 9.19 31.01 20.03 31C47.9367 30.9933 75.8433 30.9933 103.75 31C114.84 31.01 118.52 37.88 120.78 47.97C123.947 62.1367 127.103 76.3033 130.25 90.47C130.33 90.8167 130.547 90.99 130.9 90.99C250.98 91.01 371.047 91.01 491.1 90.99C502.61 90.99 510.79 93.28 512 106.05ZM425.34 301C425.438 300.999 425.533 300.967 425.61 300.907C425.688 300.847 425.744 300.764 425.77 300.67L476.97 121.57C476.989 121.503 476.991 121.432 476.978 121.363C476.964 121.295 476.935 121.23 476.893 121.175C476.85 121.12 476.795 121.075 476.732 121.045C476.669 121.014 476.6 120.999 476.53 121H137.59C137.522 121 137.455 121.015 137.394 121.044C137.333 121.073 137.28 121.116 137.237 121.169C137.195 121.222 137.165 121.283 137.15 121.349C137.135 121.415 137.135 121.484 137.15 121.55L176.95 300.65C176.973 300.75 177.029 300.839 177.109 300.902C177.189 300.966 177.288 301 177.39 301H425.34ZM209.91 436C209.91 432.046 208.339 428.253 205.543 425.457C202.747 422.661 198.954 421.09 195 421.09C191.046 421.09 187.253 422.661 184.457 425.457C181.661 428.253 180.09 432.046 180.09 436C180.09 439.954 181.661 443.747 184.457 446.543C187.253 449.339 191.046 450.91 195 450.91C198.954 450.91 202.747 449.339 205.543 446.543C208.339 443.747 209.91 439.954 209.91 436ZM421.91 436C421.91 432.046 420.339 428.253 417.543 425.457C414.747 422.661 410.954 421.09 407 421.09C403.046 421.09 399.253 422.661 396.457 425.457C393.661 428.253 392.09 432.046 392.09 436C392.09 439.954 393.661 443.747 396.457 446.543C399.253 449.339 403.046 450.91 407 450.91C410.954 450.91 414.747 449.339 417.543 446.543C420.339 443.747 421.91 439.954 421.91 436Z" fill="black"/>
<path d="M297.387 300.115C296.271 300.603 295.149 301.076 294.019 301.534C292.848 302.005 292.649 301.489 292.209 300.561C280.08 275.052 272.591 259.034 269.743 252.506C266.433 244.922 264.225 239.689 263.119 236.808C259.245 226.705 256.785 215.484 254.11 204.665C252.647 198.747 250.352 192.458 247.226 185.798C246.268 183.759 245.762 182.594 245.708 182.305C245.44 180.872 245.961 179.575 247.273 178.413C247.772 177.968 248.541 177.941 249.05 177.705C266.475 169.616 283.901 161.527 301.327 153.437C301.365 153.42 301.761 153.184 302.516 152.73C303.89 151.903 305.854 152.241 306.984 153.223C307.484 153.657 308.025 154.517 308.608 155.803C309.623 158.033 310.53 160.403 311.586 162.469C315.104 169.359 319.059 176.277 323.783 182.414C326.157 185.498 328.538 188.58 330.923 191.658C334.497 196.265 337.298 201.595 339.584 207.223C347.709 227.231 356.579 245.176 365.667 263.87C366.027 264.611 365.976 265.194 365.515 265.619C362.451 268.446 359.372 271.255 356.28 274.046C355.795 274.484 355.251 274.835 354.647 275.096C335.555 283.427 316.468 291.767 297.387 300.115ZM294.029 299.279L353.352 273.41C353.518 273.337 353.564 273.217 353.491 273.049C343.803 251.21 333.747 229.68 323.313 208.242C319.619 200.646 317.26 196.033 315.803 188.551C314.935 184.08 314.053 179.612 313.16 175.148C312.282 170.752 310.769 166.668 309.21 162.547C309.204 162.531 309.195 162.516 309.183 162.504C309.171 162.491 309.156 162.482 309.14 162.475C309.124 162.469 309.107 162.466 309.09 162.466C309.073 162.466 309.056 162.47 309.04 162.478C306.664 163.604 304.404 164.662 302.262 165.652C300.653 166.395 299.968 164.401 300.895 163.967C303.335 162.828 305.743 161.708 308.12 160.607C308.186 160.576 308.237 160.522 308.263 160.454C308.29 160.387 308.289 160.312 308.262 160.245C307.745 158.984 306.457 155.319 305.416 154.612C304.433 153.946 303.853 154.587 302.967 154.999C285.32 163.191 267.672 171.383 250.025 179.575C248.678 180.2 247.127 180.322 247.998 182.367C248.703 184.02 249.413 185.678 250.128 187.341C250.172 187.442 250.245 187.47 250.345 187.423C252.669 186.349 254.993 185.273 257.315 184.198C258.759 183.527 259.695 185.395 257.839 186.26C255.629 187.295 253.395 188.336 251.137 189.381C251.031 189.431 251.001 189.509 251.046 189.616C252.524 193.163 253.946 196.635 254.972 200.349C256.518 205.952 257.958 211.581 259.295 217.236C260.482 222.263 262.069 227.045 263.612 231.896C264.238 233.863 264.954 235.815 265.76 237.753C274.186 257.979 282.414 275.17 293.863 299.219C293.897 299.292 293.953 299.312 294.029 299.279ZM350.464 261.021L362.863 263.345C362.888 263.349 362.915 263.347 362.939 263.337C362.963 263.328 362.985 263.312 363 263.291C363.016 263.27 363.026 263.245 363.028 263.219C363.03 263.193 363.025 263.167 363.014 263.144C353.602 243.589 344.922 223.667 335.939 203.909C334.69 201.158 332.966 198.549 331.441 195.888C330.937 195.004 329.787 193.448 327.99 191.217C323.267 185.358 318.766 179.537 315.06 172.962C315.049 172.944 315.033 172.931 315.013 172.924C314.994 172.917 314.973 172.917 314.953 172.923C314.934 172.93 314.918 172.943 314.909 172.961C314.899 172.978 314.896 172.999 314.9 173.018C315.834 178.152 316.832 183.285 317.895 188.416C319.144 194.45 321.344 199.746 324.166 205.349C332.883 222.659 341.536 241.789 350.35 260.933C350.373 260.982 350.411 261.011 350.464 261.021ZM362.513 265.616C362.533 265.599 362.547 265.577 362.554 265.552C362.561 265.528 362.562 265.501 362.555 265.477C362.548 265.452 362.534 265.429 362.515 265.412C362.496 265.395 362.473 265.383 362.448 265.378L351.665 263.364C351.641 263.36 351.616 263.363 351.592 263.371C351.569 263.38 351.549 263.395 351.534 263.415C351.519 263.434 351.509 263.457 351.506 263.482C351.502 263.506 351.506 263.531 351.516 263.554L355.26 271.939C355.269 271.959 355.282 271.976 355.299 271.99C355.316 272.004 355.336 272.013 355.357 272.018C355.378 272.023 355.4 272.022 355.421 272.016C355.442 272.011 355.462 272 355.478 271.986L362.513 265.616Z" fill="black"/>
<path d="M270.503 178.072L261.846 182.091C261.332 182.33 261.108 182.94 261.347 183.455L261.365 183.494C261.604 184.009 262.215 184.232 262.729 183.993L271.386 179.975C271.9 179.736 272.123 179.125 271.885 178.611L271.866 178.571C271.627 178.057 271.017 177.834 270.503 178.072Z" fill="black"/>
<path d="M283.585 172.003L274.934 176.019C274.42 176.257 274.196 176.868 274.435 177.382L274.451 177.416C274.69 177.931 275.3 178.154 275.814 177.915L284.465 173.899C284.98 173.661 285.203 173.05 284.964 172.536L284.949 172.502C284.71 171.987 284.099 171.764 283.585 172.003Z" fill="black"/>
<path d="M296.812 165.859L288.02 169.941C287.505 170.18 287.282 170.79 287.521 171.304L287.539 171.344C287.778 171.858 288.388 172.082 288.903 171.843L297.695 167.761C298.21 167.523 298.433 166.912 298.194 166.398L298.176 166.358C297.937 165.844 297.327 165.62 296.812 165.859Z" fill="black"/>
<path d="M260.454 184.836C260.891 184.633 261.081 184.113 260.878 183.676C260.675 183.238 260.155 183.048 259.718 183.251C259.28 183.454 259.09 183.974 259.293 184.412C259.496 184.849 260.016 185.039 260.454 184.836Z" fill="black"/>
<path d="M273.533 178.775C273.973 178.571 274.163 178.049 273.959 177.61C273.756 177.171 273.234 176.98 272.795 177.184C272.355 177.388 272.165 177.909 272.369 178.349C272.572 178.788 273.094 178.979 273.533 178.775Z" fill="black"/>
<path d="M286.607 172.665C287.064 172.45 287.275 171.935 287.078 171.514C286.88 171.092 286.349 170.924 285.892 171.138C285.435 171.353 285.224 171.868 285.421 172.289C285.619 172.711 286.15 172.879 286.607 172.665Z" fill="black"/>
<path d="M299.687 166.627C300.122 166.425 300.311 165.909 300.109 165.475C299.907 165.04 299.391 164.851 298.957 165.053C298.522 165.255 298.333 165.771 298.535 166.205C298.737 166.64 299.253 166.829 299.687 166.627Z" fill="black"/>
<path d="M293.643 218.375C285.093 223.118 275.684 210.107 280.356 202.463C280.701 201.897 281.218 201.463 281.906 201.162C281.953 201.141 281.994 201.11 282.027 201.07C282.059 201.031 282.082 200.984 282.093 200.935C282.179 200.564 282.257 200.318 282.608 200.11C285.911 198.168 289.915 199.292 292.633 201.736C295.893 204.668 297.439 208.268 297.27 212.535C297.209 214.118 296.563 215.505 295.33 216.694C295.257 216.765 295.212 216.86 295.202 216.96C295.112 218.034 294.305 218.006 293.643 218.375ZM293.176 215.196C294.252 215.773 295.032 213.546 295.078 212.748C295.317 208.367 293.742 204.983 290.351 202.596C288.977 201.63 287.439 201.185 285.808 201.185C285.779 201.186 285.751 201.197 285.729 201.216C285.706 201.234 285.691 201.26 285.685 201.288C285.679 201.317 285.682 201.347 285.695 201.373C285.708 201.399 285.729 201.42 285.755 201.433C288.891 202.868 290.622 205.67 290.265 209.118C290.147 210.264 289.786 211.829 290.38 212.864C291.113 214.14 291.938 214.539 293.176 215.196ZM282.586 203.145C281.465 203.741 281.047 206.664 281.149 207.625C281.629 212.298 285.432 217.734 290.77 217.204C290.941 217.186 290.953 217.135 290.805 217.05C288.457 215.683 287.488 213.759 287.42 211.1C287.39 209.93 287.807 208.144 287.442 206.906C286.978 205.335 285.593 204.354 284.174 203.536C283.643 203.229 283.271 202.783 282.586 203.145Z" fill="black"/>
<path d="M290.996 269.479C289.801 269.237 288.915 268.495 288.338 267.251C283.917 257.719 279.487 248.165 275.047 238.59C274.933 238.345 274.921 238.065 275.014 237.812C275.107 237.558 275.296 237.352 275.541 237.238C288.134 231.388 300.816 225.501 313.584 219.578C316.036 218.44 317.914 219.217 319.039 221.633C323.506 231.242 327.945 240.804 332.356 250.32C332.463 250.551 332.474 250.814 332.387 251.053C332.3 251.291 332.123 251.485 331.893 251.592C319.168 257.501 306.412 263.421 293.625 269.353C292.966 269.658 292.09 269.7 290.996 269.479ZM290.285 266.413C291.066 268.094 292.776 267.503 294.113 266.883C306.046 261.35 317.948 255.828 329.819 250.318C329.885 250.287 329.936 250.232 329.961 250.163C329.986 250.095 329.983 250.019 329.952 249.953C325.703 240.795 321.446 231.628 317.181 222.45C316.549 221.089 315.685 220.836 314.304 221.477C302.05 227.166 289.825 232.841 277.628 238.503C277.562 238.533 277.511 238.589 277.486 238.657C277.461 238.726 277.464 238.801 277.495 238.867C281.749 248.038 286.013 257.22 290.285 266.413Z" fill="black"/>
<path d="M311.738 267.31L293.525 275.765C293.006 276.005 292.781 276.622 293.021 277.141L293.035 277.169C293.276 277.688 293.892 277.913 294.411 277.672L312.624 269.218C313.143 268.977 313.369 268.361 313.128 267.841L313.115 267.813C312.874 267.294 312.258 267.069 311.738 267.31Z" fill="black"/>
<path d="M342.259 272.069L327.998 278.69C327.479 278.931 327.253 279.547 327.494 280.066L327.507 280.094C327.748 280.613 328.364 280.839 328.883 280.598L343.145 273.977C343.664 273.736 343.89 273.12 343.649 272.601L343.635 272.573C343.394 272.054 342.778 271.828 342.259 272.069Z" fill="black"/>
<path d="M308.054 229.715L289.846 238.168C289.326 238.409 289.099 239.027 289.341 239.548L289.352 239.571C289.593 240.091 290.211 240.317 290.732 240.076L308.94 231.623C309.46 231.382 309.686 230.764 309.445 230.243L309.434 230.221C309.193 229.7 308.575 229.474 308.054 229.715Z" fill="black"/>
<path d="M310.98 236.013L292.767 244.468C292.246 244.709 292.02 245.327 292.262 245.848L292.272 245.871C292.514 246.391 293.132 246.617 293.653 246.376L311.866 237.921C312.387 237.679 312.613 237.061 312.371 236.541L312.361 236.518C312.119 235.997 311.501 235.771 310.98 236.013Z" fill="black"/>
<path d="M392.178 299.861C391.063 300.349 389.941 300.821 388.811 301.279C387.64 301.751 387.441 301.234 387.001 300.307C374.872 274.797 367.383 258.779 364.535 252.252C361.225 244.668 359.017 239.435 357.911 236.553C354.037 226.45 351.577 215.229 348.902 204.411C347.439 198.492 345.144 192.203 342.018 185.543C341.06 183.504 340.554 182.339 340.5 182.05C340.232 180.617 340.753 179.32 342.065 178.158C342.564 177.713 343.333 177.687 343.842 177.45C361.267 169.361 378.692 161.272 396.119 153.183C396.157 153.165 396.553 152.929 397.308 152.476C398.682 151.648 400.646 151.986 401.776 152.968C402.275 153.402 402.817 154.262 403.4 155.549C404.415 157.779 405.322 160.148 406.378 162.215C409.896 169.104 413.851 176.022 418.575 182.159C420.949 185.243 423.33 188.325 425.715 191.404C429.289 196.011 432.09 201.341 434.376 206.969C442.501 226.976 451.371 244.921 460.459 263.615C460.819 264.357 460.768 264.94 460.307 265.365C457.243 268.191 454.164 271 451.072 273.791C450.587 274.23 450.043 274.58 449.439 274.841C430.347 283.172 411.26 291.512 392.178 299.861ZM388.821 299.024L448.144 273.155C448.31 273.082 448.356 272.962 448.283 272.794C438.595 250.955 428.539 229.425 418.105 207.987C414.411 200.392 412.052 195.778 410.595 188.296C409.726 183.825 408.845 179.357 407.952 174.893C407.074 170.497 405.561 166.413 404.002 162.292C403.996 162.276 403.987 162.261 403.975 162.249C403.963 162.237 403.948 162.227 403.932 162.22C403.916 162.214 403.899 162.211 403.882 162.211C403.865 162.212 403.848 162.216 403.832 162.223C401.455 163.349 399.196 164.407 397.054 165.397C395.445 166.14 394.76 164.146 395.687 163.712C398.127 162.573 400.535 161.453 402.912 160.352C402.978 160.321 403.029 160.267 403.055 160.199C403.082 160.132 403.081 160.057 403.054 159.99C402.537 158.729 401.249 155.064 400.208 154.357C399.225 153.692 398.645 154.333 397.759 154.744C380.112 162.936 362.464 171.128 344.817 179.32C343.47 179.946 341.919 180.067 342.79 182.113C343.495 183.765 344.205 185.423 344.92 187.087C344.964 187.188 345.037 187.215 345.137 187.168C347.461 186.094 349.785 185.019 352.107 183.943C353.551 183.273 354.487 185.14 352.631 186.005C350.421 187.04 348.187 188.081 345.929 189.127C345.823 189.176 345.793 189.254 345.838 189.361C347.316 192.908 348.738 196.38 349.764 200.095C351.31 205.697 352.75 211.326 354.087 216.982C355.274 222.008 356.861 226.79 358.404 231.641C359.03 233.608 359.746 235.56 360.552 237.498C368.978 257.724 377.206 274.915 388.655 298.964C388.689 299.037 388.745 299.058 388.821 299.024ZM445.256 260.767L457.655 263.09C457.68 263.095 457.707 263.092 457.731 263.083C457.755 263.073 457.777 263.057 457.792 263.036C457.808 263.015 457.818 262.99 457.82 262.964C457.822 262.938 457.817 262.912 457.806 262.889C448.394 243.334 439.714 223.412 430.731 203.654C429.482 200.903 427.758 198.294 426.233 195.633C425.729 194.75 424.579 193.193 422.782 190.962C418.059 185.103 413.558 179.282 409.852 172.707C409.841 172.689 409.825 172.676 409.805 172.669C409.786 172.662 409.764 172.662 409.745 172.669C409.726 172.675 409.71 172.689 409.701 172.706C409.691 172.724 409.688 172.744 409.692 172.764C410.626 177.898 411.624 183.03 412.687 188.161C413.936 194.195 416.136 199.491 418.957 205.094C427.675 222.404 436.328 241.534 445.142 260.678C445.165 260.727 445.203 260.757 445.256 260.767ZM457.305 265.361C457.324 265.344 457.339 265.322 457.346 265.297C457.353 265.273 457.353 265.247 457.347 265.222C457.34 265.197 457.326 265.175 457.307 265.157C457.288 265.14 457.265 265.128 457.24 265.123L446.457 263.11C446.433 263.105 446.408 263.108 446.384 263.117C446.361 263.126 446.341 263.14 446.326 263.16C446.31 263.179 446.301 263.203 446.298 263.227C446.294 263.252 446.298 263.277 446.308 263.299L450.052 271.684C450.061 271.704 450.074 271.722 450.091 271.735C450.108 271.749 450.128 271.759 450.149 271.763C450.17 271.768 450.192 271.767 450.213 271.762C450.234 271.756 450.254 271.745 450.27 271.731L457.305 265.361Z" fill="black"/>
<path d="M371.503 180.072L362.846 184.091C362.332 184.33 362.108 184.94 362.347 185.455L362.365 185.494C362.604 186.009 363.215 186.232 363.729 185.993L372.386 181.975C372.9 181.736 373.123 181.125 372.885 180.611L372.866 180.571C372.627 180.057 372.017 179.834 371.503 180.072Z" fill="black"/>
<path d="M384.585 174.003L375.934 178.019C375.42 178.257 375.196 178.868 375.435 179.382L375.451 179.416C375.69 179.931 376.3 180.154 376.814 179.915L385.465 175.899C385.98 175.661 386.203 175.05 385.964 174.536L385.949 174.502C385.71 173.987 385.099 173.764 384.585 174.003Z" fill="black"/>
<path d="M397.812 167.859L389.02 171.941C388.505 172.18 388.282 172.79 388.521 173.304L388.539 173.344C388.778 173.858 389.388 174.082 389.903 173.843L398.695 169.761C399.21 169.523 399.433 168.912 399.194 168.398L399.176 168.358C398.937 167.844 398.327 167.62 397.812 167.859Z" fill="black"/>
<path d="M361.454 186.836C361.891 186.633 362.081 186.113 361.878 185.676C361.675 185.238 361.155 185.048 360.718 185.251C360.28 185.454 360.09 185.974 360.293 186.412C360.496 186.849 361.016 187.039 361.454 186.836Z" fill="black"/>
<path d="M374.533 180.775C374.973 180.571 375.163 180.049 374.959 179.61C374.756 179.171 374.234 178.98 373.795 179.184C373.355 179.388 373.165 179.909 373.369 180.349C373.572 180.788 374.094 180.979 374.533 180.775Z" fill="black"/>
<path d="M387.607 174.665C388.064 174.45 388.275 173.935 388.078 173.514C387.88 173.092 387.349 172.924 386.892 173.138C386.435 173.353 386.224 173.868 386.421 174.289C386.619 174.711 387.15 174.879 387.607 174.665Z" fill="black"/>
<path d="M400.687 168.627C401.122 168.425 401.311 167.909 401.109 167.475C400.907 167.04 400.391 166.851 399.957 167.053C399.522 167.255 399.333 167.771 399.535 168.205C399.737 168.64 400.253 168.829 400.687 168.627Z" fill="black"/>
<path d="M394.643 220.375C386.093 225.118 376.684 212.107 381.356 204.463C381.701 203.897 382.218 203.463 382.906 203.162C382.953 203.141 382.994 203.11 383.027 203.07C383.059 203.031 383.082 202.984 383.093 202.935C383.179 202.564 383.257 202.318 383.608 202.11C386.911 200.168 390.915 201.292 393.633 203.736C396.893 206.668 398.439 210.268 398.27 214.535C398.209 216.118 397.563 217.505 396.33 218.694C396.257 218.765 396.212 218.86 396.202 218.96C396.112 220.034 395.305 220.006 394.643 220.375ZM394.176 217.196C395.252 217.773 396.032 215.546 396.078 214.748C396.317 210.367 394.742 206.983 391.351 204.596C389.977 203.63 388.439 203.185 386.808 203.185C386.779 203.186 386.751 203.197 386.729 203.216C386.706 203.234 386.691 203.26 386.685 203.288C386.679 203.317 386.682 203.347 386.695 203.373C386.708 203.399 386.729 203.42 386.755 203.433C389.891 204.868 391.622 207.67 391.265 211.118C391.147 212.264 390.786 213.829 391.38 214.864C392.113 216.14 392.938 216.539 394.176 217.196ZM383.586 205.145C382.465 205.741 382.047 208.664 382.149 209.625C382.629 214.298 386.432 219.734 391.77 219.204C391.941 219.186 391.953 219.135 391.805 219.05C389.457 217.683 388.488 215.759 388.42 213.1C388.39 211.93 388.807 210.144 388.442 208.906C387.978 207.335 386.593 206.354 385.174 205.536C384.643 205.229 384.271 204.783 383.586 205.145Z" fill="black"/>
<path d="M391.996 271.479C390.801 271.237 389.915 270.495 389.338 269.251C384.917 259.719 380.487 250.165 376.047 240.59C375.933 240.345 375.921 240.065 376.014 239.812C376.107 239.558 376.296 239.352 376.541 239.238C389.134 233.388 401.816 227.501 414.584 221.578C417.036 220.44 418.914 221.217 420.039 223.633C424.506 233.242 428.945 242.804 433.356 252.32C433.463 252.551 433.474 252.814 433.387 253.053C433.3 253.291 433.123 253.485 432.893 253.592C420.168 259.501 407.412 265.421 394.625 271.353C393.966 271.658 393.09 271.7 391.996 271.479ZM391.285 268.413C392.066 270.094 393.776 269.503 395.113 268.883C407.046 263.35 418.948 257.828 430.819 252.318C430.885 252.287 430.936 252.232 430.961 252.163C430.986 252.095 430.983 252.019 430.952 251.953C426.703 242.795 422.446 233.628 418.181 224.45C417.549 223.089 416.685 222.836 415.304 223.477C403.05 229.166 390.825 234.841 378.628 240.503C378.562 240.533 378.511 240.589 378.486 240.657C378.461 240.726 378.464 240.801 378.495 240.867C382.749 250.038 387.013 259.22 391.285 268.413Z" fill="black"/>
<path d="M412.738 269.31L394.525 277.765C394.006 278.005 393.781 278.622 394.021 279.141L394.035 279.169C394.276 279.688 394.892 279.913 395.411 279.672L413.624 271.218C414.143 270.977 414.369 270.361 414.128 269.841L414.115 269.813C413.874 269.294 413.258 269.069 412.738 269.31Z" fill="black"/>
<path d="M443.259 274.069L428.998 280.69C428.479 280.931 428.253 281.547 428.494 282.066L428.507 282.094C428.748 282.613 429.364 282.839 429.883 282.598L444.145 275.977C444.664 275.736 444.89 275.12 444.649 274.601L444.635 274.573C444.394 274.054 443.778 273.828 443.259 274.069Z" fill="black"/>
<path d="M409.054 231.715L390.846 240.168C390.326 240.409 390.099 241.027 390.341 241.548L390.352 241.571C390.593 242.091 391.211 242.317 391.732 242.076L409.94 233.623C410.46 233.382 410.686 232.764 410.445 232.243L410.434 232.221C410.193 231.7 409.575 231.474 409.054 231.715Z" fill="black"/>
<path d="M411.98 238.013L393.767 246.468C393.246 246.709 393.02 247.327 393.262 247.848L393.272 247.871C393.514 248.391 394.132 248.617 394.653 248.376L412.866 239.921C413.387 239.679 413.613 239.061 413.371 238.541L413.361 238.518C413.119 237.997 412.501 237.771 411.98 238.013Z" fill="black"/>
<path d="M204.387 300.115C203.271 300.603 202.149 301.076 201.019 301.534C199.848 302.005 199.649 301.489 199.209 300.561C187.08 275.052 179.591 259.034 176.743 252.506C173.433 244.922 171.225 239.689 170.119 236.808C166.245 226.705 163.785 215.484 161.11 204.665C159.647 198.747 157.352 192.458 154.226 185.798C153.268 183.759 152.762 182.594 152.708 182.305C152.44 180.872 152.961 179.575 154.273 178.413C154.772 177.968 155.541 177.941 156.05 177.705C173.475 169.616 190.901 161.527 208.327 153.437C208.365 153.42 208.761 153.184 209.516 152.73C210.89 151.903 212.854 152.241 213.984 153.223C214.484 153.657 215.025 154.517 215.608 155.803C216.623 158.033 217.53 160.403 218.586 162.469C222.104 169.359 226.059 176.277 230.783 182.414C233.157 185.498 235.538 188.58 237.923 191.658C241.497 196.265 244.298 201.595 246.584 207.223C254.709 227.231 263.579 245.176 272.667 263.87C273.027 264.611 272.976 265.194 272.515 265.619C269.451 268.446 266.372 271.255 263.28 274.046C262.795 274.484 262.251 274.835 261.647 275.096C242.555 283.427 223.468 291.767 204.387 300.115ZM201.029 299.279L260.352 273.41C260.518 273.337 260.564 273.217 260.491 273.049C250.803 251.21 240.747 229.68 230.313 208.242C226.619 200.646 224.26 196.033 222.803 188.551C221.935 184.08 221.053 179.612 220.16 175.148C219.282 170.752 217.769 166.668 216.21 162.547C216.204 162.531 216.195 162.516 216.183 162.504C216.171 162.491 216.156 162.482 216.14 162.475C216.124 162.469 216.107 162.466 216.09 162.466C216.073 162.466 216.056 162.47 216.04 162.478C213.664 163.604 211.404 164.662 209.262 165.652C207.653 166.395 206.968 164.401 207.895 163.967C210.335 162.828 212.743 161.708 215.12 160.607C215.186 160.576 215.237 160.522 215.263 160.454C215.29 160.387 215.289 160.312 215.262 160.245C214.745 158.984 213.457 155.319 212.416 154.612C211.433 153.946 210.853 154.587 209.967 154.999C192.32 163.191 174.672 171.383 157.025 179.575C155.678 180.2 154.127 180.322 154.998 182.367C155.703 184.02 156.413 185.678 157.128 187.341C157.172 187.442 157.245 187.47 157.345 187.423C159.669 186.349 161.993 185.273 164.315 184.198C165.759 183.527 166.695 185.395 164.839 186.26C162.629 187.295 160.395 188.336 158.137 189.381C158.031 189.431 158.001 189.509 158.046 189.616C159.524 193.163 160.946 196.635 161.972 200.349C163.518 205.952 164.958 211.581 166.295 217.236C167.482 222.263 169.069 227.045 170.612 231.896C171.238 233.863 171.954 235.815 172.76 237.753C181.186 257.979 189.414 275.17 200.863 299.219C200.897 299.292 200.953 299.312 201.029 299.279ZM257.464 261.021L269.863 263.345C269.888 263.349 269.915 263.347 269.939 263.337C269.963 263.328 269.985 263.312 270 263.291C270.016 263.27 270.026 263.245 270.028 263.219C270.03 263.193 270.025 263.167 270.014 263.144C260.602 243.589 251.922 223.667 242.939 203.909C241.69 201.158 239.966 198.549 238.441 195.888C237.937 195.004 236.787 193.448 234.99 191.217C230.267 185.358 225.766 179.537 222.06 172.962C222.049 172.944 222.033 172.931 222.013 172.924C221.994 172.917 221.973 172.917 221.953 172.923C221.934 172.93 221.918 172.943 221.909 172.961C221.899 172.978 221.896 172.999 221.9 173.018C222.834 178.152 223.832 183.285 224.895 188.416C226.144 194.45 228.344 199.746 231.166 205.349C239.883 222.659 248.536 241.789 257.35 260.933C257.373 260.982 257.411 261.011 257.464 261.021ZM269.513 265.616C269.533 265.599 269.547 265.577 269.554 265.552C269.561 265.528 269.562 265.501 269.555 265.477C269.548 265.452 269.534 265.429 269.515 265.412C269.496 265.395 269.473 265.383 269.448 265.378L258.665 263.364C258.641 263.36 258.616 263.363 258.592 263.371C258.569 263.38 258.549 263.395 258.534 263.415C258.519 263.434 258.509 263.457 258.506 263.482C258.502 263.506 258.506 263.531 258.516 263.554L262.26 271.939C262.269 271.959 262.282 271.976 262.299 271.99C262.316 272.004 262.336 272.013 262.357 272.018C262.378 272.023 262.4 272.022 262.421 272.016C262.442 272.011 262.462 272 262.478 271.986L269.513 265.616Z" fill="black"/>
<path d="M177.503 178.072L168.846 182.091C168.332 182.33 168.108 182.94 168.347 183.455L168.365 183.494C168.604 184.009 169.215 184.232 169.729 183.993L178.386 179.975C178.9 179.736 179.123 179.125 178.885 178.611L178.866 178.571C178.627 178.057 178.017 177.834 177.503 178.072Z" fill="black"/>
<path d="M190.585 172.003L181.934 176.019C181.42 176.257 181.196 176.868 181.435 177.382L181.451 177.416C181.69 177.931 182.3 178.154 182.814 177.915L191.465 173.899C191.98 173.661 192.203 173.05 191.964 172.536L191.949 172.502C191.71 171.987 191.099 171.764 190.585 172.003Z" fill="black"/>
<path d="M203.812 165.859L195.02 169.941C194.505 170.18 194.282 170.79 194.521 171.304L194.539 171.344C194.778 171.858 195.388 172.082 195.903 171.843L204.695 167.761C205.21 167.523 205.433 166.912 205.194 166.398L205.176 166.358C204.937 165.844 204.327 165.62 203.812 165.859Z" fill="black"/>
<path d="M167.454 184.836C167.891 184.633 168.081 184.113 167.878 183.676C167.675 183.238 167.155 183.048 166.718 183.251C166.28 183.454 166.09 183.974 166.293 184.412C166.496 184.849 167.016 185.039 167.454 184.836Z" fill="black"/>
<path d="M180.533 178.775C180.973 178.571 181.163 178.049 180.959 177.61C180.756 177.171 180.234 176.98 179.795 177.184C179.355 177.388 179.165 177.909 179.369 178.349C179.572 178.788 180.094 178.979 180.533 178.775Z" fill="black"/>
<path d="M193.607 172.665C194.064 172.45 194.275 171.935 194.078 171.514C193.88 171.092 193.349 170.924 192.892 171.138C192.435 171.353 192.224 171.868 192.421 172.289C192.619 172.711 193.15 172.879 193.607 172.665Z" fill="black"/>
<path d="M206.687 166.627C207.122 166.425 207.311 165.909 207.109 165.475C206.907 165.04 206.391 164.851 205.957 165.053C205.522 165.255 205.333 165.771 205.535 166.205C205.737 166.64 206.253 166.829 206.687 166.627Z" fill="black"/>
<path d="M200.643 218.375C192.093 223.118 182.684 210.107 187.356 202.463C187.701 201.897 188.218 201.463 188.906 201.162C188.953 201.141 188.994 201.11 189.027 201.07C189.059 201.031 189.082 200.984 189.093 200.935C189.179 200.564 189.257 200.318 189.608 200.11C192.911 198.168 196.915 199.292 199.633 201.736C202.893 204.668 204.439 208.268 204.27 212.535C204.209 214.118 203.563 215.505 202.33 216.694C202.257 216.765 202.212 216.86 202.202 216.96C202.112 218.034 201.305 218.006 200.643 218.375ZM200.176 215.196C201.252 215.773 202.032 213.546 202.078 212.748C202.317 208.367 200.742 204.983 197.351 202.596C195.977 201.63 194.439 201.185 192.808 201.185C192.779 201.186 192.751 201.197 192.729 201.216C192.706 201.234 192.691 201.26 192.685 201.288C192.679 201.317 192.682 201.347 192.695 201.373C192.708 201.399 192.729 201.42 192.755 201.433C195.891 202.868 197.622 205.67 197.265 209.118C197.147 210.264 196.786 211.829 197.38 212.864C198.113 214.14 198.938 214.539 200.176 215.196ZM189.586 203.145C188.465 203.741 188.047 206.664 188.149 207.625C188.629 212.298 192.432 217.734 197.77 217.204C197.941 217.186 197.953 217.135 197.805 217.05C195.457 215.683 194.488 213.759 194.42 211.1C194.39 209.93 194.807 208.144 194.442 206.906C193.978 205.335 192.593 204.354 191.174 203.536C190.643 203.229 190.271 202.783 189.586 203.145Z" fill="black"/>
<path d="M197.996 269.479C196.801 269.237 195.915 268.495 195.338 267.251C190.917 257.719 186.487 248.165 182.047 238.59C181.933 238.345 181.921 238.065 182.014 237.812C182.107 237.558 182.296 237.352 182.541 237.238C195.134 231.388 207.816 225.501 220.584 219.578C223.036 218.44 224.914 219.217 226.039 221.633C230.506 231.242 234.945 240.804 239.356 250.32C239.463 250.551 239.474 250.814 239.387 251.053C239.3 251.291 239.123 251.485 238.893 251.592C226.168 257.501 213.412 263.421 200.625 269.353C199.966 269.658 199.09 269.7 197.996 269.479ZM197.285 266.413C198.066 268.094 199.776 267.503 201.113 266.883C213.046 261.35 224.948 255.828 236.819 250.318C236.885 250.287 236.936 250.232 236.961 250.163C236.986 250.095 236.983 250.019 236.952 249.953C232.703 240.795 228.446 231.628 224.181 222.45C223.549 221.089 222.685 220.836 221.304 221.477C209.05 227.166 196.825 232.841 184.628 238.503C184.562 238.533 184.511 238.589 184.486 238.657C184.461 238.726 184.464 238.801 184.495 238.867C188.749 248.038 193.013 257.22 197.285 266.413Z" fill="black"/>
<path d="M218.738 267.31L200.525 275.765C200.006 276.005 199.781 276.622 200.021 277.141L200.035 277.169C200.276 277.688 200.892 277.913 201.411 277.672L219.624 269.218C220.143 268.977 220.369 268.361 220.128 267.841L220.115 267.813C219.874 267.294 219.258 267.069 218.738 267.31Z" fill="black"/>
<path d="M249.259 272.069L234.998 278.69C234.479 278.931 234.253 279.547 234.494 280.066L234.507 280.094C234.748 280.613 235.364 280.839 235.883 280.598L250.145 273.977C250.664 273.736 250.89 273.12 250.649 272.601L250.635 272.573C250.394 272.054 249.778 271.828 249.259 272.069Z" fill="black"/>
<path d="M215.054 229.715L196.846 238.168C196.326 238.409 196.099 239.027 196.341 239.548L196.352 239.571C196.593 240.091 197.211 240.317 197.732 240.076L215.94 231.623C216.46 231.382 216.686 230.764 216.445 230.243L216.434 230.221C216.193 229.7 215.575 229.474 215.054 229.715Z" fill="black"/>
<path d="M217.98 236.013L199.767 244.468C199.246 244.709 199.02 245.327 199.262 245.848L199.272 245.871C199.514 246.391 200.132 246.617 200.653 246.376L218.866 237.921C219.387 237.679 219.613 237.061 219.371 236.541L219.361 236.518C219.119 235.997 218.501 235.771 217.98 236.013Z" fill="black"/>
</g>
<defs>
<clipPath id="clip0_104_2">
<rect width="1024" height="1024" fill="white"/>
</clipPath>
</defs>
</svg>
