<svg width="512" height="512" viewBox="0 0 512 512" fill="none" xmlns="http://www.w3.org/2000/svg">
<g clip-path="url(#clip0_104_142)">
<path d="M512 93.07V93.81C502.54 133.57 493.04 173.317 483.5 213.05C477.3 238.85 460.6 257.38 435.23 263.99C431.39 264.99 424.807 265.977 415.48 266.95C336.1 275.25 256.703 283.547 177.29 291.84C177.022 291.871 176.766 291.97 176.549 292.128C176.331 292.285 176.159 292.496 176.05 292.74C174.2 296.89 171.99 301.41 170.94 305.49C166.87 321.29 175.07 338.72 190.89 343.71C194.13 344.737 199.587 345.263 207.26 345.29C278.753 345.537 350.247 345.597 421.74 345.47C428.467 345.457 432.453 345.623 433.7 345.97C444.49 348.99 445.19 364.05 434.91 368.13C433.05 368.863 429.853 369.23 425.32 369.23C351.3 369.257 277.277 369.267 203.25 369.26C166.33 369.26 138.54 336.61 147.51 299.72C149.07 293.34 152.44 286.03 155.4 279.42C155.54 279.1 155.557 278.773 155.45 278.44C130.917 204.38 106.363 130.333 81.7899 56.3C75.5699 37.56 65.8999 30.89 46.1799 30.59C33.8665 30.41 22.9732 30.3933 13.4999 30.54C-0.200126 30.75 -5.14013 13.6 6.92987 8.21001C9.12987 7.23001 12.8065 6.74334 17.9599 6.75001C31.0599 6.75001 44.1299 6.48001 57.2199 7.34001C74.2199 8.46001 90.0499 20.26 98.1099 34.06C104.53 45.05 108.86 62.28 113.24 75.72C113.301 75.9098 113.42 76.0756 113.582 76.194C113.743 76.3125 113.939 76.3775 114.14 76.38C241.647 78.1133 369.177 79.8767 496.73 81.67C503.97 81.77 511.41 84.77 512 93.07ZM484.46 105.42L122.08 100.11C121.467 100.103 121.257 100.39 121.45 100.97L176.17 266.91C176.323 267.37 176.64 267.573 177.12 267.52C257.093 259.247 337.097 250.97 417.13 242.69C424.817 241.89 430.473 240.823 434.1 239.49C447.68 234.497 456.333 224.333 460.06 209C468.373 174.74 476.703 140.467 485.05 106.18C485.17 105.68 484.973 105.427 484.46 105.42Z" fill="black"/>
<path d="M216.66 451.69C216.66 465.837 211.04 479.404 201.037 489.407C191.034 499.41 177.467 505.03 163.32 505.03C149.173 505.03 135.606 499.41 125.603 489.407C115.6 479.404 109.98 465.837 109.98 451.69C109.98 437.543 115.6 423.976 125.603 413.973C135.606 403.97 149.173 398.35 163.32 398.35C177.467 398.35 191.034 403.97 201.037 413.973C211.04 423.976 216.66 437.543 216.66 451.69ZM192.88 451.69C192.88 443.85 189.766 436.331 184.222 430.788C178.678 425.244 171.16 422.13 163.32 422.13C155.48 422.13 147.961 425.244 142.418 430.788C136.874 436.331 133.76 443.85 133.76 451.69C133.76 459.53 136.874 467.048 142.418 472.592C147.961 478.136 155.48 481.25 163.32 481.25C171.16 481.25 178.678 478.136 184.222 472.592C189.766 467.048 192.88 459.53 192.88 451.69Z" fill="black"/>
<path d="M442.35 451.7C442.35 458.705 440.97 465.641 438.29 472.112C435.609 478.584 431.68 484.464 426.727 489.417C421.774 494.37 415.894 498.299 409.422 500.98C402.951 503.66 396.015 505.04 389.01 505.04C382.005 505.04 375.069 503.66 368.598 500.98C362.126 498.299 356.246 494.37 351.293 489.417C346.34 484.464 342.411 478.584 339.73 472.112C337.05 465.641 335.67 458.705 335.67 451.7C335.67 437.553 341.29 423.986 351.293 413.983C361.296 403.98 374.863 398.36 389.01 398.36C403.157 398.36 416.724 403.98 426.727 413.983C436.73 423.986 442.35 437.553 442.35 451.7ZM418.58 451.69C418.58 443.85 415.466 436.332 409.922 430.788C404.378 425.244 396.86 422.13 389.02 422.13C381.18 422.13 373.661 425.244 368.118 430.788C362.574 436.332 359.46 443.85 359.46 451.69C359.46 459.53 362.574 467.048 368.118 472.592C373.661 478.136 381.18 481.25 389.02 481.25C396.86 481.25 404.378 478.136 409.922 472.592C415.466 467.048 418.58 459.53 418.58 451.69Z" fill="black"/>
<path d="M291.387 255.115C290.271 255.603 289.149 256.076 288.019 256.534C286.848 257.005 286.649 256.489 286.209 255.561C274.08 230.052 266.591 214.034 263.743 207.506C260.433 199.922 258.225 194.689 257.119 191.808C253.245 181.705 250.785 170.484 248.11 159.665C246.647 153.747 244.352 147.458 241.226 140.798C240.268 138.759 239.762 137.594 239.708 137.305C239.44 135.872 239.961 134.575 241.273 133.413C241.772 132.968 242.541 132.941 243.05 132.705C260.475 124.616 277.901 116.527 295.327 108.437C295.365 108.42 295.761 108.184 296.516 107.73C297.89 106.903 299.854 107.241 300.984 108.223C301.484 108.657 302.025 109.517 302.608 110.803C303.623 113.033 304.53 115.403 305.586 117.469C309.104 124.359 313.059 131.277 317.783 137.414C320.157 140.498 322.538 143.58 324.923 146.658C328.497 151.265 331.298 156.595 333.584 162.223C341.709 182.231 350.579 200.176 359.667 218.87C360.027 219.611 359.976 220.194 359.515 220.619C356.451 223.446 353.372 226.255 350.28 229.046C349.795 229.484 349.251 229.835 348.647 230.096C329.555 238.427 310.468 246.767 291.387 255.115ZM288.029 254.279L347.352 228.41C347.518 228.337 347.564 228.217 347.491 228.049C337.803 206.21 327.747 184.68 317.313 163.242C313.619 155.646 311.26 151.033 309.803 143.551C308.935 139.08 308.053 134.612 307.16 130.148C306.282 125.752 304.769 121.668 303.21 117.547C303.204 117.531 303.195 117.516 303.183 117.504C303.171 117.491 303.156 117.482 303.14 117.475C303.124 117.469 303.107 117.466 303.09 117.466C303.073 117.466 303.056 117.47 303.04 117.478C300.664 118.604 298.404 119.662 296.262 120.652C294.653 121.395 293.968 119.401 294.895 118.967C297.335 117.828 299.743 116.708 302.12 115.607C302.186 115.576 302.237 115.522 302.263 115.454C302.29 115.387 302.289 115.312 302.262 115.245C301.745 113.984 300.457 110.319 299.416 109.612C298.433 108.946 297.853 109.587 296.967 109.999C279.32 118.191 261.672 126.383 244.025 134.575C242.678 135.2 241.127 135.322 241.998 137.367C242.703 139.02 243.413 140.678 244.128 142.341C244.172 142.442 244.245 142.47 244.345 142.423C246.669 141.349 248.993 140.273 251.315 139.198C252.759 138.527 253.695 140.395 251.839 141.26C249.629 142.295 247.395 143.336 245.137 144.381C245.031 144.431 245.001 144.509 245.046 144.616C246.524 148.163 247.946 151.635 248.972 155.349C250.518 160.952 251.958 166.581 253.295 172.236C254.482 177.263 256.069 182.045 257.612 186.896C258.238 188.863 258.954 190.815 259.76 192.753C268.186 212.979 276.414 230.17 287.863 254.219C287.897 254.292 287.953 254.312 288.029 254.279ZM344.464 216.021L356.863 218.345C356.888 218.349 356.915 218.347 356.939 218.337C356.963 218.328 356.985 218.312 357 218.291C357.016 218.27 357.026 218.245 357.028 218.219C357.03 218.193 357.025 218.167 357.014 218.144C347.602 198.589 338.922 178.667 329.939 158.909C328.69 156.158 326.966 153.549 325.441 150.888C324.937 150.004 323.787 148.448 321.99 146.217C317.267 140.358 312.766 134.537 309.06 127.962C309.049 127.944 309.033 127.931 309.013 127.924C308.994 127.917 308.973 127.917 308.953 127.923C308.934 127.93 308.918 127.943 308.909 127.961C308.899 127.978 308.896 127.999 308.9 128.018C309.834 133.152 310.832 138.285 311.895 143.416C313.144 149.45 315.344 154.746 318.166 160.349C326.883 177.659 335.536 196.789 344.35 215.933C344.373 215.982 344.411 216.011 344.464 216.021ZM356.513 220.616C356.533 220.599 356.547 220.577 356.554 220.552C356.561 220.528 356.562 220.501 356.555 220.477C356.548 220.452 356.534 220.429 356.515 220.412C356.496 220.395 356.473 220.383 356.448 220.378L345.665 218.364C345.641 218.36 345.616 218.363 345.592 218.371C345.569 218.38 345.549 218.395 345.534 218.415C345.519 218.434 345.509 218.457 345.506 218.482C345.502 218.506 345.506 218.531 345.516 218.554L349.26 226.939C349.269 226.959 349.282 226.976 349.299 226.99C349.316 227.004 349.336 227.013 349.357 227.018C349.378 227.023 349.4 227.022 349.421 227.016C349.442 227.011 349.462 227 349.478 226.986L356.513 220.616Z" fill="black"/>
<path d="M264.503 133.072L255.846 137.091C255.332 137.33 255.108 137.94 255.347 138.455L255.365 138.494C255.604 139.009 256.215 139.232 256.729 138.993L265.386 134.975C265.9 134.736 266.123 134.125 265.885 133.611L265.866 133.571C265.627 133.057 265.017 132.834 264.503 133.072Z" fill="black"/>
<path d="M277.585 127.003L268.934 131.019C268.42 131.257 268.196 131.868 268.435 132.382L268.451 132.416C268.69 132.931 269.3 133.154 269.815 132.915L278.466 128.899C278.98 128.661 279.203 128.05 278.965 127.536L278.949 127.502C278.71 126.987 278.1 126.764 277.585 127.003Z" fill="black"/>
<path d="M290.812 120.859L282.02 124.941C281.505 125.18 281.282 125.79 281.521 126.304L281.539 126.344C281.778 126.858 282.388 127.082 282.903 126.843L291.695 122.761C292.21 122.523 292.433 121.912 292.194 121.398L292.176 121.358C291.937 120.844 291.327 120.62 290.812 120.859Z" fill="black"/>
<path d="M254.454 139.836C254.892 139.633 255.082 139.113 254.878 138.676C254.675 138.238 254.156 138.048 253.718 138.251C253.28 138.454 253.09 138.974 253.293 139.412C253.496 139.849 254.016 140.039 254.454 139.836Z" fill="black"/>
<path d="M267.533 133.775C267.972 133.571 268.163 133.049 267.959 132.61C267.755 132.171 267.234 131.98 266.794 132.184C266.355 132.388 266.164 132.909 266.368 133.349C266.572 133.788 267.094 133.979 267.533 133.775Z" fill="black"/>
<path d="M280.607 127.665C281.064 127.45 281.275 126.935 281.078 126.514C280.88 126.092 280.349 125.924 279.892 126.138C279.435 126.353 279.224 126.868 279.421 127.289C279.619 127.711 280.15 127.879 280.607 127.665Z" fill="black"/>
<path d="M293.687 121.627C294.122 121.425 294.31 120.909 294.109 120.475C293.907 120.04 293.391 119.851 292.956 120.053C292.522 120.255 292.333 120.771 292.535 121.205C292.737 121.64 293.252 121.829 293.687 121.627Z" fill="black"/>
<path d="M287.643 173.375C279.093 178.118 269.684 165.107 274.356 157.463C274.701 156.897 275.217 156.463 275.906 156.162C275.953 156.141 275.994 156.11 276.026 156.07C276.059 156.031 276.082 155.984 276.092 155.935C276.179 155.564 276.257 155.318 276.608 155.11C279.911 153.168 283.915 154.292 286.632 156.736C289.893 159.668 291.439 163.268 291.27 167.535C291.209 169.118 290.562 170.505 289.33 171.694C289.257 171.765 289.211 171.86 289.202 171.96C289.112 173.034 288.305 173.006 287.643 173.375ZM287.176 170.196C288.252 170.773 289.032 168.546 289.077 167.748C289.317 163.367 287.742 159.983 284.351 157.596C282.977 156.63 281.439 156.185 279.808 156.185C279.779 156.186 279.751 156.197 279.728 156.216C279.706 156.234 279.691 156.26 279.685 156.288C279.679 156.317 279.682 156.347 279.695 156.373C279.707 156.399 279.728 156.42 279.755 156.433C282.891 157.868 284.622 160.67 284.265 164.118C284.146 165.264 283.785 166.829 284.379 167.864C285.113 169.14 285.938 169.539 287.176 170.196ZM276.585 158.145C275.465 158.741 275.046 161.664 275.148 162.625C275.628 167.298 279.432 172.734 284.77 172.204C284.941 172.186 284.953 172.135 284.805 172.05C282.457 170.683 281.488 168.759 281.42 166.1C281.39 164.93 281.806 163.144 281.442 161.906C280.977 160.335 279.593 159.354 278.174 158.536C277.643 158.229 277.27 157.783 276.585 158.145Z" fill="black"/>
<path d="M284.996 224.479C283.801 224.237 282.915 223.495 282.338 222.251C277.917 212.719 273.487 203.165 269.047 193.59C268.933 193.345 268.921 193.065 269.014 192.812C269.107 192.558 269.296 192.352 269.541 192.238C282.134 186.388 294.816 180.501 307.584 174.578C310.036 173.44 311.914 174.217 313.039 176.633C317.506 186.242 321.945 195.804 326.356 205.32C326.463 205.551 326.474 205.814 326.387 206.053C326.3 206.291 326.123 206.485 325.893 206.592C313.168 212.501 300.412 218.421 287.625 224.353C286.966 224.658 286.09 224.7 284.996 224.479ZM284.285 221.413C285.066 223.094 286.776 222.503 288.113 221.883C300.046 216.35 311.948 210.828 323.819 205.318C323.885 205.287 323.936 205.232 323.961 205.163C323.986 205.095 323.983 205.019 323.952 204.953C319.703 195.795 315.446 186.628 311.181 177.45C310.549 176.089 309.685 175.836 308.304 176.477C296.05 182.166 283.825 187.841 271.628 193.503C271.562 193.533 271.511 193.589 271.486 193.657C271.461 193.726 271.464 193.801 271.495 193.867C275.749 203.038 280.013 212.22 284.285 221.413Z" fill="black"/>
<path d="M305.738 222.31L287.525 230.765C287.006 231.005 286.78 231.622 287.021 232.141L287.034 232.169C287.275 232.688 287.891 232.913 288.41 232.672L306.624 224.218C307.143 223.977 307.368 223.361 307.127 222.841L307.114 222.813C306.873 222.294 306.257 222.069 305.738 222.31Z" fill="black"/>
<path d="M336.259 227.069L321.997 233.69C321.478 233.931 321.253 234.547 321.494 235.066L321.507 235.094C321.748 235.613 322.364 235.839 322.883 235.598L337.145 228.977C337.664 228.736 337.889 228.12 337.648 227.601L337.635 227.573C337.394 227.054 336.778 226.828 336.259 227.069Z" fill="black"/>
<path d="M302.054 184.715L283.846 193.168C283.325 193.409 283.099 194.027 283.341 194.548L283.351 194.571C283.593 195.091 284.211 195.317 284.732 195.076L302.939 186.623C303.46 186.382 303.686 185.764 303.445 185.243L303.434 185.221C303.192 184.7 302.574 184.474 302.054 184.715Z" fill="black"/>
<path d="M304.98 191.013L286.767 199.468C286.246 199.709 286.02 200.327 286.262 200.848L286.272 200.871C286.514 201.391 287.132 201.617 287.653 201.376L305.866 192.921C306.387 192.679 306.613 192.061 306.371 191.541L306.361 191.518C306.119 190.997 305.501 190.771 304.98 191.013Z" fill="black"/>
<path d="M391.178 247.861C390.063 248.349 388.941 248.821 387.811 249.279C386.64 249.751 386.441 249.234 386.001 248.307C373.872 222.797 366.383 206.779 363.535 200.252C360.225 192.668 358.017 187.435 356.911 184.553C353.037 174.45 350.577 163.229 347.902 152.411C346.439 146.492 344.144 140.203 341.018 133.543C340.06 131.504 339.554 130.339 339.5 130.05C339.232 128.617 339.753 127.32 341.065 126.158C341.564 125.713 342.333 125.687 342.842 125.45C360.267 117.361 377.692 109.272 395.119 101.183C395.157 101.165 395.553 100.929 396.308 100.476C397.682 99.6485 399.646 99.9862 400.776 100.968C401.275 101.402 401.817 102.262 402.4 103.549C403.415 105.779 404.322 108.148 405.378 110.215C408.896 117.104 412.851 124.022 417.575 130.159C419.949 133.243 422.33 136.325 424.715 139.404C428.289 144.011 431.09 149.341 433.376 154.969C441.501 174.976 450.371 192.921 459.459 211.615C459.819 212.357 459.768 212.94 459.307 213.365C456.243 216.191 453.164 219 450.072 221.791C449.587 222.23 449.043 222.58 448.439 222.841C429.347 231.172 410.26 239.512 391.178 247.861ZM387.821 247.024L447.144 221.155C447.31 221.082 447.356 220.962 447.283 220.794C437.595 198.955 427.539 177.425 417.105 155.987C413.411 148.392 411.052 143.778 409.595 136.296C408.726 131.825 407.845 127.357 406.952 122.893C406.074 118.497 404.561 114.413 403.002 110.292C402.996 110.276 402.987 110.261 402.975 110.249C402.963 110.237 402.948 110.227 402.932 110.22C402.916 110.214 402.899 110.211 402.882 110.211C402.865 110.212 402.848 110.216 402.832 110.223C400.455 111.349 398.196 112.407 396.054 113.397C394.445 114.14 393.76 112.146 394.687 111.712C397.127 110.573 399.535 109.453 401.912 108.352C401.978 108.321 402.029 108.267 402.055 108.199C402.082 108.132 402.081 108.057 402.054 107.99C401.537 106.729 400.249 103.064 399.208 102.357C398.225 101.692 397.645 102.333 396.759 102.744C379.112 110.936 361.464 119.128 343.817 127.32C342.47 127.946 340.919 128.067 341.79 130.113C342.495 131.765 343.205 133.423 343.92 135.087C343.964 135.188 344.037 135.215 344.137 135.168C346.461 134.094 348.785 133.019 351.107 131.943C352.551 131.273 353.487 133.14 351.631 134.005C349.421 135.04 347.187 136.081 344.929 137.127C344.823 137.176 344.793 137.254 344.838 137.361C346.316 140.908 347.738 144.38 348.764 148.095C350.31 153.697 351.75 159.326 353.087 164.982C354.274 170.008 355.861 174.79 357.404 179.641C358.03 181.608 358.746 183.56 359.552 185.498C367.978 205.724 376.206 222.915 387.655 246.964C387.689 247.037 387.745 247.058 387.821 247.024ZM444.256 208.767L456.655 211.09C456.68 211.095 456.707 211.092 456.731 211.083C456.755 211.073 456.777 211.057 456.792 211.036C456.808 211.015 456.818 210.99 456.82 210.964C456.822 210.938 456.817 210.912 456.806 210.889C447.394 191.334 438.714 171.412 429.731 151.654C428.482 148.903 426.758 146.294 425.233 143.633C424.729 142.75 423.579 141.193 421.782 138.962C417.059 133.103 412.558 127.282 408.852 120.707C408.841 120.689 408.825 120.676 408.805 120.669C408.786 120.662 408.764 120.662 408.745 120.669C408.726 120.675 408.71 120.689 408.701 120.706C408.691 120.724 408.688 120.744 408.692 120.764C409.626 125.898 410.624 131.03 411.687 136.161C412.936 142.195 415.136 147.491 417.957 153.094C426.675 170.404 435.328 189.534 444.142 208.678C444.165 208.727 444.203 208.757 444.256 208.767ZM456.305 213.361C456.324 213.344 456.339 213.322 456.346 213.297C456.353 213.273 456.353 213.247 456.347 213.222C456.34 213.197 456.326 213.175 456.307 213.157C456.288 213.14 456.265 213.128 456.24 213.123L445.457 211.11C445.433 211.105 445.408 211.108 445.384 211.117C445.361 211.126 445.341 211.14 445.326 211.16C445.31 211.179 445.301 211.203 445.298 211.227C445.294 211.252 445.298 211.277 445.308 211.299L449.052 219.684C449.061 219.704 449.074 219.722 449.091 219.735C449.108 219.749 449.128 219.759 449.149 219.763C449.17 219.768 449.192 219.767 449.213 219.762C449.234 219.756 449.254 219.745 449.27 219.731L456.305 213.361Z" fill="black"/>
<path d="M370.503 128.072L361.846 132.091C361.332 132.33 361.108 132.94 361.347 133.455L361.365 133.494C361.604 134.009 362.215 134.232 362.729 133.993L371.386 129.975C371.9 129.736 372.123 129.125 371.885 128.611L371.866 128.571C371.627 128.057 371.017 127.834 370.503 128.072Z" fill="black"/>
<path d="M383.585 122.003L374.934 126.019C374.42 126.257 374.196 126.868 374.435 127.382L374.451 127.416C374.69 127.931 375.3 128.154 375.815 127.915L384.466 123.899C384.98 123.661 385.203 123.05 384.965 122.536L384.949 122.502C384.71 121.987 384.1 121.764 383.585 122.003Z" fill="black"/>
<path d="M396.812 115.859L388.02 119.941C387.505 120.18 387.282 120.79 387.521 121.304L387.539 121.344C387.778 121.858 388.388 122.082 388.903 121.843L397.695 117.761C398.21 117.523 398.433 116.912 398.194 116.398L398.176 116.358C397.937 115.844 397.327 115.62 396.812 115.859Z" fill="black"/>
<path d="M360.454 134.836C360.892 134.633 361.082 134.113 360.878 133.676C360.675 133.238 360.156 133.048 359.718 133.251C359.28 133.454 359.09 133.974 359.293 134.412C359.496 134.849 360.016 135.039 360.454 134.836Z" fill="black"/>
<path d="M373.533 128.775C373.972 128.571 374.163 128.049 373.959 127.61C373.755 127.171 373.234 126.98 372.794 127.184C372.355 127.388 372.164 127.909 372.368 128.349C372.572 128.788 373.094 128.979 373.533 128.775Z" fill="black"/>
<path d="M386.607 122.665C387.064 122.45 387.275 121.935 387.078 121.514C386.88 121.092 386.349 120.924 385.892 121.138C385.435 121.353 385.224 121.868 385.421 122.289C385.619 122.711 386.15 122.879 386.607 122.665Z" fill="black"/>
<path d="M399.687 116.627C400.122 116.425 400.31 115.909 400.109 115.475C399.907 115.04 399.391 114.851 398.956 115.053C398.522 115.255 398.333 115.771 398.535 116.205C398.737 116.64 399.252 116.829 399.687 116.627Z" fill="black"/>
<path d="M393.643 168.375C385.093 173.118 375.684 160.107 380.356 152.463C380.701 151.897 381.217 151.463 381.906 151.162C381.953 151.141 381.994 151.11 382.026 151.07C382.059 151.031 382.082 150.984 382.092 150.935C382.179 150.564 382.257 150.318 382.608 150.11C385.911 148.168 389.915 149.292 392.632 151.736C395.893 154.668 397.439 158.268 397.27 162.535C397.209 164.118 396.562 165.505 395.33 166.694C395.257 166.765 395.211 166.86 395.202 166.96C395.112 168.034 394.305 168.006 393.643 168.375ZM393.176 165.196C394.252 165.773 395.032 163.546 395.077 162.748C395.317 158.367 393.742 154.983 390.351 152.596C388.977 151.63 387.439 151.185 385.808 151.185C385.779 151.186 385.751 151.197 385.728 151.216C385.706 151.234 385.691 151.26 385.685 151.288C385.679 151.317 385.682 151.347 385.695 151.373C385.707 151.399 385.728 151.42 385.755 151.433C388.891 152.868 390.622 155.67 390.265 159.118C390.146 160.264 389.785 161.829 390.379 162.864C391.113 164.14 391.938 164.539 393.176 165.196ZM382.585 153.145C381.465 153.741 381.046 156.664 381.148 157.625C381.628 162.298 385.432 167.734 390.77 167.204C390.941 167.186 390.953 167.135 390.805 167.05C388.457 165.683 387.488 163.759 387.42 161.1C387.39 159.93 387.806 158.144 387.442 156.906C386.977 155.335 385.593 154.354 384.174 153.536C383.643 153.229 383.27 152.783 382.585 153.145Z" fill="black"/>
<path d="M390.996 219.479C389.801 219.237 388.915 218.495 388.338 217.251C383.917 207.719 379.487 198.165 375.047 188.59C374.933 188.345 374.921 188.065 375.014 187.812C375.107 187.558 375.296 187.352 375.541 187.238C388.134 181.388 400.816 175.501 413.584 169.578C416.036 168.44 417.914 169.217 419.039 171.633C423.506 181.242 427.945 190.804 432.356 200.32C432.463 200.551 432.474 200.814 432.387 201.053C432.3 201.291 432.123 201.485 431.893 201.592C419.168 207.501 406.412 213.421 393.625 219.353C392.966 219.658 392.09 219.7 390.996 219.479ZM390.285 216.413C391.066 218.094 392.776 217.503 394.113 216.883C406.046 211.35 417.948 205.828 429.819 200.318C429.885 200.287 429.936 200.232 429.961 200.163C429.986 200.095 429.983 200.019 429.952 199.953C425.703 190.795 421.446 181.628 417.181 172.45C416.549 171.089 415.685 170.836 414.304 171.477C402.05 177.166 389.825 182.841 377.628 188.503C377.562 188.533 377.511 188.589 377.486 188.657C377.461 188.726 377.464 188.801 377.495 188.867C381.749 198.038 386.013 207.22 390.285 216.413Z" fill="black"/>
<path d="M411.738 217.31L393.525 225.765C393.006 226.005 392.78 226.622 393.021 227.141L393.034 227.169C393.275 227.688 393.891 227.913 394.41 227.672L412.624 219.218C413.143 218.977 413.368 218.361 413.127 217.841L413.114 217.813C412.873 217.294 412.257 217.069 411.738 217.31Z" fill="black"/>
<path d="M442.259 222.069L427.997 228.69C427.478 228.931 427.253 229.547 427.494 230.066L427.507 230.094C427.748 230.613 428.364 230.839 428.883 230.598L443.145 223.977C443.664 223.736 443.889 223.12 443.648 222.601L443.635 222.573C443.394 222.054 442.778 221.828 442.259 222.069Z" fill="black"/>
<path d="M408.054 179.715L389.846 188.168C389.325 188.409 389.099 189.027 389.341 189.548L389.351 189.571C389.593 190.091 390.211 190.317 390.732 190.076L408.939 181.623C409.46 181.382 409.686 180.764 409.445 180.243L409.434 180.221C409.192 179.7 408.574 179.474 408.054 179.715Z" fill="black"/>
<path d="M410.98 186.013L392.767 194.468C392.246 194.709 392.02 195.327 392.262 195.848L392.272 195.871C392.514 196.391 393.132 196.617 393.653 196.376L411.866 187.921C412.387 187.679 412.613 187.061 412.371 186.541L412.361 186.518C412.119 185.997 411.501 185.771 410.98 186.013Z" fill="black"/>
<path d="M193.387 265.115C192.271 265.603 191.149 266.076 190.019 266.534C188.848 267.005 188.649 266.489 188.209 265.561C176.08 240.052 168.591 224.034 165.743 217.506C162.433 209.922 160.225 204.689 159.119 201.808C155.245 191.705 152.785 180.484 150.11 169.665C148.647 163.747 146.352 157.458 143.226 150.798C142.268 148.759 141.762 147.594 141.708 147.305C141.44 145.872 141.961 144.575 143.273 143.413C143.772 142.968 144.541 142.941 145.05 142.705C162.475 134.616 179.901 126.527 197.327 118.437C197.365 118.42 197.761 118.184 198.516 117.73C199.89 116.903 201.854 117.241 202.984 118.223C203.484 118.657 204.025 119.517 204.608 120.803C205.623 123.033 206.53 125.403 207.586 127.469C211.104 134.359 215.059 141.277 219.783 147.414C222.157 150.498 224.538 153.58 226.923 156.658C230.497 161.265 233.298 166.595 235.584 172.223C243.709 192.231 252.579 210.176 261.667 228.87C262.027 229.611 261.976 230.194 261.515 230.619C258.451 233.446 255.372 236.255 252.28 239.046C251.795 239.484 251.251 239.835 250.647 240.096C231.555 248.427 212.468 256.767 193.387 265.115ZM190.029 264.279L249.352 238.41C249.518 238.337 249.564 238.217 249.491 238.049C239.803 216.21 229.747 194.68 219.313 173.242C215.619 165.646 213.26 161.033 211.803 153.551C210.935 149.08 210.053 144.612 209.16 140.148C208.282 135.752 206.769 131.668 205.21 127.547C205.204 127.531 205.195 127.516 205.183 127.504C205.171 127.491 205.156 127.482 205.14 127.475C205.124 127.469 205.107 127.466 205.09 127.466C205.073 127.466 205.056 127.47 205.04 127.478C202.664 128.604 200.404 129.662 198.262 130.652C196.653 131.395 195.968 129.401 196.895 128.967C199.335 127.828 201.743 126.708 204.12 125.607C204.186 125.576 204.237 125.522 204.263 125.454C204.29 125.387 204.289 125.312 204.262 125.245C203.745 123.984 202.457 120.319 201.416 119.612C200.433 118.946 199.853 119.587 198.967 119.999C181.32 128.191 163.672 136.383 146.025 144.575C144.678 145.2 143.127 145.322 143.998 147.367C144.703 149.02 145.413 150.678 146.128 152.341C146.172 152.442 146.245 152.47 146.345 152.423C148.669 151.349 150.993 150.273 153.315 149.198C154.759 148.527 155.695 150.395 153.839 151.26C151.629 152.295 149.395 153.336 147.137 154.381C147.031 154.431 147.001 154.509 147.046 154.616C148.524 158.163 149.946 161.635 150.972 165.349C152.518 170.952 153.958 176.581 155.295 182.236C156.482 187.263 158.069 192.045 159.612 196.896C160.238 198.863 160.954 200.815 161.76 202.753C170.186 222.979 178.414 240.17 189.863 264.219C189.897 264.292 189.953 264.312 190.029 264.279ZM246.464 226.021L258.863 228.345C258.888 228.349 258.915 228.347 258.939 228.337C258.963 228.328 258.985 228.312 259 228.291C259.016 228.27 259.026 228.245 259.028 228.219C259.03 228.193 259.025 228.167 259.014 228.144C249.602 208.589 240.922 188.667 231.939 168.909C230.69 166.158 228.966 163.549 227.441 160.888C226.937 160.004 225.787 158.448 223.99 156.217C219.267 150.358 214.766 144.537 211.06 137.962C211.049 137.944 211.033 137.931 211.013 137.924C210.994 137.917 210.973 137.917 210.953 137.923C210.934 137.93 210.918 137.943 210.909 137.961C210.899 137.978 210.896 137.999 210.9 138.018C211.834 143.152 212.832 148.285 213.895 153.416C215.144 159.45 217.344 164.746 220.166 170.349C228.883 187.659 237.536 206.789 246.35 225.933C246.373 225.982 246.411 226.011 246.464 226.021ZM258.513 230.616C258.533 230.599 258.547 230.577 258.554 230.552C258.561 230.528 258.562 230.501 258.555 230.477C258.548 230.452 258.534 230.429 258.515 230.412C258.496 230.395 258.473 230.383 258.448 230.378L247.665 228.364C247.641 228.36 247.616 228.363 247.592 228.371C247.569 228.38 247.549 228.395 247.534 228.415C247.519 228.434 247.509 228.457 247.506 228.482C247.502 228.506 247.506 228.531 247.516 228.554L251.26 236.939C251.269 236.959 251.282 236.976 251.299 236.99C251.316 237.004 251.336 237.013 251.357 237.018C251.378 237.023 251.4 237.022 251.421 237.016C251.442 237.011 251.462 237 251.478 236.986L258.513 230.616Z" fill="black"/>
<path d="M166.503 143.072L157.846 147.091C157.332 147.33 157.108 147.94 157.347 148.455L157.365 148.494C157.604 149.009 158.215 149.232 158.729 148.993L167.386 144.975C167.9 144.736 168.123 144.125 167.885 143.611L167.866 143.571C167.627 143.057 167.017 142.834 166.503 143.072Z" fill="black"/>
<path d="M179.585 137.003L170.934 141.019C170.42 141.257 170.196 141.868 170.435 142.382L170.451 142.416C170.69 142.931 171.3 143.154 171.815 142.915L180.466 138.899C180.98 138.661 181.203 138.05 180.965 137.536L180.949 137.502C180.71 136.987 180.1 136.764 179.585 137.003Z" fill="black"/>
<path d="M192.812 130.859L184.02 134.941C183.505 135.18 183.282 135.79 183.521 136.304L183.539 136.344C183.778 136.858 184.388 137.082 184.903 136.843L193.695 132.761C194.21 132.523 194.433 131.912 194.194 131.398L194.176 131.358C193.937 130.844 193.327 130.62 192.812 130.859Z" fill="black"/>
<path d="M156.454 149.836C156.892 149.633 157.082 149.113 156.878 148.676C156.675 148.238 156.156 148.048 155.718 148.251C155.28 148.454 155.09 148.974 155.293 149.412C155.496 149.849 156.016 150.039 156.454 149.836Z" fill="black"/>
<path d="M169.533 143.775C169.972 143.571 170.163 143.049 169.959 142.61C169.755 142.171 169.234 141.98 168.794 142.184C168.355 142.388 168.164 142.909 168.368 143.349C168.572 143.788 169.094 143.979 169.533 143.775Z" fill="black"/>
<path d="M182.607 137.665C183.064 137.45 183.275 136.935 183.078 136.514C182.88 136.092 182.349 135.924 181.892 136.138C181.435 136.353 181.224 136.868 181.421 137.289C181.619 137.711 182.15 137.879 182.607 137.665Z" fill="black"/>
<path d="M195.687 131.627C196.122 131.425 196.31 130.909 196.109 130.475C195.907 130.04 195.391 129.851 194.956 130.053C194.522 130.255 194.333 130.771 194.535 131.205C194.737 131.64 195.252 131.829 195.687 131.627Z" fill="black"/>
<path d="M189.643 183.375C181.093 188.118 171.684 175.107 176.356 167.463C176.701 166.897 177.217 166.463 177.906 166.162C177.953 166.141 177.994 166.11 178.026 166.07C178.059 166.031 178.082 165.984 178.092 165.935C178.179 165.564 178.257 165.318 178.608 165.11C181.911 163.168 185.915 164.292 188.632 166.736C191.893 169.668 193.439 173.268 193.27 177.535C193.209 179.118 192.562 180.505 191.33 181.694C191.257 181.765 191.211 181.86 191.202 181.96C191.112 183.034 190.305 183.006 189.643 183.375ZM189.176 180.196C190.252 180.773 191.032 178.546 191.077 177.748C191.317 173.367 189.742 169.983 186.351 167.596C184.977 166.63 183.439 166.185 181.808 166.185C181.779 166.186 181.751 166.197 181.728 166.216C181.706 166.234 181.691 166.26 181.685 166.288C181.679 166.317 181.682 166.347 181.695 166.373C181.707 166.399 181.728 166.42 181.755 166.433C184.891 167.868 186.622 170.67 186.265 174.118C186.146 175.264 185.785 176.829 186.379 177.864C187.113 179.14 187.938 179.539 189.176 180.196ZM178.585 168.145C177.465 168.741 177.046 171.664 177.148 172.625C177.628 177.298 181.432 182.734 186.77 182.204C186.941 182.186 186.953 182.135 186.805 182.05C184.457 180.683 183.488 178.759 183.42 176.1C183.39 174.93 183.806 173.144 183.442 171.906C182.977 170.335 181.593 169.354 180.174 168.536C179.643 168.229 179.27 167.783 178.585 168.145Z" fill="black"/>
<path d="M186.996 234.479C185.801 234.237 184.915 233.495 184.338 232.251C179.917 222.719 175.487 213.165 171.047 203.59C170.933 203.345 170.921 203.065 171.014 202.812C171.107 202.558 171.296 202.352 171.541 202.238C184.134 196.388 196.816 190.501 209.584 184.578C212.036 183.44 213.914 184.217 215.039 186.633C219.506 196.242 223.945 205.804 228.356 215.32C228.463 215.551 228.474 215.814 228.387 216.053C228.3 216.291 228.123 216.485 227.893 216.592C215.168 222.501 202.412 228.421 189.625 234.353C188.966 234.658 188.09 234.7 186.996 234.479ZM186.285 231.413C187.066 233.094 188.776 232.503 190.113 231.883C202.046 226.35 213.948 220.828 225.819 215.318C225.885 215.287 225.936 215.232 225.961 215.163C225.986 215.095 225.983 215.019 225.952 214.953C221.703 205.795 217.446 196.628 213.181 187.45C212.549 186.089 211.685 185.836 210.304 186.477C198.05 192.166 185.825 197.841 173.628 203.503C173.562 203.533 173.511 203.589 173.486 203.657C173.461 203.726 173.464 203.801 173.495 203.867C177.749 213.038 182.013 222.22 186.285 231.413Z" fill="black"/>
<path d="M207.738 232.31L189.525 240.765C189.006 241.005 188.78 241.622 189.021 242.141L189.034 242.169C189.275 242.688 189.891 242.913 190.41 242.672L208.624 234.218C209.143 233.977 209.368 233.361 209.127 232.841L209.114 232.813C208.873 232.294 208.257 232.069 207.738 232.31Z" fill="black"/>
<path d="M238.259 237.069L223.997 243.69C223.478 243.931 223.253 244.547 223.494 245.066L223.507 245.094C223.748 245.613 224.364 245.839 224.883 245.598L239.145 238.977C239.664 238.736 239.889 238.12 239.648 237.601L239.635 237.573C239.394 237.054 238.778 236.828 238.259 237.069Z" fill="black"/>
<path d="M204.054 194.715L185.846 203.168C185.325 203.409 185.099 204.027 185.341 204.548L185.351 204.571C185.593 205.091 186.211 205.317 186.732 205.076L204.939 196.623C205.46 196.382 205.686 195.764 205.445 195.243L205.434 195.221C205.192 194.7 204.574 194.474 204.054 194.715Z" fill="black"/>
<path d="M206.98 201.013L188.767 209.468C188.246 209.709 188.02 210.327 188.262 210.848L188.272 210.871C188.514 211.391 189.132 211.617 189.653 211.376L207.866 202.921C208.387 202.679 208.613 202.061 208.371 201.541L208.361 201.518C208.119 200.997 207.501 200.771 206.98 201.013Z" fill="black"/>
</g>
<defs>
<clipPath id="clip0_104_142">
<rect width="512" height="512" fill="white"/>
</clipPath>
</defs>
</svg>
