<svg width="512" height="512" viewBox="-128 -128 512 512" fill="none" xmlns="http://www.w3.org/2000/svg">
<g clip-path="url(#clip0_104_142)">
<path d="M256 46.5349V46.9049C251.27 66.7849 246.52 86.6583 241.75 106.525C238.65 119.425 230.3 128.69 217.615 131.995C215.695 132.495 212.403 132.988 207.74 133.475C168.05 137.625 128.352 141.773 88.6449 145.92C88.5108 145.935 88.3831 145.985 88.2744 146.064C88.1657 146.143 88.0797 146.248 88.0249 146.37C87.0999 148.445 85.9949 150.705 85.4699 152.745C83.4349 160.645 87.5349 169.36 95.4449 171.855C97.0649 172.368 99.7933 172.632 103.63 172.645C139.377 172.768 175.123 172.798 210.87 172.735C214.233 172.728 216.227 172.812 216.85 172.985C222.245 174.495 222.595 182.025 217.455 184.065C216.525 184.432 214.927 184.615 212.66 184.615C175.65 184.628 138.638 184.633 101.625 184.63C83.1649 184.63 69.2699 168.305 73.7549 149.86C74.5349 146.67 76.2199 143.015 77.6999 139.71C77.7699 139.55 77.7783 139.387 77.7249 139.22C65.4583 102.19 53.1816 65.1666 40.8949 28.1499C37.7849 18.7799 32.9499 15.4449 23.0899 15.2949C16.9333 15.2049 11.4866 15.1966 6.74994 15.2699C-0.100063 15.3749 -2.57006 6.79994 3.46494 4.10494C4.56494 3.61494 6.40327 3.37161 8.97994 3.37494C15.5299 3.37494 22.0649 3.23994 28.6099 3.66994C37.1099 4.22994 45.0249 10.1299 49.0549 17.0299C52.2649 22.5249 54.4299 31.1399 56.6199 37.8599C56.6504 37.9548 56.7102 38.0377 56.791 38.097C56.8717 38.1562 56.9693 38.1887 57.0699 38.1899C120.823 39.0566 184.588 39.9383 248.365 40.8349C251.985 40.8849 255.705 42.3849 256 46.5349ZM242.23 52.7099L61.0399 50.0549C60.7333 50.0516 60.6283 50.1949 60.7249 50.4849L88.0849 133.455C88.1616 133.685 88.3199 133.787 88.5599 133.76C128.547 129.623 168.548 125.485 208.565 121.345C212.408 120.945 215.237 120.412 217.05 119.745C223.84 117.248 228.167 112.167 230.03 104.5C234.187 87.3699 238.352 70.2333 242.525 53.0899C242.585 52.8399 242.487 52.7133 242.23 52.7099Z" fill="black"/>
<path d="M108.33 225.845C108.33 232.918 105.52 239.702 100.519 244.704C95.5172 249.705 88.7336 252.515 81.6602 252.515C74.5869 252.515 67.8033 249.705 62.8017 244.704C57.8001 239.702 54.9902 232.918 54.9902 225.845C54.9902 218.772 57.8001 211.988 62.8017 206.986C67.8033 201.985 74.5869 199.175 81.6602 199.175C88.7336 199.175 95.5172 201.985 100.519 206.986C105.52 211.988 108.33 218.772 108.33 225.845ZM96.4402 225.845C96.4402 221.925 94.8831 218.166 92.1113 215.394C89.3395 212.622 85.5801 211.065 81.6602 211.065C77.7403 211.065 73.981 212.622 71.2092 215.394C68.4374 218.166 66.8802 221.925 66.8802 225.845C66.8802 229.765 68.4374 233.524 71.2092 236.296C73.981 239.068 77.7403 240.625 81.6602 240.625C85.5801 240.625 89.3395 239.068 92.1113 236.296C94.8831 233.524 96.4402 229.765 96.4402 225.845Z" fill="black"/>
<path d="M221.175 225.85C221.175 229.352 220.486 232.82 219.145 236.056C217.805 239.292 215.841 242.232 213.364 244.709C210.887 247.185 207.947 249.15 204.712 250.49C201.476 251.83 198.008 252.52 194.505 252.52C191.003 252.52 187.535 251.83 184.299 250.49C181.064 249.15 178.123 247.185 175.647 244.709C173.17 242.232 171.206 239.292 169.866 236.056C168.525 232.82 167.835 229.352 167.835 225.85C167.835 218.777 170.645 211.993 175.647 206.991C180.649 201.99 187.432 199.18 194.505 199.18C201.579 199.18 208.362 201.99 213.364 206.991C218.366 211.993 221.175 218.777 221.175 225.85ZM209.29 225.845C209.29 221.925 207.733 218.166 204.961 215.394C202.19 212.622 198.43 211.065 194.51 211.065C190.591 211.065 186.831 212.622 184.059 215.394C181.288 218.166 179.73 221.925 179.73 225.845C179.73 229.765 181.288 233.524 184.059 236.296C186.831 239.068 190.591 240.625 194.51 240.625C198.43 240.625 202.19 239.068 204.961 236.296C207.733 233.524 209.29 229.765 209.29 225.845Z" fill="black"/>
<path d="M134.897 139.368C133.865 139.831 132.827 140.28 131.781 140.716C130.697 141.164 130.508 140.686 130.09 139.828C118.595 116.233 111.494 101.416 108.789 95.3767C105.647 88.3592 103.549 83.5167 102.496 80.8491C98.8062 71.496 96.4211 61.0917 93.8394 51.0636C92.4277 45.5777 90.2401 39.7545 87.2764 33.594C86.3679 31.7075 85.8874 30.6302 85.8346 30.3619C85.5726 29.0328 86.0459 27.8227 87.2545 26.7316C87.714 26.3138 88.4281 26.2823 88.8994 26.058C105.018 18.3877 121.137 10.717 137.257 3.04584C137.292 3.02923 137.658 2.80677 138.356 2.37846C139.626 1.59767 141.453 1.89401 142.512 2.79672C142.98 3.19498 143.49 3.98929 144.044 5.17963C145.006 7.24271 145.87 9.43618 146.87 11.3469C150.2 17.7173 153.935 24.1099 158.379 29.7704C160.613 32.6149 162.852 35.457 165.096 38.2965C168.457 42.5454 171.107 47.473 173.281 52.682C181.008 71.2004 189.409 87.7952 198.019 105.084C198.36 105.77 198.318 106.312 197.893 106.711C195.071 109.364 192.236 112.002 189.387 114.623C188.94 115.034 188.438 115.364 187.88 115.613C170.214 123.523 152.553 131.441 134.897 139.368ZM131.77 138.62L186.661 114.057C186.814 113.988 186.856 113.876 186.787 113.721C177.592 93.515 168.057 73.5993 158.172 53.7729C154.672 46.748 152.44 42.4822 151.02 35.5433C150.173 31.3966 149.314 27.2532 148.445 23.113C147.59 19.0363 146.147 15.2554 144.663 11.4401C144.657 11.4252 144.648 11.4116 144.637 11.4003C144.625 11.3889 144.612 11.38 144.597 11.3741C144.582 11.3682 144.566 11.3655 144.55 11.366C144.534 11.3666 144.519 11.3704 144.504 11.3773C142.306 12.4449 140.216 13.4479 138.235 14.3865C136.746 15.0917 136.092 13.2448 136.95 12.8334C139.206 11.7532 141.434 10.691 143.633 9.64681C143.693 9.61797 143.741 9.56679 143.764 9.50394C143.788 9.44109 143.787 9.37142 143.761 9.30946C143.27 8.14283 142.04 4.74884 141.067 4.10075C140.148 3.49132 139.615 4.0919 138.795 4.48193C122.47 12.2503 106.146 20.0186 89.8217 27.7869C88.5753 28.3801 87.1355 28.5064 87.9626 30.3995C88.6324 31.9285 89.3068 33.4628 89.9859 35.0023C90.0282 35.0957 90.0956 35.1204 90.1881 35.0763C92.3388 34.0572 94.4882 33.0376 96.6363 32.0175C97.9717 31.382 98.8578 33.1089 97.1412 33.929C95.0968 34.9104 93.0302 35.897 90.9415 36.8889C90.8437 36.9354 90.8163 37.0084 90.8594 37.1078C92.2638 40.3897 93.6164 43.6032 94.6026 47.0456C96.0883 52.2373 97.477 57.4547 98.7688 62.6979C99.9168 67.3577 101.434 71.7872 102.911 76.2808C103.51 78.1025 104.192 79.9102 104.958 81.7039C112.966 100.422 120.764 116.322 131.616 138.566C131.648 138.634 131.7 138.652 131.77 138.62ZM183.868 102.572L195.409 104.621C195.433 104.625 195.457 104.622 195.48 104.613C195.502 104.604 195.522 104.589 195.536 104.57C195.55 104.55 195.559 104.527 195.561 104.503C195.563 104.479 195.558 104.454 195.547 104.433C186.629 86.3466 178.387 67.9129 169.865 49.6345C168.68 47.0898 167.055 44.6804 165.615 42.2215C165.139 41.4053 164.056 39.969 162.366 37.9125C157.927 32.5102 153.692 27.1418 150.19 21.0651C150.18 21.0489 150.165 21.0365 150.147 21.0302C150.129 21.0239 150.109 21.0239 150.091 21.0304C150.073 21.0369 150.059 21.0494 150.05 21.0657C150.041 21.082 150.038 21.101 150.043 21.1193C150.956 25.8812 151.929 30.6413 152.962 35.3995C154.176 40.9945 156.267 45.8957 158.938 51.0768C167.192 67.0837 175.401 84.7813 183.761 102.491C183.783 102.536 183.818 102.563 183.868 102.572ZM195.104 106.734C195.122 106.718 195.135 106.698 195.141 106.675C195.148 106.652 195.148 106.628 195.141 106.605C195.135 106.582 195.122 106.561 195.104 106.545C195.086 106.529 195.065 106.518 195.041 106.514L185.004 104.738C184.982 104.735 184.958 104.737 184.937 104.746C184.916 104.754 184.897 104.768 184.883 104.786C184.869 104.805 184.86 104.826 184.857 104.849C184.855 104.872 184.858 104.895 184.867 104.916L188.421 112.674C188.429 112.692 188.442 112.708 188.457 112.721C188.473 112.734 188.492 112.742 188.512 112.746C188.531 112.75 188.552 112.75 188.571 112.744C188.591 112.739 188.609 112.729 188.624 112.715L195.104 106.734Z" fill="black"/>
<path d="M108.836 26.2092L100.828 30.0198C100.352 30.2463 100.15 30.8155 100.376 31.2913L100.394 31.328C100.62 31.8038 101.189 32.006 101.665 31.7795L109.673 27.9689C110.149 27.7425 110.351 27.1732 110.124 26.6974L110.107 26.6607C109.881 26.1849 109.311 25.9828 108.836 26.2092Z" fill="black"/>
<path d="M120.937 20.4534L112.935 24.2616C112.459 24.488 112.257 25.0573 112.483 25.5331L112.498 25.5645C112.725 26.0403 113.294 26.2425 113.77 26.0161L121.772 22.2079C122.248 21.9815 122.45 21.4122 122.224 20.9364L122.209 20.905C121.982 20.4292 121.413 20.227 120.937 20.4534Z" fill="black"/>
<path d="M133.173 14.6277L125.039 18.4982C124.563 18.7246 124.361 19.2939 124.588 19.7697L124.605 19.8063C124.832 20.2821 125.401 20.4843 125.877 20.2579L134.01 16.3874C134.486 16.161 134.688 15.5917 134.462 15.1159L134.444 15.0793C134.218 14.6035 133.648 14.4013 133.173 14.6277Z" fill="black"/>
<path d="M99.5585 32.5829C99.9634 32.3902 100.135 31.9057 99.9428 31.5008C99.7501 31.0958 99.2656 30.9238 98.8606 31.1165C98.4557 31.3092 98.2837 31.7937 98.4764 32.1986C98.6691 32.6035 99.1535 32.7756 99.5585 32.5829Z" fill="black"/>
<path d="M111.658 26.8349C112.064 26.6415 112.237 26.1553 112.043 25.7489C111.85 25.3426 111.364 25.1699 110.958 25.3633C110.551 25.5567 110.378 26.0429 110.572 26.4493C110.765 26.8557 111.251 27.0283 111.658 26.8349Z" fill="black"/>
<path d="M123.751 21.0415C124.174 20.8383 124.365 20.3577 124.178 19.9678C123.991 19.578 123.496 19.4266 123.073 19.6298C122.65 19.8329 122.459 20.3136 122.646 20.7034C122.833 21.0932 123.328 21.2446 123.751 21.0415Z" fill="black"/>
<path d="M135.851 15.3155C136.253 15.1242 136.424 14.6432 136.233 14.2411C136.041 13.8391 135.56 13.6682 135.158 13.8596C134.756 14.0509 134.585 14.5319 134.777 14.934C134.968 15.336 135.449 15.5068 135.851 15.3155Z" fill="black"/>
<path d="M130.695 63.4512C122.792 67.9345 113.934 55.9279 118.207 48.7847C118.523 48.2555 118.999 47.848 119.636 47.5621C119.679 47.5423 119.718 47.5127 119.747 47.4756C119.777 47.4386 119.798 47.3951 119.807 47.3488C119.884 47.0039 119.955 46.7744 120.279 46.5784C123.331 44.744 127.061 45.7533 129.608 48.0003C132.663 50.6957 134.132 54.0264 134.013 57.9925C133.97 59.4644 133.382 60.7583 132.247 61.8742C132.179 61.9414 132.138 62.0293 132.13 62.1223C132.057 63.121 131.306 63.1025 130.695 63.4512ZM130.232 60.5015C131.237 61.0283 131.942 58.9523 131.977 58.2097C132.161 54.1376 130.667 51.0074 127.496 48.8191C126.21 47.9341 124.777 47.5338 123.262 47.5484C123.235 47.5497 123.209 47.56 123.188 47.5776C123.168 47.5952 123.154 47.6191 123.148 47.6457C123.143 47.6722 123.146 47.6998 123.158 47.724C123.17 47.7483 123.19 47.7679 123.214 47.7797C126.141 49.0846 127.775 51.6731 127.473 54.8803C127.374 55.9459 127.052 57.4029 127.613 58.3594C128.306 59.5391 129.076 59.9017 130.232 60.5015ZM120.285 49.3985C119.249 49.9621 118.886 52.6816 118.99 53.5735C119.477 57.9116 123.059 62.9288 128.015 62.3885C128.173 62.3708 128.184 62.323 128.046 62.2451C125.852 60.996 124.935 59.2165 124.848 56.7464C124.809 55.6599 125.18 53.9964 124.83 52.8493C124.385 51.3943 123.09 50.4948 121.765 49.7478C121.268 49.467 120.918 49.0554 120.285 49.3985Z" fill="black"/>
<path d="M128.688 110.958C127.576 110.744 126.746 110.062 126.199 108.912C122.007 100.094 117.806 91.2566 113.595 82.3988C113.487 82.1724 113.474 81.9125 113.557 81.6762C113.641 81.44 113.816 81.2467 114.042 81.1389C125.692 75.591 137.422 70.0088 149.234 64.3923C151.501 63.3131 153.253 64.0179 154.32 66.253C158.556 75.1415 162.765 83.9872 166.948 92.7899C167.049 93.0031 167.062 93.2478 166.984 93.4701C166.905 93.6923 166.742 93.874 166.529 93.9751C154.759 99.5786 142.959 105.193 131.13 110.818C130.52 111.108 129.707 111.154 128.688 110.958ZM128 108.116C128.741 109.671 130.325 109.107 131.561 108.518C142.6 103.272 153.61 98.0355 164.591 92.8101C164.652 92.781 164.699 92.7289 164.722 92.6651C164.744 92.6013 164.741 92.5311 164.711 92.47C160.682 83.9989 156.646 75.5185 152.602 67.0289C152.002 65.7693 151.197 65.5422 149.919 66.1503C138.584 71.5444 127.275 76.926 115.993 82.2951C115.931 82.3242 115.884 82.3764 115.862 82.4401C115.839 82.5039 115.843 82.5741 115.872 82.6352C119.907 91.1186 123.95 99.612 128 108.116Z" fill="black"/>
<path d="M147.942 108.759L131.094 116.776C130.614 117.005 130.41 117.579 130.638 118.059L130.651 118.085C130.879 118.566 131.454 118.77 131.934 118.541L148.782 110.523C149.262 110.295 149.466 109.721 149.238 109.24L149.225 109.214C148.997 108.734 148.422 108.53 147.942 108.759Z" fill="black"/>
<path d="M176.343 112.91L163.15 119.188C162.67 119.417 162.466 119.991 162.694 120.471L162.707 120.498C162.935 120.978 163.51 121.182 163.99 120.953L177.183 114.675C177.663 114.447 177.867 113.872 177.638 113.392L177.626 113.366C177.397 112.886 176.823 112.682 176.343 112.91Z" fill="black"/>
<path d="M144.185 73.8604L127.342 81.8754C126.86 82.1046 126.656 82.6808 126.885 83.1624L126.895 83.1834C127.124 83.6649 127.7 83.8696 128.182 83.6404L145.024 75.6253C145.506 75.3961 145.711 74.82 145.482 74.3384L145.472 74.3174C145.242 73.8358 144.666 73.6312 144.185 73.8604Z" fill="black"/>
<path d="M146.959 79.6856L130.111 87.7032C129.63 87.9324 129.425 88.5086 129.654 88.9902L129.664 89.0111C129.893 89.4927 130.47 89.6973 130.951 89.4681L147.799 81.4506C148.281 81.2214 148.485 80.6452 148.256 80.1636L148.246 80.1427C148.017 79.6611 147.441 79.4565 146.959 79.6856Z" fill="black"/>
</g>
<defs>
<clipPath id="clip0_104_142">
<rect width="256" height="256" fill="white"/>
</clipPath>
</defs>
</svg>
